<svg width="37" height="33" viewBox="0 0 37 33" fill="none" xmlns="http://www.w3.org/2000/svg">
<path fill-rule="evenodd" clip-rule="evenodd" d="M18.4826 12.14C17.1889 11.8742 15.7837 11.6806 14.2669 11.5592C15.7996 11.4998 17.2048 11.2349 18.4826 10.7647C19.7604 11.2349 21.1656 11.4998 22.6983 11.5592C21.1815 11.6806 19.7763 11.8742 18.4826 12.14ZM17.2183 12.4317C15.6752 12.0992 13.9793 11.8694 12.1304 11.7424C10.6454 11.6508 9.2514 11.3606 7.94825 10.872L7.90279 23.4694C7.90279 26.3096 7.91794 28.1572 7.94825 29.0123C7.97856 29.8674 8.08464 30.753 8.26646 31.6692H15.267C15.7834 31.6692 16.2815 31.6534 16.7612 31.6218C15.9195 31.435 15.1255 31.1912 14.3794 30.8904C12.4095 30.0964 10.8943 28.9665 9.83358 27.5006C8.74259 26.0347 8.19707 24.3245 8.19707 22.37C8.19707 18.8885 9.46991 16.308 12.0156 14.6283C13.4344 13.6922 15.1687 12.96 17.2183 12.4317ZM18.4826 31.428C16.356 31.0787 14.6701 30.3498 13.4248 29.2413C11.5761 27.5922 10.6518 25.4697 10.6518 22.8739C10.6518 20.0337 11.3337 17.8197 12.6974 16.2316C14.0612 14.6436 15.7583 13.5442 17.7887 12.9334C18.016 12.865 18.2473 12.7994 18.4826 12.7363C18.7179 12.7994 18.9491 12.865 19.1764 12.9334C21.2069 13.5442 22.904 14.6436 24.2677 16.2316C25.6315 17.8197 26.3134 20.0337 26.3134 22.8739C26.3134 25.4697 25.3891 27.5922 23.5404 29.2413C22.2951 30.3498 20.6092 31.0787 18.4826 31.428ZM20.2039 31.6218C21.0457 31.435 21.8397 31.1912 22.5858 30.8904C24.5557 30.0964 26.0709 28.9665 27.1316 27.5006C28.2226 26.0347 28.7681 24.3245 28.7681 22.37C28.7681 18.8885 27.4953 16.308 24.9496 14.6283C23.5308 13.6922 21.7965 12.96 19.7469 12.4317C21.2899 12.0992 22.9859 11.8694 24.8348 11.7424C26.3198 11.6508 27.7138 11.3606 29.0169 10.872L29.0624 23.4694C29.0624 26.3096 29.0473 28.1572 29.0169 29.0123C28.9866 29.8674 28.8806 30.753 28.6987 31.6692H21.6982C21.1818 31.6692 20.6837 31.6534 20.2039 31.6218ZM18.4826 31.9163C17.5933 32.0264 16.6579 32.0814 15.6761 32.0814H6.17539C5.62989 32.0814 5.2056 32.0967 4.90255 32.1272C3.9934 32.1883 2.81148 32.2189 1.35682 32.2189C1.2053 32.2189 1.12953 32.1731 1.12953 32.0814C1.12953 31.9593 1.2053 31.8982 1.35682 31.8982C2.75087 31.8982 3.7358 31.7913 4.31159 31.5775C4.88739 31.3332 5.28137 30.7835 5.4935 29.9284C5.70567 29.0733 5.81171 27.5922 5.81171 25.485V9.95586C4.23585 9.13132 2.96301 8.12351 1.99324 6.93249C1.02346 5.74146 0.538574 4.48936 0.538574 3.17618C0.538574 1.1606 1.40228 0.106999 3.12969 0.0153809H14.4942C16.0096 0.0153809 17.3391 0.173142 18.4826 0.488664C19.6261 0.173142 20.9556 0.0153809 22.471 0.0153809H33.8355C35.5629 0.106999 36.4266 1.1606 36.4266 3.17618C36.4266 4.48936 35.9417 5.74146 34.972 6.93249C34.0022 8.12351 32.7293 9.13132 31.1535 9.95586V25.485C31.1535 27.5922 31.2595 29.0733 31.4717 29.9284C31.6838 30.7835 32.0778 31.3332 32.6536 31.5775C33.2294 31.7913 34.2143 31.8982 35.6084 31.8982C35.7599 31.8982 35.8357 31.9593 35.8357 32.0814C35.8357 32.1731 35.7599 32.2189 35.6084 32.2189C34.1537 32.2189 32.9718 32.1883 32.0626 32.1272C31.7596 32.0967 31.3353 32.0814 30.7898 32.0814H21.2891C20.3073 32.0814 19.3718 32.0264 18.4826 31.9163ZM18.4826 1.52908C18.3169 1.6419 18.1613 1.76338 18.016 1.89354C16.925 2.84025 16.3796 4.19924 16.3796 5.9705C16.3796 7.77231 17.0766 9.11604 18.4706 10.0017C18.4746 10.0042 18.4786 10.0067 18.4826 10.0093C18.4866 10.0067 18.4906 10.0042 18.4946 10.0017C19.8886 9.11604 20.5856 7.77231 20.5856 5.9705C20.5856 4.19924 20.0402 2.84025 18.9491 1.89354C18.8039 1.76338 18.6483 1.6419 18.4826 1.52908ZM17.259 0.916916C16.8784 1.08228 16.5247 1.2704 16.1977 1.48126C14.6522 2.45851 13.8793 3.84803 13.8793 5.64984C13.8793 7.36005 14.7582 8.74957 16.5159 9.81842C16.8896 10.0456 17.2769 10.2508 17.678 10.4339C16.3195 11.0314 14.4703 11.3301 12.1304 11.3301C10.6454 11.2385 9.2514 10.9484 7.94825 10.4597V7.16152V5.32917C7.94825 2.97768 8.05434 1.34383 8.26646 0.427658H13.9487C15.2444 0.427658 16.3478 0.590744 17.259 0.916916ZM19.2872 10.4339C19.6883 10.2508 20.0756 10.0456 20.4493 9.81842C22.207 8.74957 23.0858 7.36005 23.0858 5.64984C23.0858 3.84803 22.313 2.45851 20.7675 1.48126C20.4405 1.2704 20.0868 1.08228 19.7062 0.916916C20.6174 0.590744 21.7208 0.427658 23.0165 0.427658H28.6987C28.9109 1.34383 29.0169 2.97768 29.0169 5.32917V7.16152V10.4597C27.7138 10.9484 26.3198 11.2385 24.8348 11.3301C22.4949 11.3301 20.6457 11.0314 19.2872 10.4339ZM2.26599 6.65764C1.38713 5.55824 0.947697 4.39773 0.947697 3.17618C0.947697 1.46599 1.67503 0.534547 3.12969 0.381851C3.82672 0.381851 4.3419 0.488736 4.67526 0.70251C5.03894 0.916284 5.31168 1.46599 5.4935 2.35162C5.70567 3.23726 5.81171 4.65734 5.81171 6.61183V9.49776C4.35706 8.70375 3.17515 7.75703 2.26599 6.65764ZM34.6992 6.65764C35.5781 5.55824 36.0175 4.39773 36.0175 3.17618C36.0175 1.46599 35.2902 0.534547 33.8355 0.381851C33.1385 0.381851 32.6233 0.488736 32.2899 0.70251C31.9263 0.916284 31.6535 1.46599 31.4717 2.35162C31.2595 3.23726 31.1535 4.65734 31.1535 6.61183V9.49776C32.6081 8.70375 33.7901 7.75703 34.6992 6.65764Z" fill="#3B7054"/>
</svg>
