<svg width="178" height="76" viewBox="0 0 178 76" fill="none" xmlns="http://www.w3.org/2000/svg">
<path d="M52.452 33.44C50.252 33.44 48.3013 32.9707 46.6 32.032C44.928 31.0933 43.6227 29.8173 42.684 28.204C41.7747 26.5613 41.32 24.7133 41.32 22.66C41.32 20.4013 41.8333 18.348 42.86 16.5C43.916 14.652 45.3533 13.2 47.172 12.144C48.9907 11.088 50.9853 10.56 53.156 10.56C55.268 10.56 57.16 11.0147 58.832 11.924C60.5333 12.8333 61.8533 14.1093 62.792 15.752C63.76 17.3653 64.244 19.1987 64.244 21.252C64.244 23.54 63.716 25.608 62.66 27.456C61.6333 29.304 60.2107 30.7707 58.392 31.856C56.6027 32.912 54.6227 33.44 52.452 33.44ZM53.992 32.604C55.6347 32.604 57.1307 32.1933 58.48 31.372C59.8293 30.5507 60.8853 29.4507 61.648 28.072C62.44 26.664 62.836 25.1093 62.836 23.408C62.836 21.472 62.3227 19.58 61.296 17.732C60.2693 15.884 58.8907 14.388 57.16 13.244C55.4587 12.0707 53.6107 11.484 51.616 11.484C49.9147 11.484 48.3893 11.8947 47.04 12.716C45.6907 13.5373 44.6347 14.652 43.872 16.06C43.1387 17.4387 42.772 18.964 42.772 20.636C42.772 22.6893 43.2853 24.64 44.312 26.488C45.368 28.336 46.7613 29.8173 48.492 30.932C50.2227 32.0467 52.056 32.604 53.992 32.604ZM85.9824 22.836C86.0411 22.6893 86.1291 22.6453 86.2464 22.704C86.3637 22.7627 86.3931 22.8653 86.3344 23.012C85.1611 26.5613 83.8117 29.1867 82.2864 30.888C80.7611 32.56 78.7517 33.396 76.2584 33.396C73.9117 33.396 72.1957 32.692 71.1104 31.284C70.0544 29.876 69.5264 28.0133 69.5264 25.696V11.396H66.2264C66.1091 11.396 66.0357 11.3373 66.0064 11.22C66.0064 11.1027 66.0797 11.0293 66.2264 11C67.7224 10.4133 68.8664 9.592 69.6584 8.536C70.4504 7.45066 70.9491 5.92533 71.1544 3.96C71.1837 3.872 71.2277 3.84266 71.2864 3.872C71.3744 3.872 71.4184 3.90133 71.4184 3.96V11H82.5944C82.7411 11 82.8144 11.0733 82.8144 11.22C82.8144 11.3373 82.7411 11.396 82.5944 11.396H71.3744V24.904C71.3744 27.28 71.7117 29.2307 72.3864 30.756C73.0904 32.252 74.3957 33 76.3024 33C78.7957 33 80.7464 32.1493 82.1544 30.448C83.5917 28.7173 84.8677 26.18 85.9824 22.836ZM112.847 31.284C112.906 31.1667 112.994 31.1373 113.111 31.196C113.258 31.2253 113.302 31.2987 113.243 31.416C112.862 32.0907 112.451 32.604 112.011 32.956C111.6 33.2787 111.014 33.44 110.251 33.44C109.224 33.44 108.462 33.132 107.963 32.516C107.494 31.8707 107.186 31.108 107.039 30.228L105.543 21.384C105.367 23.32 104.751 25.2267 103.695 27.104C102.668 28.952 101.378 30.4627 99.8232 31.636C98.2685 32.8093 96.6698 33.396 95.0272 33.396C93.2378 33.396 91.7418 32.9267 90.5392 31.988C89.3658 31.02 88.7792 29.7587 88.7792 28.204C88.7792 26.8547 89.3218 25.5347 90.4072 24.244C91.4925 22.9533 93.2525 21.868 95.6872 20.988C98.1512 20.108 101.334 19.668 105.235 19.668L104.795 17.424C104.355 15.1947 103.578 13.5667 102.463 12.54C101.378 11.5133 100.175 11 98.8552 11C96.4498 11 94.4258 11.616 92.7832 12.848C91.1698 14.0507 89.8938 15.488 88.9552 17.16C88.0458 18.8027 87.1658 20.7533 86.3152 23.012C86.2858 23.1293 86.2125 23.188 86.0952 23.188C86.0072 23.188 85.9485 23.1587 85.9192 23.1C85.8898 23.012 85.9045 22.924 85.9632 22.836C86.8725 20.4307 87.8112 18.3773 88.7792 16.676C89.7472 14.9747 91.0818 13.5373 92.7832 12.364C94.4845 11.1613 96.6112 10.56 99.1632 10.56C101.07 10.56 102.668 11.0147 103.959 11.924C105.279 12.804 106.174 14.564 106.643 17.204L108.931 30.404C109.078 31.3133 109.283 31.9733 109.547 32.384C109.811 32.7947 110.163 33 110.603 33C111.454 33 112.202 32.428 112.847 31.284ZM96.2592 32.296C97.6965 32.296 99.1192 31.6947 100.527 30.492C101.935 29.2893 103.079 27.7347 103.959 25.828C104.868 23.9213 105.323 22 105.323 20.064C101.686 19.976 98.7965 20.3133 96.6552 21.076C94.5432 21.8093 93.0618 22.748 92.2112 23.892C91.3605 25.036 90.9352 26.2533 90.9352 27.544C90.9352 28.3947 91.1845 29.1867 91.6832 29.92C92.2112 30.6533 92.8858 31.24 93.7072 31.68C94.5285 32.0907 95.3792 32.296 96.2592 32.296ZM142.455 32.824C142.602 32.824 142.675 32.8827 142.675 33C142.675 33.088 142.602 33.132 142.455 33.132C141.282 33.132 140.343 33.1027 139.639 33.044C139.405 33.0147 139.067 33 138.627 33H137.175C136.735 33 136.398 33.0147 136.163 33.044C135.459 33.1027 134.521 33.132 133.347 33.132C133.23 33.132 133.171 33.088 133.171 33C133.171 32.8827 133.23 32.824 133.347 32.824C134.579 32.824 135.43 32.6627 135.899 32.34C136.398 32.0173 136.647 31.4453 136.647 30.624C136.647 30.36 136.559 29.6413 136.383 28.468L134.799 19.536C134.271 16.5733 133.597 14.5493 132.775 13.464C131.983 12.3493 130.942 11.792 129.651 11.792C128.126 11.792 126.615 12.496 125.119 13.904C123.623 15.312 122.303 17.38 121.159 20.108C120.015 22.8067 119.253 26.0187 118.871 29.744C118.901 30.5653 119.003 31.196 119.179 31.636C119.385 32.0467 119.737 32.3547 120.235 32.56C120.734 32.736 121.467 32.824 122.435 32.824C122.582 32.824 122.655 32.8827 122.655 33C122.655 33.088 122.582 33.132 122.435 33.132C121.262 33.132 120.323 33.1027 119.619 33.044C119.385 33.0147 119.047 33 118.607 33H117.199C116.759 33 116.422 33.0147 116.187 33.044C115.483 33.1027 114.545 33.132 113.371 33.132C113.254 33.132 113.195 33.088 113.195 33C113.195 32.8827 113.254 32.824 113.371 32.824C114.486 32.824 115.293 32.692 115.791 32.428C116.29 32.164 116.613 31.7533 116.759 31.196C116.906 30.6093 116.979 29.6853 116.979 28.424V17.908C116.979 16.148 116.789 14.8573 116.407 14.036C116.026 13.2147 115.234 12.804 114.031 12.804C113.973 12.7747 113.943 12.7307 113.943 12.672C113.943 12.6133 113.973 12.5693 114.031 12.54C114.853 12.3933 115.557 12.188 116.143 11.924C116.73 11.66 117.243 11.4107 117.683 11.176C118.123 10.912 118.417 10.736 118.563 10.648C118.593 10.6187 118.637 10.604 118.695 10.604C118.754 10.5747 118.798 10.5893 118.827 10.648V19.008L118.167 30.36H118.387C118.857 25.9013 119.766 22.1907 121.115 19.228C122.494 16.236 124.049 14.0507 125.779 12.672C127.51 11.264 129.182 10.56 130.795 10.56C132.027 10.56 133.01 10.912 133.743 11.616C134.477 12.2907 135.063 13.3027 135.503 14.652C135.943 15.972 136.369 17.82 136.779 20.196L138.275 28.468C138.51 29.7587 138.73 30.6827 138.935 31.24C139.141 31.7973 139.493 32.208 139.991 32.472C140.519 32.7067 141.341 32.824 142.455 32.824ZM152.257 32.78C152.403 32.78 152.477 32.8387 152.477 32.956C152.477 33.044 152.403 33.088 152.257 33.088C151.054 33.1173 150.086 33.1027 149.353 33.044C149.147 33.0147 148.839 33 148.429 33H146.977C146.537 33 146.199 33.0147 145.965 33.044C145.261 33.1027 144.322 33.132 143.149 33.132C143.031 33.132 142.973 33.088 142.973 33C142.973 32.8827 143.031 32.824 143.149 32.824C144.263 32.824 145.07 32.692 145.569 32.428C146.067 32.164 146.39 31.7533 146.537 31.196C146.683 30.6093 146.757 29.6853 146.757 28.424V19.668C146.757 16.2947 147.798 13.684 149.881 11.836L150.101 11.66C148.487 12.452 147.197 13.2733 146.229 14.124C145.29 14.9747 144.366 15.9427 143.457 17.028C143.427 17.116 143.354 17.16 143.237 17.16C143.149 17.16 143.09 17.116 143.061 17.028C143.031 16.94 143.061 16.852 143.149 16.764C144.234 15.4733 145.407 14.344 146.669 13.376C147.93 12.3787 149.499 11.4987 151.377 10.736C151.406 10.7067 151.465 10.692 151.553 10.692C151.641 10.692 151.699 10.736 151.729 10.824C151.758 10.912 151.729 10.9853 151.641 11.044C149.587 12.804 148.561 15.796 148.561 20.02L148.605 28.424C148.634 29.6853 148.707 30.6093 148.825 31.196C148.971 31.7533 149.294 32.164 149.793 32.428C150.321 32.6627 151.142 32.78 152.257 32.78ZM148.297 6.424C147.857 6.424 147.475 6.27733 147.153 5.984C146.859 5.66133 146.713 5.28 146.713 4.84C146.713 4.4 146.859 4.03333 147.153 3.74C147.475 3.41733 147.857 3.256 148.297 3.256C148.737 3.256 149.103 3.40266 149.397 3.696C149.719 3.98933 149.881 4.37067 149.881 4.84C149.881 5.28 149.734 5.66133 149.441 5.984C149.147 6.27733 148.766 6.424 148.297 6.424ZM177.07 22.968C177.099 22.7627 177.187 22.66 177.334 22.66C177.392 22.66 177.436 22.6893 177.466 22.748C177.495 22.8067 177.495 22.8947 177.466 23.012C176.146 26.7373 174.562 29.4067 172.714 31.02C170.866 32.6333 168.519 33.44 165.674 33.44C163.796 33.44 162.007 32.9853 160.306 32.076C158.604 31.1373 157.226 29.832 156.17 28.16C155.114 26.4587 154.586 24.5227 154.586 22.352C154.586 20.0933 155.114 18.0693 156.17 16.28C157.226 14.4907 158.634 13.0973 160.394 12.1C162.154 11.1027 164.031 10.604 166.026 10.604C168.02 10.604 169.648 10.868 170.91 11.396C172.171 11.924 173.403 12.8333 174.606 14.124C173.579 15.2387 172.728 16.3533 172.054 17.468C171.408 18.5533 170.983 19.3453 170.778 19.844C170.602 20.3133 170.323 21.076 169.942 22.132C169.883 22.308 169.78 22.3667 169.634 22.308C169.516 22.2493 169.487 22.1613 169.546 22.044C169.604 21.868 169.751 21.4573 169.986 20.812C170.22 20.1667 170.499 19.5213 170.822 18.876C171.144 18.2013 171.511 17.556 171.922 16.94C171.834 14.916 171.218 13.42 170.074 12.452C168.959 11.484 167.668 11 166.202 11C164.412 11 162.814 11.4107 161.406 12.232C159.998 13.0533 158.898 14.2413 158.106 15.796C157.314 17.3507 156.918 19.1693 156.918 21.252C156.918 23.4227 157.328 25.3587 158.15 27.06C159 28.7613 160.159 30.0813 161.626 31.02C163.122 31.9587 164.794 32.428 166.642 32.428C168.812 32.428 170.792 31.7387 172.582 30.36C174.4 28.9813 175.896 26.5173 177.07 22.968Z" fill="#3B7054"/>
<path d="M22.952 27.952C30.6027 28.56 36.556 30.2573 40.812 33.044C45.068 35.8307 47.196 40.112 47.196 45.888C47.196 49.1307 46.284 51.968 44.46 54.4C42.6867 56.832 40.1533 58.7067 36.86 60.024C33.5667 61.3413 29.716 62 25.308 62H9.424C8.512 62 7.80267 62.0253 7.296 62.076C5.776 62.1773 3.8 62.228 1.368 62.228C1.11467 62.228 0.988 62.152 0.988 62C0.988 61.7973 1.11467 61.696 1.368 61.696C3.69867 61.696 5.34533 61.5187 6.308 61.164C7.27067 60.7587 7.92933 59.8467 8.284 58.428C8.63867 57.0093 8.816 54.552 8.816 51.056V25.292C6.18133 23.924 4.05333 22.252 2.432 20.276C0.810667 18.3 0 16.2227 0 14.044C0 10.7 1.444 8.952 4.332 8.8H23.332C27.7907 8.8 31.2867 9.61066 33.82 11.232C36.404 12.8533 37.696 15.1587 37.696 18.148C37.696 20.9853 36.2267 23.2907 33.288 25.064C30.3493 26.8373 26.904 27.8 22.952 27.952ZM0.684 14.044C0.684 16.0707 1.41867 17.996 2.888 19.82C4.408 21.644 6.384 23.2147 8.816 24.532V19.744C8.816 16.5013 8.63867 14.1453 8.284 12.676C7.98 11.2067 7.524 10.2947 6.916 9.94C6.35867 9.58533 5.49733 9.408 4.332 9.408C1.9 9.66133 0.684 11.2067 0.684 14.044ZM12.92 9.484C12.5653 11.004 12.388 13.7147 12.388 17.616V20.656V26.128C14.5667 26.9387 16.8973 27.42 19.38 27.572C24.1427 27.572 27.6893 26.8373 30.02 25.368C32.3507 23.8987 33.516 21.6693 33.516 18.68C33.516 15.7413 32.604 13.4867 30.78 11.916C28.956 10.2947 26.1693 9.484 22.42 9.484H12.92ZM24.624 61.316C30.8053 61.316 35.416 59.9733 38.456 57.288C41.5467 54.552 43.092 51.0307 43.092 46.724C43.092 42.012 41.952 38.3387 39.672 35.704C37.392 33.0693 34.5547 31.2453 31.16 30.232C27.7653 29.2187 23.8387 28.56 19.38 28.256C16.8973 28.104 14.5667 27.6227 12.388 26.812L12.312 47.712C12.312 52.424 12.3373 55.4893 12.388 56.908C12.4387 58.3267 12.616 59.796 12.92 61.316H24.624Z" fill="#3B7054"/>
<path d="M53.74 62C53.3773 62 53.1053 62.0113 52.924 62.034C52.38 62.0793 51.6887 62.102 50.85 62.102C50.7593 62.102 50.714 62.068 50.714 62C50.714 61.9093 50.7593 61.864 50.85 61.864C51.7113 61.864 52.3233 61.762 52.686 61.558C53.0713 61.3313 53.3093 60.9913 53.4 60.538C53.5133 60.0847 53.57 59.3593 53.57 58.362V41.124C53.57 40.2853 53.434 39.662 53.162 39.254C52.89 38.8233 52.3913 38.608 51.666 38.608C51.53 38.608 51.2807 38.6307 50.918 38.676C50.85 38.6987 50.816 38.6873 50.816 38.642C50.816 38.574 50.85 38.5287 50.918 38.506C51.5753 38.2793 52.3573 37.962 53.264 37.554C54.1933 37.146 54.9073 36.7947 55.406 36.5C55.4513 36.4547 55.4967 36.4547 55.542 36.5C55.5873 36.5227 55.61 36.568 55.61 36.636V58.362C55.61 59.3593 55.6553 60.0847 55.746 60.538C55.8593 60.9913 56.0973 61.3313 56.46 61.558C56.8453 61.762 57.4687 61.864 58.33 61.864C58.4433 61.864 58.5 61.9093 58.5 62C58.5 62.068 58.4433 62.102 58.33 62.102C57.4913 62.102 56.7773 62.0793 56.188 62.034C56.0293 62.0113 55.78 62 55.44 62H53.74ZM78.2025 54.044C78.2478 53.9307 78.3158 53.8967 78.4065 53.942C78.4971 53.9873 78.5198 54.0667 78.4745 54.18C76.5705 59.62 73.4198 62.34 69.0225 62.34C67.3225 62.34 65.8038 61.966 64.4665 61.218C63.1291 60.4473 62.0865 59.4047 61.3385 58.09C60.6131 56.7527 60.2505 55.2793 60.2505 53.67C60.2505 52.0153 60.6811 50.4967 61.5425 49.114C62.4038 47.7087 63.5485 46.6093 64.9765 45.816C66.4045 45 67.9345 44.592 69.5665 44.592C70.7905 44.592 71.9125 44.8527 72.9325 45.374C73.9525 45.8727 74.7571 46.564 75.3465 47.448C75.9585 48.332 76.2645 49.284 76.2645 50.304C76.2645 50.5987 76.2191 50.9613 76.1285 51.392H62.3925C62.3698 51.5733 62.3585 51.8567 62.3585 52.242C62.3585 53.7833 62.6531 55.2453 63.2425 56.628C63.8318 57.988 64.6818 59.0987 65.7925 59.96C66.9258 60.7987 68.2518 61.218 69.7705 61.218C73.7145 61.218 76.5251 58.8267 78.2025 54.044ZM69.2265 44.898C68.3198 44.898 67.3678 45.136 66.3705 45.612C65.3958 46.0653 64.5345 46.768 63.7865 47.72C63.0611 48.6493 62.6078 49.7713 62.4265 51.086H72.3545C72.8758 51.086 73.2498 50.9613 73.4765 50.712C73.7031 50.44 73.8165 50.0547 73.8165 49.556C73.8165 48.196 73.4425 47.0853 72.6945 46.224C71.9465 45.34 70.7905 44.898 69.2265 44.898ZM101.515 61.864C101.628 61.864 101.685 61.9093 101.685 62C101.685 62.068 101.628 62.102 101.515 62.102C100.676 62.102 99.9624 62.0793 99.373 62.034C99.2144 62.0113 98.965 62 98.625 62H96.891C96.5284 62 96.2564 62.0113 96.075 62.034C95.531 62.0793 94.8397 62.102 94.001 62.102C93.9104 62.102 93.865 62.068 93.865 62C93.865 61.9093 93.9104 61.864 94.001 61.864C94.953 61.8413 95.599 61.7053 95.939 61.456C96.3017 61.2067 96.483 60.7647 96.483 60.13C96.483 59.926 96.415 59.348 96.279 58.396L95.157 51.63C94.7717 49.2953 94.2844 47.6973 93.695 46.836C93.1057 45.9747 92.3237 45.544 91.349 45.544C90.2384 45.544 89.1504 46.1107 88.085 47.244C87.0424 48.3773 86.1357 50.0093 85.365 52.14C84.5944 54.248 84.0617 56.696 83.767 59.484C83.7897 60.096 83.869 60.572 84.005 60.912C84.1637 61.2293 84.4244 61.4673 84.787 61.626C85.1724 61.7847 85.7277 61.864 86.453 61.864C86.5664 61.864 86.623 61.9093 86.623 62C86.623 62.068 86.5664 62.102 86.453 62.102C85.6144 62.102 84.9004 62.0793 84.311 62.034C84.1524 62.0113 83.903 62 83.563 62H81.863C81.5004 62 81.2284 62.0113 81.047 62.034C80.503 62.0793 79.8117 62.102 78.973 62.102C78.8824 62.102 78.837 62.068 78.837 62C78.837 61.9093 78.8824 61.864 78.973 61.864C79.8344 61.864 80.4464 61.762 80.809 61.558C81.1944 61.3313 81.4324 60.9913 81.523 60.538C81.6364 60.0847 81.693 59.3593 81.693 58.362V50.338C81.693 49.0007 81.5344 48.0033 81.217 47.346C80.8997 46.666 80.299 46.326 79.415 46.326C79.3697 46.3033 79.347 46.2693 79.347 46.224C79.347 46.156 79.3697 46.1107 79.415 46.088C80.9564 45.7933 82.3277 45.306 83.529 44.626C83.5517 44.6033 83.5857 44.592 83.631 44.592C83.6764 44.5693 83.7104 44.5807 83.733 44.626V50.78L83.189 59.96H83.359C83.7444 56.4693 84.4017 53.5793 85.331 51.29C86.283 49.0007 87.3597 47.3233 88.561 46.258C89.785 45.1927 91.0204 44.66 92.267 44.66C93.3324 44.66 94.1824 44.932 94.817 45.476C95.4517 45.9973 95.9504 46.7907 96.313 47.856C96.6757 48.8987 97.0044 50.3267 97.299 52.14L98.353 58.396C98.5344 59.4387 98.693 60.1753 98.829 60.606C98.9877 61.014 99.2597 61.3313 99.645 61.558C100.03 61.762 100.654 61.864 101.515 61.864ZM107.567 62.34C105.867 62.34 104.484 61.728 103.419 60.504C102.353 59.28 101.821 57.3647 101.821 54.758C101.821 52.7633 102.24 50.9953 103.079 49.454C103.94 47.9127 105.085 46.7227 106.513 45.884C107.941 45.0227 109.493 44.592 111.171 44.592C112.349 44.592 113.369 44.7393 114.231 45.034C115.115 45.306 115.987 45.7027 116.849 46.224V41.056C116.849 40.2173 116.713 39.5827 116.441 39.152C116.169 38.7213 115.67 38.506 114.945 38.506C114.831 38.506 114.593 38.5287 114.231 38.574C114.163 38.5967 114.117 38.5853 114.095 38.54C114.095 38.472 114.129 38.4267 114.197 38.404C114.831 38.2 115.602 37.894 116.509 37.486C117.438 37.078 118.163 36.7267 118.685 36.432C118.73 36.3867 118.775 36.3753 118.821 36.398C118.866 36.4207 118.889 36.466 118.889 36.534V59.212C118.889 60.028 118.957 60.6967 119.093 61.218C119.229 61.7393 119.535 62 120.011 62C120.396 62 120.747 61.8867 121.065 61.66C121.405 61.4107 121.665 61.0707 121.847 60.64C121.915 60.5493 121.983 60.5267 122.051 60.572C122.141 60.6173 122.164 60.6853 122.119 60.776C121.597 61.8187 120.804 62.34 119.739 62.34C118.809 62.34 118.095 62.034 117.597 61.422C117.098 60.7873 116.849 59.96 116.849 58.94V53.704L117.359 46.938H117.121C116.713 49.9073 116.033 52.5593 115.081 54.894C114.129 57.2287 112.995 59.0533 111.681 60.368C110.366 61.6827 108.995 62.34 107.567 62.34ZM108.247 61.388C109.561 61.388 110.808 60.7307 111.987 59.416C113.188 58.1013 114.208 56.3447 115.047 54.146C115.885 51.9247 116.475 49.5107 116.815 46.904V46.598C115.772 46.0087 114.865 45.578 114.095 45.306C113.324 45.034 112.293 44.898 111.001 44.898C109.777 44.898 108.643 45.2947 107.601 46.088C106.558 46.8587 105.731 47.9467 105.119 49.352C104.507 50.7347 104.201 52.2987 104.201 54.044C104.201 55.404 104.371 56.6507 104.711 57.784C105.051 58.8947 105.527 59.7787 106.139 60.436C106.751 61.0707 107.453 61.388 108.247 61.388Z" fill="#3B7054"/>
</svg>
