<svg width="117" height="134" viewBox="0 0 117 134" fill="none" xmlns="http://www.w3.org/2000/svg">
<path d="M115.086 132.905H115.94V132.051V59.0933C115.94 27.374 90.2261 1.66035 58.5067 1.66035C26.7874 1.66035 1.07374 27.374 1.07374 59.0933V132.051V132.905H1.92749H115.086Z" fill="#F5EFED" stroke="#3B7054" stroke-width="1.7075"/>
<path d="M99.3181 121.875H99.5745V121.619V57.2354C99.5745 34.5543 81.1879 16.1677 58.5068 16.1677C35.8258 16.1677 17.4391 34.5543 17.4391 57.2354V121.619V121.875H17.6956H99.3181Z" fill="#F5EFED" stroke="#3B7054" stroke-width="0.512816"/>
<path d="M96.5355 119.267H96.7919V119.011V57.0609C96.7919 35.9167 79.6511 18.7758 58.5068 18.7758C37.3626 18.7758 20.2217 35.9167 20.2217 57.061V119.011V119.267H20.4781H96.5355Z" fill="#F5EFED" stroke="#3B7054" stroke-width="0.512816"/>
<path d="M51.9695 58.3574C59.0658 58.9214 64.5877 60.4957 68.5352 63.0804C72.4828 65.6651 74.4566 69.6362 74.4566 74.9936C74.4566 78.0012 73.6107 80.633 71.9188 82.8887C70.274 85.1445 67.9243 86.8833 64.8696 88.1051C61.815 89.327 58.2434 89.9379 54.1548 89.9379H39.4219C38.576 89.9379 37.9181 89.9614 37.4482 90.0084C36.0383 90.1024 34.2055 90.1494 31.9498 90.1494C31.7148 90.1494 31.5973 90.0789 31.5973 89.9379C31.5973 89.7499 31.7148 89.656 31.9498 89.656C34.1115 89.656 35.6389 89.4915 36.5318 89.1625C37.4247 88.7866 38.0356 87.9406 38.3646 86.6248C38.6935 85.3089 38.858 83.0297 38.858 79.7871V55.8902C36.4143 54.6213 34.4405 53.0705 32.9367 51.2377C31.4328 49.4049 30.6809 47.4781 30.6809 45.4574C30.6809 42.3557 32.0203 40.7344 34.699 40.5934H52.322C56.4576 40.5934 59.7002 41.3453 62.0499 42.8491C64.4467 44.353 65.645 46.4912 65.645 49.2639C65.645 51.8956 64.2822 54.0339 61.5565 55.6787C58.8308 57.3235 55.6351 58.2164 51.9695 58.3574ZM31.3153 45.4574C31.3153 47.3371 31.9968 49.1229 33.3596 50.8148C34.7695 52.5066 36.6023 53.9634 38.858 55.1853V50.7443C38.858 47.7366 38.6935 45.5513 38.3646 44.1885C38.0826 42.8256 37.6596 41.9797 37.0957 41.6508C36.5788 41.3218 35.7798 41.1573 34.699 41.1573C32.4432 41.3923 31.3153 42.8256 31.3153 45.4574ZM42.6646 41.2278C42.3356 42.6377 42.1711 45.1519 42.1711 48.7705V51.5902V56.6656C44.1919 57.4175 46.3537 57.864 48.6564 58.005C53.0739 58.005 56.3636 57.3235 58.5253 55.9607C60.6871 54.5978 61.768 52.5301 61.768 49.7574C61.768 47.0317 60.9221 44.9404 59.2302 43.4836C57.5384 41.9797 54.9537 41.2278 51.4761 41.2278H42.6646ZM53.5204 89.3035C59.2537 89.3035 63.5303 88.0581 66.35 85.5674C69.2166 83.0297 70.65 79.7636 70.65 75.769C70.65 71.3985 69.5926 67.9914 67.4778 65.5476C65.3631 63.1039 62.7314 61.4121 59.5827 60.4722C56.4341 59.5323 52.792 58.9214 48.6564 58.6394C46.3537 58.4984 44.1919 58.052 42.1711 57.3L42.1006 76.6854C42.1006 81.0559 42.1241 83.8991 42.1711 85.215C42.2181 86.5308 42.3826 87.8937 42.6646 89.3035H53.5204Z" fill="#3B7054"/>
<path d="M65.044 58.3574C57.9478 58.9214 52.4259 60.4957 48.4783 63.0804C44.5308 65.6651 42.557 69.6362 42.557 74.9936C42.557 78.0012 43.4029 80.633 45.0947 82.8887C46.7395 85.1445 49.0893 86.8833 52.1439 88.1051C55.1986 89.327 58.7702 89.9379 62.8587 89.9379H77.5916C78.4375 89.9379 79.0954 89.9614 79.5654 90.0084C80.9752 90.1024 82.808 90.1494 85.0638 90.1494C85.2988 90.1494 85.4162 90.0789 85.4162 89.9379C85.4162 89.7499 85.2988 89.656 85.0638 89.656C82.902 89.656 81.3747 89.4915 80.4818 89.1625C79.5889 88.7866 78.978 87.9406 78.649 86.6248C78.32 85.3089 78.1555 83.0297 78.1555 79.7871V55.8902C80.5993 54.6213 82.5731 53.0705 84.0769 51.2377C85.5807 49.4049 86.3326 47.4781 86.3326 45.4574C86.3326 42.3557 84.9933 40.7344 82.3146 40.5934H64.6915C60.556 40.5934 57.3134 41.3453 54.9636 42.8491C52.5669 44.353 51.3685 46.4912 51.3685 49.2639C51.3685 51.8956 52.7314 54.0339 55.4571 55.6787C58.1828 57.3235 61.3784 58.2164 65.044 58.3574ZM85.6982 45.4574C85.6982 47.3371 85.0168 49.1229 83.6539 50.8148C82.2441 52.5066 80.4113 53.9634 78.1555 55.1853V50.7443C78.1555 47.7366 78.32 45.5513 78.649 44.1885C78.931 42.8256 79.3539 41.9797 79.9179 41.6508C80.4348 41.3218 81.2337 41.1573 82.3146 41.1573C84.5703 41.3923 85.6982 42.8256 85.6982 45.4574ZM74.349 41.2278C74.6779 42.6377 74.8424 45.1519 74.8424 48.7705V51.5902V56.6656C72.8216 57.4175 70.6599 57.864 68.3571 58.005C63.9396 58.005 60.65 57.3235 58.4882 55.9607C56.3265 54.5978 55.2456 52.5301 55.2456 49.7574C55.2456 47.0317 56.0915 44.9404 57.7833 43.4836C59.4751 41.9797 62.0598 41.2278 65.5374 41.2278H74.349ZM63.4932 89.3035C57.7598 89.3035 53.4833 88.0581 50.6636 85.5674C47.7969 83.0297 46.3636 79.7636 46.3636 75.769C46.3636 71.3985 47.421 67.9914 49.5357 65.5476C51.6505 63.1039 54.2822 61.4121 57.4308 60.4722C60.5795 59.5323 64.2216 58.9214 68.3571 58.6394C70.6599 58.4984 72.8216 58.052 74.8424 57.3L74.9129 76.6854C74.9129 81.0559 74.8894 83.8991 74.8424 85.215C74.7954 86.5308 74.6309 87.8937 74.349 89.3035H63.4932Z" fill="#3B7054"/>
<path d="M43.7439 100.121C44.6777 100.195 45.4042 100.402 45.9236 100.742C46.4431 101.082 46.7028 101.605 46.7028 102.31C46.7028 102.706 46.5915 103.052 46.3688 103.349C46.1524 103.645 45.8432 103.874 45.4413 104.035C45.0394 104.196 44.5694 104.276 44.0315 104.276H42.0929C41.9816 104.276 41.8951 104.279 41.8332 104.285C41.6477 104.298 41.4066 104.304 41.1098 104.304C41.0788 104.304 41.0634 104.295 41.0634 104.276C41.0634 104.251 41.0788 104.239 41.1098 104.239C41.3942 104.239 41.5952 104.217 41.7127 104.174C41.8301 104.125 41.9105 104.013 41.9538 103.84C41.9971 103.667 42.0187 103.367 42.0187 102.94V99.7962C41.6972 99.6292 41.4375 99.4252 41.2396 99.184C41.0417 98.9428 40.9428 98.6893 40.9428 98.4234C40.9428 98.0153 41.119 97.802 41.4715 97.7834H43.7903C44.3345 97.7834 44.7611 97.8824 45.0703 98.0802C45.3857 98.2781 45.5433 98.5595 45.5433 98.9243C45.5433 99.2706 45.364 99.5519 45.0054 99.7683C44.6467 99.9848 44.2263 100.102 43.7439 100.121ZM41.0263 98.4234C41.0263 98.6708 41.1159 98.9057 41.2953 99.1284C41.4808 99.351 41.7219 99.5426 42.0187 99.7034V99.1191C42.0187 98.7233 41.9971 98.4358 41.9538 98.2565C41.9167 98.0772 41.8611 97.9659 41.7869 97.9226C41.7188 97.8793 41.6137 97.8576 41.4715 97.8576C41.1747 97.8886 41.0263 98.0772 41.0263 98.4234ZM42.5196 97.8669C42.4763 98.0524 42.4547 98.3832 42.4547 98.8594V99.2304V99.8982C42.7206 99.9971 43.005 100.056 43.308 100.074C43.8893 100.074 44.3221 99.9848 44.6065 99.8054C44.891 99.6261 45.0332 99.3541 45.0332 98.9892C45.0332 98.6306 44.9219 98.3554 44.6993 98.1637C44.4767 97.9659 44.1366 97.8669 43.679 97.8669H42.5196ZM43.948 104.193C44.7024 104.193 45.2651 104.029 45.6361 103.701C46.0133 103.367 46.2019 102.937 46.2019 102.412C46.2019 101.837 46.0628 101.388 45.7845 101.067C45.5062 100.745 45.16 100.523 44.7457 100.399C44.3314 100.275 43.8522 100.195 43.308 100.158C43.005 100.139 42.7206 100.081 42.4547 99.9817L42.4454 102.532C42.4454 103.107 42.4485 103.482 42.4547 103.655C42.4609 103.828 42.4825 104.007 42.5196 104.193H43.948ZM49.6093 104.369C49.1456 104.369 48.7344 104.27 48.3757 104.072C48.0233 103.874 47.7481 103.605 47.5502 103.265C47.3585 102.919 47.2627 102.529 47.2627 102.096C47.2627 101.62 47.3709 101.187 47.5873 100.798C47.8099 100.408 48.1129 100.102 48.4963 99.8797C48.8797 99.657 49.3002 99.5457 49.7577 99.5457C50.2029 99.5457 50.6018 99.6416 50.9542 99.8333C51.3129 100.025 51.5912 100.294 51.789 100.64C51.9931 100.98 52.0951 101.367 52.0951 101.8C52.0951 102.282 51.9838 102.718 51.7612 103.107C51.5448 103.497 51.2449 103.806 50.8615 104.035C50.4843 104.258 50.0669 104.369 49.6093 104.369ZM49.934 104.193C50.2802 104.193 50.5956 104.106 50.88 103.933C51.1645 103.76 51.3871 103.528 51.5479 103.237C51.7148 102.94 51.7983 102.613 51.7983 102.254C51.7983 101.846 51.6901 101.447 51.4737 101.058C51.2572 100.668 50.9666 100.353 50.6018 100.112C50.2431 99.8642 49.8536 99.7405 49.4331 99.7405C49.0745 99.7405 48.7529 99.8271 48.4685 100C48.184 100.173 47.9614 100.408 47.8006 100.705C47.6461 100.996 47.5688 101.317 47.5688 101.67C47.5688 102.103 47.677 102.514 47.8934 102.903C48.116 103.293 48.4097 103.605 48.7746 103.84C49.1394 104.075 49.5259 104.193 49.934 104.193ZM56.4921 102.134C56.5045 102.103 56.523 102.093 56.5478 102.106C56.5725 102.118 56.5787 102.14 56.5663 102.171C56.319 102.919 56.0345 103.472 55.713 103.831C55.3914 104.183 54.9679 104.36 54.4423 104.36C53.9476 104.36 53.5858 104.211 53.3571 103.914C53.1344 103.618 53.0231 103.225 53.0231 102.736V99.722H52.3275C52.3028 99.722 52.2904 99.7096 52.2904 99.6849C52.2842 99.6601 52.2966 99.6447 52.3275 99.6385C52.6429 99.5148 52.884 99.3417 53.051 99.1191C53.2179 98.8903 53.323 98.5687 53.3663 98.1544C53.3725 98.1359 53.3818 98.1297 53.3942 98.1359C53.4127 98.1359 53.422 98.1421 53.422 98.1544V99.6385H55.7779C55.8088 99.6385 55.8243 99.654 55.8243 99.6849C55.8243 99.7096 55.8088 99.722 55.7779 99.722H53.4127V102.569C53.4127 103.07 53.4838 103.482 53.626 103.803C53.7744 104.118 54.0496 104.276 54.4515 104.276C54.9771 104.276 55.3883 104.097 55.6852 103.738C55.9881 103.373 56.2571 102.838 56.4921 102.134ZM62.1596 103.914C62.172 103.89 62.1905 103.883 62.2152 103.896C62.2462 103.902 62.2554 103.917 62.2431 103.942C62.1627 104.084 62.0761 104.193 61.9834 104.267C61.8968 104.335 61.7731 104.369 61.6123 104.369C61.3959 104.369 61.2352 104.304 61.13 104.174C61.0311 104.038 60.9662 103.877 60.9353 103.692L60.6199 101.92C60.5766 102.322 60.4468 102.712 60.2303 103.089C60.0139 103.46 59.7326 103.766 59.3863 104.007C59.0462 104.242 58.6721 104.36 58.264 104.36C57.9239 104.36 57.6425 104.273 57.4199 104.1C57.1973 103.921 57.086 103.683 57.086 103.386C57.086 103.151 57.1571 102.965 57.2993 102.829C57.4477 102.687 57.6271 102.582 57.8373 102.514C58.0537 102.446 58.3474 102.372 58.7185 102.291C59.1204 102.211 59.4357 102.13 59.6645 102.05C59.8995 101.97 60.0943 101.846 60.2489 101.679C60.4035 101.506 60.4715 101.274 60.4529 100.983H60.4622C60.3695 100.52 60.2056 100.18 59.9706 99.9631C59.7418 99.7467 59.4883 99.6385 59.21 99.6385C58.703 99.6385 58.2763 99.7683 57.9301 100.028C57.59 100.282 57.321 100.585 57.1231 100.937C56.9314 101.283 56.7459 101.695 56.5666 102.171C56.5604 102.195 56.545 102.208 56.5202 102.208C56.5017 102.208 56.4893 102.202 56.4831 102.189C56.4769 102.171 56.48 102.152 56.4924 102.134C56.6841 101.626 56.882 101.194 57.086 100.835C57.2901 100.476 57.5714 100.173 57.9301 99.926C58.2887 99.6725 58.737 99.5457 59.275 99.5457C59.6769 99.5457 60.0139 99.6416 60.286 99.8333C60.5642 100.019 60.7528 100.39 60.8518 100.946L61.3341 103.729C61.365 103.921 61.4083 104.06 61.4639 104.146C61.5196 104.233 61.5938 104.276 61.6866 104.276C61.8659 104.276 62.0236 104.156 62.1596 103.914ZM58.6628 104.128C58.9905 104.128 59.2997 104.001 59.5903 103.747C59.8871 103.494 60.1221 103.169 60.2953 102.774C60.4746 102.378 60.5642 101.979 60.5642 101.577L60.5086 101.243C60.49 101.466 60.4066 101.645 60.2582 101.781C60.1159 101.917 59.9459 102.022 59.748 102.096C59.5501 102.164 59.2873 102.239 58.9596 102.319C58.6443 102.393 58.3969 102.461 58.2176 102.523C58.0383 102.585 57.8868 102.678 57.7631 102.801C57.6394 102.919 57.5776 103.077 57.5776 103.274C57.5776 103.54 57.6827 103.751 57.893 103.905C58.1094 104.054 58.366 104.128 58.6628 104.128ZM68.4011 104.239C68.432 104.239 68.4474 104.251 68.4474 104.276C68.4474 104.295 68.432 104.304 68.4011 104.304C68.1537 104.304 67.9558 104.298 67.8074 104.285C67.758 104.279 67.6869 104.276 67.5941 104.276H67.288C67.1953 104.276 67.1242 104.279 67.0747 104.285C66.9263 104.298 66.7284 104.304 66.4811 104.304C66.4563 104.304 66.444 104.295 66.444 104.276C66.444 104.251 66.4563 104.239 66.4811 104.239C66.7408 104.239 66.9201 104.205 67.019 104.137C67.1242 104.069 67.1767 103.948 67.1767 103.775C67.1767 103.72 67.1582 103.568 67.1211 103.321L66.7872 101.438C66.6759 100.813 66.5336 100.387 66.3605 100.158C66.1935 99.9229 65.974 99.8054 65.702 99.8054C65.3804 99.8054 65.062 99.9539 64.7466 100.251C64.4312 100.547 64.153 100.983 63.9118 101.558C63.6707 102.127 63.5099 102.804 63.4295 103.59C63.4357 103.763 63.4573 103.896 63.4944 103.989C63.5377 104.075 63.6119 104.14 63.717 104.183C63.8222 104.22 63.9768 104.239 64.1808 104.239C64.2117 104.239 64.2272 104.251 64.2272 104.276C64.2272 104.295 64.2117 104.304 64.1808 104.304C63.9335 104.304 63.7356 104.298 63.5872 104.285C63.5377 104.279 63.4666 104.276 63.3739 104.276H63.077C62.9843 104.276 62.9132 104.279 62.8637 104.285C62.7153 104.298 62.5174 104.304 62.2701 104.304C62.2454 104.304 62.233 104.295 62.233 104.276C62.233 104.251 62.2454 104.239 62.2701 104.239C62.5051 104.239 62.6751 104.211 62.7802 104.156C62.8854 104.1 62.9534 104.013 62.9843 103.896C63.0152 103.772 63.0307 103.577 63.0307 103.312V101.095C63.0307 100.724 62.9905 100.452 62.9101 100.278C62.8297 100.105 62.6628 100.019 62.4092 100.019C62.3969 100.013 62.3907 100.003 62.3907 99.991C62.3907 99.9786 62.3969 99.9693 62.4092 99.9631C62.5824 99.9322 62.7308 99.8889 62.8544 99.8333C62.9781 99.7776 63.0863 99.7251 63.1791 99.6756C63.2718 99.6199 63.3337 99.5828 63.3646 99.5643C63.3708 99.5581 63.38 99.555 63.3924 99.555C63.4048 99.5488 63.4141 99.5519 63.4202 99.5643V101.327L63.2811 103.72H63.3275C63.4264 102.78 63.6181 101.998 63.9025 101.373C64.1932 100.742 64.5209 100.282 64.8857 99.991C65.2506 99.6941 65.603 99.5457 65.9431 99.5457C66.2028 99.5457 66.41 99.6199 66.5646 99.7683C66.7191 99.9106 66.8428 100.124 66.9356 100.408C67.0283 100.687 67.118 101.076 67.2046 101.577L67.5199 103.321C67.5694 103.593 67.6158 103.788 67.659 103.905C67.7023 104.023 67.7765 104.109 67.8816 104.165C67.993 104.214 68.1661 104.239 68.4011 104.239ZM70.4672 104.23C70.4981 104.23 70.5136 104.242 70.5136 104.267C70.5136 104.285 70.4981 104.295 70.4672 104.295C70.2137 104.301 70.0096 104.298 69.855 104.285C69.8118 104.279 69.7468 104.276 69.6603 104.276H69.3542C69.2614 104.276 69.1903 104.279 69.1408 104.285C68.9924 104.298 68.7946 104.304 68.5472 104.304C68.5225 104.304 68.5101 104.295 68.5101 104.276C68.5101 104.251 68.5225 104.239 68.5472 104.239C68.7822 104.239 68.9522 104.211 69.0574 104.156C69.1625 104.1 69.2305 104.013 69.2614 103.896C69.2923 103.772 69.3078 103.577 69.3078 103.312V101.466C69.3078 100.755 69.5273 100.204 69.9663 99.8147L70.0127 99.7776C69.6726 99.9446 69.4005 100.118 69.1965 100.297C68.9986 100.476 68.8038 100.68 68.6121 100.909C68.606 100.928 68.5905 100.937 68.5658 100.937C68.5472 100.937 68.5349 100.928 68.5287 100.909C68.5225 100.891 68.5287 100.872 68.5472 100.854C68.776 100.581 69.0234 100.343 69.2892 100.139C69.5551 99.9291 69.886 99.7436 70.2817 99.5828C70.2879 99.5767 70.3003 99.5736 70.3188 99.5736C70.3374 99.5736 70.3497 99.5828 70.3559 99.6014C70.3621 99.6199 70.3559 99.6354 70.3374 99.6478C69.9045 100.019 69.6881 100.65 69.6881 101.54L69.6974 103.312C69.7035 103.577 69.719 103.772 69.7437 103.896C69.7747 104.013 69.8427 104.1 69.9478 104.156C70.0591 104.205 70.2322 104.23 70.4672 104.23ZM69.6324 98.6739C69.5397 98.6739 69.4593 98.6429 69.3913 98.5811C69.3294 98.5131 69.2985 98.4327 69.2985 98.34C69.2985 98.2472 69.3294 98.1699 69.3913 98.1081C69.4593 98.0401 69.5397 98.006 69.6324 98.006C69.7252 98.006 69.8025 98.037 69.8643 98.0988C69.9323 98.1606 69.9663 98.241 69.9663 98.34C69.9663 98.4327 69.9354 98.5131 69.8736 98.5811C69.8118 98.6429 69.7314 98.6739 69.6324 98.6739ZM75.6978 102.161C75.704 102.118 75.7226 102.096 75.7535 102.096C75.7658 102.096 75.7751 102.103 75.7813 102.115C75.7875 102.127 75.7875 102.146 75.7813 102.171C75.503 102.956 75.1691 103.519 74.7796 103.859C74.39 104.199 73.8953 104.369 73.2955 104.369C72.8998 104.369 72.5226 104.273 72.1639 104.081C71.8053 103.883 71.5147 103.608 71.2921 103.256C71.0694 102.897 70.9581 102.489 70.9581 102.032C70.9581 101.555 71.0694 101.129 71.2921 100.752C71.5147 100.374 71.8115 100.081 72.1825 99.8704C72.5535 99.6601 72.9492 99.555 73.3697 99.555C73.7902 99.555 74.1334 99.6107 74.3993 99.722C74.6652 99.8333 74.9249 100.025 75.1784 100.297C74.962 100.532 74.7827 100.767 74.6404 101.002C74.5044 101.231 74.4147 101.398 74.3715 101.503C74.3343 101.602 74.2756 101.763 74.1952 101.985C74.1829 102.022 74.1612 102.035 74.1303 102.022C74.1056 102.01 74.0994 101.991 74.1117 101.967C74.1241 101.929 74.155 101.843 74.2045 101.707C74.254 101.571 74.3127 101.435 74.3807 101.299C74.4487 101.157 74.526 101.021 74.6126 100.891C74.5941 100.464 74.4642 100.149 74.223 99.9446C73.9881 99.7405 73.716 99.6385 73.4068 99.6385C73.0296 99.6385 72.6926 99.7251 72.3958 99.8982C72.099 100.071 71.8671 100.322 71.7002 100.65C71.5332 100.977 71.4497 101.361 71.4497 101.8C71.4497 102.257 71.5363 102.665 71.7094 103.024C71.8888 103.383 72.133 103.661 72.4422 103.859C72.7576 104.057 73.11 104.156 73.4996 104.156C73.9572 104.156 74.3745 104.01 74.7517 103.72C75.1351 103.429 75.4505 102.91 75.6978 102.161ZM48.6171 109.121C49.5508 109.195 50.2774 109.402 50.7968 109.742C51.3162 110.082 51.5759 110.605 51.5759 111.31C51.5759 111.706 51.4646 112.052 51.242 112.349C51.0256 112.645 50.7164 112.874 50.3145 113.035C49.9125 113.196 49.4426 113.276 48.9046 113.276H46.9661C46.8548 113.276 46.7682 113.279 46.7064 113.285C46.5209 113.298 46.2797 113.304 45.9829 113.304C45.952 113.304 45.9365 113.295 45.9365 113.276C45.9365 113.251 45.952 113.239 45.9829 113.239C46.2674 113.239 46.4683 113.217 46.5858 113.174C46.7033 113.125 46.7837 113.013 46.827 112.84C46.8702 112.667 46.8919 112.367 46.8919 111.94V108.796C46.5703 108.629 46.3106 108.425 46.1128 108.184C45.9149 107.943 45.816 107.689 45.816 107.423C45.816 107.015 45.9922 106.802 46.3446 106.783H48.6635C49.2076 106.783 49.6343 106.882 49.9435 107.08C50.2588 107.278 50.4165 107.559 50.4165 107.924C50.4165 108.271 50.2372 108.552 49.8785 108.768C49.5199 108.985 49.0994 109.102 48.6171 109.121ZM45.8994 107.423C45.8994 107.671 45.9891 107.906 46.1684 108.128C46.3539 108.351 46.5951 108.543 46.8919 108.703V108.119C46.8919 107.723 46.8702 107.436 46.827 107.256C46.7899 107.077 46.7342 106.966 46.66 106.923C46.592 106.879 46.4869 106.858 46.3446 106.858C46.0478 106.889 45.8994 107.077 45.8994 107.423ZM47.3928 106.867C47.3495 107.052 47.3278 107.383 47.3278 107.859V108.23V108.898C47.5937 108.997 47.8782 109.056 48.1812 109.074C48.7624 109.074 49.1953 108.985 49.4797 108.805C49.7641 108.626 49.9064 108.354 49.9064 107.989C49.9064 107.631 49.7951 107.355 49.5724 107.164C49.3498 106.966 49.0097 106.867 48.5522 106.867H47.3928ZM48.8211 113.193C49.5755 113.193 50.1382 113.029 50.5093 112.701C50.8864 112.367 51.075 111.937 51.075 111.412C51.075 110.837 50.9359 110.388 50.6577 110.067C50.3794 109.745 50.0331 109.523 49.6188 109.399C49.2045 109.275 48.7253 109.195 48.1812 109.158C47.8782 109.139 47.5937 109.081 47.3278 108.982L47.3186 111.532C47.3186 112.107 47.3216 112.482 47.3278 112.655C47.334 112.828 47.3557 113.007 47.3928 113.193H48.8211ZM52.8779 113.276C52.7851 113.276 52.714 113.279 52.6645 113.285C52.5161 113.298 52.3182 113.304 52.0709 113.304C52.0462 113.304 52.0338 113.295 52.0338 113.276C52.0338 113.251 52.0462 113.239 52.0709 113.239C52.3059 113.239 52.4759 113.211 52.581 113.156C52.6862 113.1 52.7542 113.013 52.7851 112.896C52.816 112.772 52.8315 112.577 52.8315 112.312V107.535C52.8315 107.331 52.7975 107.179 52.7294 107.08C52.6676 106.981 52.5532 106.932 52.3863 106.932C52.2935 106.932 52.1977 106.944 52.0987 106.969C52.0864 106.975 52.0771 106.972 52.0709 106.96C52.0709 106.947 52.0771 106.938 52.0895 106.932C52.2502 106.87 52.4388 106.783 52.6552 106.672C52.8779 106.555 53.0479 106.456 53.1654 106.375C53.1778 106.363 53.1901 106.36 53.2025 106.366C53.2149 106.372 53.221 106.385 53.221 106.403V112.312C53.221 112.577 53.2365 112.772 53.2674 112.896C53.2983 113.013 53.3664 113.1 53.4715 113.156C53.5766 113.211 53.7466 113.239 53.9816 113.239C54.0125 113.239 54.028 113.251 54.028 113.276C54.028 113.295 54.0125 113.304 53.9816 113.304C53.7343 113.304 53.5364 113.298 53.388 113.285C53.3385 113.279 53.2674 113.276 53.1747 113.276H52.8779ZM59.2217 111.143C59.2279 111.118 59.2403 111.106 59.2588 111.106C59.2712 111.106 59.2805 111.112 59.2866 111.124C59.299 111.137 59.3021 111.152 59.2959 111.171C59.0486 111.913 58.7116 112.463 58.2849 112.822C57.8582 113.18 57.3234 113.36 56.6803 113.36C56.2413 113.36 55.8548 113.258 55.5209 113.054C55.187 112.843 54.9273 112.565 54.7418 112.219C54.5624 111.866 54.4728 111.486 54.4728 111.078C54.4728 110.67 54.5717 110.271 54.7696 109.881C54.9736 109.492 55.2612 109.173 55.6322 108.926C56.0032 108.679 56.4268 108.555 56.9029 108.555C57.3667 108.555 57.7717 108.642 58.118 108.815C58.4642 108.988 58.6374 109.226 58.6374 109.529C58.6374 109.77 58.5539 109.962 58.3869 110.104C58.22 110.246 58.0159 110.351 57.7748 110.419C57.5398 110.481 57.2244 110.546 56.8287 110.614C56.5443 110.664 56.334 110.704 56.198 110.735C55.8146 110.815 55.524 110.929 55.3261 111.078C55.1282 111.22 55.0447 111.433 55.0757 111.718C55.2241 112.114 55.4559 112.435 55.7713 112.683C56.0929 112.924 56.4824 113.044 56.94 113.044C57.4903 113.044 57.9541 112.893 58.3313 112.59C58.7085 112.287 59.0053 111.804 59.2217 111.143ZM56.9029 108.638C56.501 108.638 56.1485 108.734 55.8455 108.926C55.5425 109.118 55.3106 109.377 55.1499 109.705C54.9891 110.027 54.9087 110.376 54.9087 110.753C54.9087 111.007 54.9396 111.245 55.0015 111.467C55.0324 111.245 55.153 111.072 55.3632 110.948C55.5734 110.818 55.8486 110.719 56.1887 110.651C56.2505 110.633 56.3649 110.611 56.5319 110.586C56.8782 110.524 57.1564 110.46 57.3667 110.392C57.5831 110.324 57.7624 110.225 57.9046 110.095C58.053 109.959 58.1272 109.776 58.1272 109.547C58.1272 109.288 58.019 109.071 57.8026 108.898C57.5924 108.725 57.2925 108.638 56.9029 108.638ZM65.4029 113.239C65.4338 113.239 65.4493 113.251 65.4493 113.276C65.4493 113.295 65.4338 113.304 65.4029 113.304C65.1556 113.304 64.9577 113.298 64.8093 113.285C64.7598 113.279 64.6887 113.276 64.5959 113.276H64.2899C64.1971 113.276 64.126 113.279 64.0765 113.285C63.9281 113.298 63.7303 113.304 63.4829 113.304C63.4582 113.304 63.4458 113.295 63.4458 113.276C63.4458 113.251 63.4582 113.239 63.4829 113.239C63.7426 113.239 63.9219 113.205 64.0209 113.137C64.126 113.069 64.1786 112.948 64.1786 112.775C64.1786 112.72 64.16 112.568 64.1229 112.321L63.789 110.438C63.6777 109.813 63.5355 109.387 63.3623 109.158C63.1954 108.923 62.9759 108.805 62.7038 108.805C62.3822 108.805 62.0638 108.954 61.7484 109.251C61.4331 109.547 61.1548 109.983 60.9137 110.558C60.6725 111.127 60.5117 111.804 60.4313 112.59C60.4375 112.763 60.4592 112.896 60.4963 112.989C60.5396 113.075 60.6138 113.14 60.7189 113.183C60.824 113.22 60.9786 113.239 61.1826 113.239C61.2136 113.239 61.229 113.251 61.229 113.276C61.229 113.295 61.2136 113.304 61.1826 113.304C60.9353 113.304 60.7374 113.298 60.589 113.285C60.5396 113.279 60.4684 113.276 60.3757 113.276H60.0789C59.9861 113.276 59.915 113.279 59.8656 113.285C59.7171 113.298 59.5193 113.304 59.2719 113.304C59.2472 113.304 59.2348 113.295 59.2348 113.276C59.2348 113.251 59.2472 113.239 59.2719 113.239C59.5069 113.239 59.677 113.211 59.7821 113.156C59.8872 113.1 59.9552 113.013 59.9861 112.896C60.017 112.772 60.0325 112.577 60.0325 112.312V110.095C60.0325 109.724 59.9923 109.452 59.9119 109.278C59.8315 109.105 59.6646 109.019 59.4111 109.019C59.3987 109.013 59.3925 109.003 59.3925 108.991C59.3925 108.979 59.3987 108.969 59.4111 108.963C59.5842 108.932 59.7326 108.889 59.8563 108.833C59.9799 108.778 60.0882 108.725 60.1809 108.676C60.2737 108.62 60.3355 108.583 60.3664 108.564C60.3726 108.558 60.3819 108.555 60.3942 108.555C60.4066 108.549 60.4159 108.552 60.4221 108.564V110.327L60.2829 112.72H60.3293C60.4283 111.78 60.6199 110.998 60.9044 110.373C61.195 109.742 61.5227 109.282 61.8876 108.991C62.2524 108.694 62.6049 108.546 62.9449 108.546C63.2047 108.546 63.4118 108.62 63.5664 108.768C63.721 108.911 63.8447 109.124 63.9374 109.408C64.0302 109.687 64.1198 110.076 64.2064 110.577L64.5217 112.321C64.5712 112.593 64.6176 112.788 64.6609 112.905C64.7042 113.023 64.7784 113.109 64.8835 113.165C64.9948 113.214 65.1679 113.239 65.4029 113.239ZM67.0189 113.369C66.5428 113.369 66.1594 113.196 65.8688 112.849C65.5781 112.503 65.4328 111.971 65.4328 111.254C65.4328 110.766 65.5472 110.314 65.776 109.9C66.011 109.486 66.3202 109.158 66.7035 108.917C67.0931 108.676 67.5043 108.555 67.9372 108.555C68.2772 108.555 68.5648 108.589 68.7998 108.657C69.0347 108.719 69.2852 108.824 69.5511 108.972V107.572C69.5511 107.368 69.517 107.216 69.449 107.117C69.3872 107.018 69.2728 106.969 69.1058 106.969C69.0131 106.969 68.9172 106.981 68.8183 107.006C68.8059 107.012 68.7967 107.009 68.7905 106.997C68.7905 106.984 68.7967 106.975 68.809 106.969C68.9698 106.907 69.1584 106.821 69.3748 106.709C69.5974 106.592 69.7675 106.493 69.885 106.412C69.8973 106.4 69.9097 106.397 69.9221 106.403C69.9344 106.409 69.9406 106.422 69.9406 106.44V112.562C69.9406 112.587 69.9375 112.667 69.9313 112.803C69.9313 112.939 69.9561 113.054 70.0055 113.146C70.0612 113.233 70.1447 113.276 70.256 113.276C70.3611 113.276 70.46 113.245 70.5528 113.183C70.6517 113.115 70.7259 113.026 70.7754 112.914C70.7939 112.89 70.8125 112.883 70.831 112.896C70.8558 112.908 70.862 112.927 70.8496 112.952C70.7939 113.069 70.7136 113.168 70.6084 113.248C70.5033 113.329 70.3704 113.369 70.2096 113.369C69.9994 113.369 69.8355 113.301 69.718 113.165C69.6005 113.029 69.5418 112.846 69.5418 112.618V111.301L69.6809 109.167H69.6345C69.5356 109.94 69.3501 110.648 69.078 111.291C68.8121 111.934 68.4968 112.441 68.1319 112.812C67.7671 113.183 67.3961 113.369 67.0189 113.369ZM67.1395 113.128C67.5105 113.128 67.863 112.945 68.1969 112.58C68.5308 112.216 68.8152 111.73 69.0502 111.124C69.2913 110.518 69.4583 109.866 69.5511 109.167V109.084C69.2542 108.917 68.9976 108.802 68.7812 108.741C68.571 108.673 68.2742 108.638 67.8908 108.638C67.5445 108.638 67.2199 108.747 66.9169 108.963C66.6139 109.18 66.3696 109.476 66.1841 109.854C66.0048 110.225 65.9151 110.642 65.9151 111.106C65.9151 111.514 65.9708 111.872 66.0821 112.182C66.1996 112.485 66.3511 112.72 66.5366 112.887C66.7283 113.047 66.9292 113.128 67.1395 113.128Z" fill="#3B7054"/>
<path d="M9.19503 40.4478C9.90185 40.5706 10.5346 40.3946 11.1953 40.1544C12.0052 39.8584 12.5978 39.3523 13.3369 38.9756C13.3508 38.9765 13.3646 38.9774 13.3799 38.9769C13.4381 38.9775 13.4673 38.9449 13.4733 38.9059C13.4763 38.9029 13.4808 38.9013 13.4853 38.8997C13.6774 38.8781 13.8683 38.8638 14.053 38.8496C13.7438 39.427 13.4646 40.0275 13.2088 40.6373C12.8045 40.7458 12.4078 40.9273 12.0251 41.1484C12.019 41.1486 12.0173 41.1444 12.0097 41.1461C10.043 41.3635 8.19121 42.7655 7.62377 44.5413C7.60885 44.5864 7.63626 44.6543 7.69486 44.6636C8.56478 44.8032 9.38998 44.2194 10.0587 43.7736C11.0863 43.0861 11.7377 42.1283 12.512 41.2134C12.711 41.104 12.9086 40.996 13.109 40.8823C12.6485 42.0051 12.2549 43.1556 11.8513 44.2476C11.5831 44.3883 11.3299 44.5558 11.0848 44.7358C11.0844 44.6913 11.0382 44.6486 10.978 44.6738C9.30699 45.3597 7.62455 46.6734 7.26021 48.4345C7.24639 48.5053 7.30341 48.585 7.38978 48.5631C9.27111 48.0675 10.6198 46.7935 11.1031 45.0194C11.318 44.852 11.5346 44.6859 11.751 44.517C11.3773 45.5217 11.0257 46.5428 10.7406 47.5772C10.307 47.862 9.95285 48.2486 9.63368 48.6655C8.45491 49.5066 7.25963 50.535 7.20934 52.01C7.20726 52.069 7.26893 52.114 7.32962 52.1003C8.68584 51.8268 9.94967 49.8224 9.99313 48.5457C10.2048 48.3009 10.4274 48.0628 10.6661 47.8413C10.4831 48.5417 10.334 49.2465 10.2359 49.9595C9.96562 50.3386 9.76414 50.7497 9.5815 51.1715C9.55703 51.1724 9.53134 51.1805 9.5125 51.2056C9.03808 51.825 8.70643 52.3802 8.44136 53.0951C8.25592 53.5946 8.00025 54.1354 8.13646 54.6702C8.15115 54.727 8.22297 54.7588 8.27839 54.7294C9.45767 54.1151 9.89396 52.4246 9.68575 51.2451C9.68575 51.2451 9.68416 51.2437 9.68257 51.2423C9.76367 51.0612 9.84955 50.8843 9.94974 50.7197C10.02 50.6065 10.1013 50.503 10.1811 50.398C10.1424 50.7484 10.1207 51.0995 10.1097 51.4517C9.75677 51.9388 9.71144 52.7416 9.73326 53.2878C9.76035 53.9573 10.0767 54.5485 10.7582 54.7957C10.8017 54.8113 10.8525 54.7806 10.8646 54.7414C11.22 53.6297 10.8954 52.5234 10.2611 51.5523C10.2728 51.5044 10.2831 51.4581 10.2934 51.4118C10.3009 51.3742 10.267 51.3338 10.2286 51.3309C10.2544 50.9308 10.2956 50.533 10.3538 50.1388C10.3822 50.0861 10.409 50.032 10.4294 49.9723C10.443 49.9316 10.4233 49.9008 10.3934 49.8832C10.4053 49.8024 10.4233 49.7213 10.4367 49.6418C10.4796 49.7838 10.5376 49.9223 10.5888 50.0467C10.6128 50.1061 10.6352 50.1642 10.6607 50.2221C10.6272 50.2262 10.593 50.2519 10.5869 50.288C10.4618 51.0522 10.7402 51.6879 11.1265 52.3396C11.2834 52.605 11.7605 53.5534 12.2126 53.4503C12.7541 53.3251 12.2095 52.2329 12.1582 51.9649C12.0056 51.1536 11.7984 49.997 10.742 49.8673C10.7205 49.8652 10.7086 49.8743 10.7015 49.8874C10.6737 49.8109 10.6444 49.7331 10.6211 49.655C10.5733 49.5032 10.5605 49.3486 10.5173 49.198C10.68 48.3807 10.8983 47.5756 11.1536 46.7749C11.2172 47.0094 11.3649 47.2394 11.4833 47.4273C11.5211 47.4876 11.5663 47.5434 11.6087 47.6021C11.5676 47.6079 11.5278 47.6453 11.5344 47.6924C11.6609 48.7157 12.4437 50.0776 13.5437 50.4052C13.6011 50.4218 13.6503 50.3898 13.6712 50.3416C14.1066 49.3101 12.8927 47.0729 11.5474 47.2784C11.4892 47.1729 11.4371 47.0643 11.3984 46.9481C11.3319 46.7524 11.3431 46.5496 11.2933 46.3519C11.459 45.8575 11.6387 45.3669 11.8261 44.8774C11.9018 44.6779 11.9806 44.4782 12.0579 44.28C12.0609 44.277 12.0638 44.2741 12.0667 44.2711C12.0905 44.253 12.094 44.2284 12.084 44.2087C12.1515 44.0324 12.2206 43.8575 12.2881 43.6813C12.3295 43.8247 12.4 43.9685 12.4872 44.1103C12.4799 44.1177 12.474 44.1237 12.4684 44.1354C12.2809 44.8015 12.8898 45.6788 13.2673 46.1959C13.7065 46.7968 14.3303 47.3778 15.1053 47.554C15.164 47.5662 15.2131 47.5313 15.2199 47.4765C15.2972 46.7399 14.8344 45.9834 14.4962 45.3457C14.1063 44.6109 13.5665 43.9865 12.647 43.9061C12.5667 43.6766 12.5307 43.4439 12.4743 43.199C12.8653 42.2037 13.2703 41.2151 13.7097 40.2423C13.7245 40.4097 13.7639 40.5791 13.8169 40.7437C13.719 41.4265 13.9286 42.2456 14.1433 42.8593C14.4048 43.6018 14.9221 44.2371 15.7533 44.437C15.8043 44.448 15.8677 44.4255 15.8807 44.3733C16.2112 42.9668 15.5451 40.8582 13.9123 40.3955C13.8853 40.1927 13.8875 39.993 13.9172 39.7923C14.3594 38.8496 14.8389 37.9199 15.3838 37.0135C15.4253 36.9445 15.3248 36.888 15.2754 36.9501C14.8482 37.4917 14.4734 38.0758 14.1365 38.6871C13.8551 38.6977 13.5498 38.7235 13.247 38.7708C12.479 38.6503 11.7287 38.4789 10.9829 38.8056C10.2175 39.1402 9.65721 39.6853 9.12858 40.2909C9.08625 40.3399 9.12394 40.4332 9.19185 40.445L9.19503 40.4478ZM10.8838 42.8998C10.3533 43.4625 9.60223 43.8812 8.90499 44.2333C8.34722 44.5156 7.71933 44.6627 8.13355 43.8531C8.38371 43.3627 8.79526 42.9567 9.21783 42.5934C9.91517 41.9929 10.7671 41.6752 11.6404 41.3926C10.9402 41.8553 10.2967 42.4251 9.74469 42.9139C9.69453 42.9589 9.76807 43.0308 9.81676 42.9873C10.5367 42.3429 11.336 41.8692 12.1574 41.4119C11.7138 41.8923 11.3351 42.4206 10.8868 42.8997L10.8838 42.8998ZM7.88038 48.2145C6.95397 48.545 8.48955 46.6266 8.69716 46.3948C9.29075 45.7322 10.0834 45.3908 10.8284 44.9364C10.2256 45.4199 9.67984 45.9832 9.13298 46.4847C9.07841 46.5341 9.15697 46.6159 9.21459 46.5663C9.75485 46.0895 10.3132 45.6421 10.8749 45.2003C10.2427 46.5722 9.48727 47.6415 7.88184 48.213L7.88038 48.2145ZM8.24217 51.4098C8.01119 51.6325 7.73959 51.8006 7.42821 51.8984C7.36472 51.918 7.78563 50.7278 7.87016 50.5911C8.20719 50.0544 8.71662 49.6447 9.22165 49.2395C8.96633 49.6095 8.7202 49.9791 8.45546 50.3078C8.41766 50.3551 8.49927 50.4009 8.53719 50.3564C8.97589 49.8331 9.37667 49.2825 9.81231 48.7593C9.53135 49.7476 9.00875 50.6732 8.24376 51.4112L8.24217 51.4098ZM8.67685 54.2679C8.28279 54.6891 8.33952 54.1169 8.40997 53.8659C8.47786 53.6265 8.57499 53.3902 8.66306 53.1572C8.82416 52.7333 9.01524 52.3658 9.22786 52.0003C9.14198 52.2131 9.06749 52.4413 9.08145 52.6246C9.0817 52.6303 9.08353 52.6374 9.09136 52.6414C9.09455 52.6442 9.0976 52.6441 9.10066 52.644C9.10384 52.6467 9.10544 52.6481 9.10996 52.6465C9.11608 52.6463 9.12354 52.6417 9.12795 52.6372C9.29249 52.4372 9.354 52.0486 9.44379 51.8199C9.47828 51.731 9.51572 51.6391 9.55168 51.5487C9.53132 52.5057 9.36366 53.5286 8.67526 54.2666L8.67685 54.2679ZM10.7863 53.1607C10.8884 53.5417 10.8758 53.9284 10.8079 54.3114C10.7227 54.7898 10.3335 54.3924 10.1773 54.18C9.69914 53.5289 9.90219 52.7962 10.1082 52.0964C10.11 52.1753 10.1103 52.2528 10.1152 52.3316C10.1152 52.3316 10.1152 52.3316 10.1137 52.3331C10.1044 52.3665 10.0951 52.3999 10.0842 52.4319C10.0815 52.4406 10.0953 52.4415 10.0982 52.4356C10.105 52.4167 10.1119 52.3978 10.1186 52.376C10.1228 52.4735 10.1269 52.571 10.1327 52.6698C10.136 52.7113 10.2035 52.7145 10.2033 52.6729C10.1931 52.3632 10.1983 52.0557 10.2113 51.7494C10.2125 51.7422 10.2153 51.7363 10.218 51.7276C10.407 52.2058 10.6546 52.6603 10.7878 53.1592L10.7863 53.1607ZM11.9975 52.0025C12.0381 52.2364 12.1199 52.4645 12.1833 52.6933C12.2715 53.0015 12.2456 53.4706 11.8709 53.0912C11.5506 52.7644 11.3252 52.3292 11.1123 51.9352C10.9826 51.696 10.8666 51.4549 10.7972 51.1933C10.7297 50.9417 10.7569 50.6808 10.7413 50.4244C10.8713 50.7411 11.0027 51.0563 11.128 51.3718C11.14 51.4015 11.1952 51.4023 11.1936 51.365C11.1654 50.9928 11.0099 50.6512 10.865 50.3077C10.8172 50.1918 10.7709 50.0772 10.7261 49.9612C11.682 50.2498 11.8537 51.1823 11.9974 51.9996L11.9975 52.0025ZM13.5295 49.6061C13.551 49.7158 13.6049 50.2235 13.459 50.1801C13.0525 50.0576 12.7451 49.7116 12.511 49.3959C12.1502 48.9098 12.0231 48.3388 11.7695 47.8157C12.0038 48.1012 12.2678 48.3655 12.5066 48.6466C12.5405 48.687 12.5994 48.6331 12.5671 48.5941C12.284 48.2415 11.9739 47.9042 11.7086 47.5394C11.6728 47.4891 11.6429 47.4357 11.6116 47.3837C12.671 47.4416 13.3618 48.7652 13.5295 49.6061ZM14.4884 45.7006C14.647 46.0062 14.7889 46.3168 14.9098 46.6367C14.9409 46.7188 15.1258 47.3896 15.0124 47.3522C14.3105 47.1287 13.7641 46.496 13.3651 45.9409C13.0215 45.4642 12.9021 44.9633 12.7285 44.4515C12.9939 44.7833 13.304 45.0846 13.4954 45.2971C13.5372 45.3444 13.611 45.2784 13.5691 45.2312C13.297 44.9212 13.0341 44.6109 12.8155 44.2645C12.7679 44.1902 12.7311 44.1169 12.6988 44.042C13.6554 44.2042 14.0946 44.9458 14.4884 45.7006ZM15.52 42.3136C15.6727 42.697 15.7439 43.1064 15.7674 43.5133C15.7762 43.6838 15.7606 43.8552 15.7432 44.0224C15.7065 44.3828 15.4592 44.1523 15.271 44.0502C14.2752 43.509 14.1765 42.3828 14.0948 41.3679C14.2244 41.6042 14.375 41.8311 14.5266 42.0451C14.5576 42.0885 14.6327 42.0541 14.6046 42.0049C14.3991 41.6422 14.2013 41.2777 14.0516 40.8942C14.0407 40.7827 14.0254 40.6756 14.0102 40.5713C14.7282 40.9909 15.2114 41.5442 15.5185 42.3151L15.52 42.3136ZM10.036 39.6595C10.3897 39.3333 10.8098 39.0921 11.2731 38.9296C11.7379 38.7657 12.1926 38.8305 12.652 38.8994C12.2463 39.0123 11.869 39.1801 11.5795 39.4321C11.5263 39.4772 11.6014 39.5505 11.6548 39.5083C12.0442 39.1936 12.5478 39.0411 13.068 38.9556C13.0726 38.9568 13.0757 38.9567 13.0804 38.958C12.6685 39.1787 12.2976 39.4597 11.8843 39.682C11.2631 40.0198 10.3747 40.2728 9.65725 40.2955C9.34514 40.3043 10.014 39.6819 10.0376 39.6609L10.036 39.6595Z" fill="#3B7054"/>
<path d="M9.19503 40.4478C9.90185 40.5706 10.5346 40.3946 11.1953 40.1544C12.0052 39.8584 12.5978 39.3523 13.3369 38.9756C13.3508 38.9765 13.3646 38.9774 13.3799 38.9769C13.4381 38.9775 13.4673 38.9449 13.4733 38.9059C13.4763 38.9029 13.4808 38.9013 13.4853 38.8997C13.6774 38.8781 13.8683 38.8638 14.053 38.8496C13.7438 39.427 13.4646 40.0275 13.2088 40.6373C12.8045 40.7458 12.4078 40.9273 12.0251 41.1484C12.019 41.1486 12.0173 41.1444 12.0097 41.1461C10.043 41.3635 8.19121 42.7655 7.62377 44.5413C7.60885 44.5864 7.63626 44.6543 7.69486 44.6636C8.56478 44.8032 9.38998 44.2194 10.0587 43.7736C11.0863 43.0861 11.7377 42.1283 12.512 41.2134C12.711 41.104 12.9086 40.996 13.109 40.8823C12.6485 42.0051 12.2549 43.1556 11.8513 44.2476C11.5831 44.3883 11.3299 44.5558 11.0848 44.7358C11.0844 44.6913 11.0382 44.6486 10.978 44.6738C9.30699 45.3597 7.62455 46.6734 7.26021 48.4345C7.24639 48.5053 7.30341 48.585 7.38978 48.5631C9.27111 48.0675 10.6198 46.7935 11.1031 45.0194C11.318 44.852 11.5346 44.6859 11.751 44.517C11.3773 45.5217 11.0257 46.5428 10.7406 47.5772C10.307 47.862 9.95285 48.2486 9.63368 48.6655C8.45491 49.5066 7.25963 50.535 7.20934 52.01C7.20726 52.069 7.26893 52.114 7.32962 52.1003C8.68584 51.8268 9.94967 49.8224 9.99313 48.5457C10.2048 48.3009 10.4274 48.0628 10.6661 47.8413C10.4831 48.5417 10.334 49.2465 10.2359 49.9595C9.96562 50.3386 9.76414 50.7497 9.5815 51.1715C9.55703 51.1724 9.53134 51.1805 9.5125 51.2056C9.03808 51.825 8.70643 52.3802 8.44136 53.0951C8.25592 53.5946 8.00025 54.1354 8.13646 54.6702C8.15115 54.727 8.22297 54.7588 8.27839 54.7294C9.45767 54.1151 9.89396 52.4246 9.68575 51.2451C9.68575 51.2451 9.68416 51.2437 9.68257 51.2423C9.76367 51.0612 9.84955 50.8843 9.94974 50.7197C10.02 50.6065 10.1013 50.503 10.1811 50.398C10.1424 50.7484 10.1207 51.0995 10.1097 51.4517C9.75677 51.9388 9.71144 52.7416 9.73326 53.2878C9.76035 53.9573 10.0767 54.5485 10.7582 54.7957C10.8017 54.8113 10.8525 54.7806 10.8646 54.7414C11.22 53.6297 10.8954 52.5234 10.2611 51.5523C10.2728 51.5044 10.2831 51.4581 10.2934 51.4118C10.3009 51.3742 10.267 51.3338 10.2286 51.3309C10.2544 50.9308 10.2956 50.533 10.3538 50.1388C10.3822 50.0861 10.409 50.032 10.4294 49.9723C10.443 49.9316 10.4233 49.9008 10.3934 49.8832C10.4053 49.8024 10.4233 49.7213 10.4367 49.6418C10.4796 49.7838 10.5376 49.9223 10.5888 50.0467C10.6128 50.1061 10.6352 50.1642 10.6607 50.2221C10.6272 50.2262 10.593 50.2519 10.5869 50.288C10.4618 51.0522 10.7402 51.6879 11.1265 52.3396C11.2834 52.605 11.7605 53.5534 12.2126 53.4503C12.7541 53.3251 12.2095 52.2329 12.1582 51.9649C12.0056 51.1536 11.7984 49.997 10.742 49.8673C10.7205 49.8652 10.7086 49.8743 10.7015 49.8874C10.6737 49.8109 10.6444 49.7331 10.6211 49.655C10.5733 49.5032 10.5605 49.3486 10.5173 49.198C10.68 48.3807 10.8983 47.5756 11.1536 46.7749C11.2172 47.0094 11.3649 47.2394 11.4833 47.4273C11.5211 47.4876 11.5663 47.5434 11.6087 47.6021C11.5676 47.6079 11.5278 47.6453 11.5344 47.6924C11.6609 48.7157 12.4437 50.0776 13.5437 50.4052C13.6011 50.4218 13.6503 50.3898 13.6712 50.3416C14.1066 49.3101 12.8927 47.0729 11.5474 47.2784C11.4892 47.1729 11.4371 47.0643 11.3984 46.9481C11.3319 46.7524 11.3431 46.5496 11.2933 46.3519C11.459 45.8575 11.6387 45.3669 11.8261 44.8774C11.9018 44.6779 11.9806 44.4782 12.0579 44.28C12.0609 44.277 12.0638 44.2741 12.0667 44.2711C12.0905 44.253 12.094 44.2284 12.084 44.2087C12.1515 44.0324 12.2206 43.8575 12.2881 43.6813C12.3295 43.8247 12.4 43.9685 12.4872 44.1103C12.4799 44.1177 12.474 44.1237 12.4684 44.1354C12.2809 44.8015 12.8898 45.6788 13.2673 46.1959C13.7065 46.7968 14.3303 47.3778 15.1053 47.554C15.164 47.5662 15.2131 47.5313 15.2199 47.4765C15.2972 46.7399 14.8344 45.9834 14.4962 45.3457C14.1063 44.6109 13.5665 43.9865 12.647 43.9061C12.5667 43.6766 12.5307 43.4439 12.4743 43.199C12.8653 42.2037 13.2703 41.2151 13.7097 40.2423C13.7245 40.4097 13.7639 40.5791 13.8169 40.7437C13.719 41.4265 13.9286 42.2456 14.1433 42.8593C14.4048 43.6018 14.9221 44.2371 15.7533 44.437C15.8043 44.448 15.8677 44.4255 15.8807 44.3733C16.2112 42.9668 15.5451 40.8582 13.9123 40.3955C13.8853 40.1927 13.8875 39.993 13.9172 39.7923C14.3594 38.8496 14.8389 37.9199 15.3838 37.0135C15.4253 36.9445 15.3248 36.888 15.2754 36.9501C14.8482 37.4917 14.4734 38.0758 14.1365 38.6871C13.8551 38.6977 13.5498 38.7235 13.247 38.7708C12.479 38.6503 11.7287 38.4789 10.9829 38.8056C10.2175 39.1402 9.65721 39.6853 9.12858 40.2909C9.08625 40.3399 9.12394 40.4332 9.19185 40.445L9.19503 40.4478ZM10.8838 42.8998C10.3533 43.4625 9.60223 43.8812 8.90499 44.2333C8.34722 44.5156 7.71933 44.6627 8.13355 43.8531C8.38371 43.3627 8.79526 42.9567 9.21783 42.5934C9.91517 41.9929 10.7671 41.6752 11.6404 41.3926C10.9402 41.8553 10.2967 42.4251 9.74469 42.9139C9.69453 42.9589 9.76807 43.0308 9.81676 42.9873C10.5367 42.3429 11.336 41.8692 12.1574 41.4119C11.7138 41.8923 11.3351 42.4206 10.8868 42.8997L10.8838 42.8998ZM7.88038 48.2145C6.95397 48.545 8.48955 46.6266 8.69716 46.3948C9.29075 45.7322 10.0834 45.3908 10.8284 44.9364C10.2256 45.4199 9.67984 45.9832 9.13298 46.4847C9.07841 46.5341 9.15697 46.6159 9.21459 46.5663C9.75485 46.0895 10.3132 45.6421 10.8749 45.2003C10.2427 46.5722 9.48727 47.6415 7.88184 48.213L7.88038 48.2145ZM8.24217 51.4098C8.01119 51.6325 7.73959 51.8006 7.42821 51.8984C7.36472 51.918 7.78563 50.7278 7.87016 50.5911C8.20719 50.0544 8.71662 49.6447 9.22165 49.2395C8.96633 49.6095 8.7202 49.9791 8.45546 50.3078C8.41766 50.3551 8.49927 50.4009 8.53719 50.3564C8.97589 49.8331 9.37667 49.2825 9.81231 48.7593C9.53135 49.7476 9.00875 50.6732 8.24376 51.4112L8.24217 51.4098ZM8.67685 54.2679C8.28279 54.6891 8.33952 54.1169 8.40997 53.8659C8.47786 53.6265 8.57499 53.3902 8.66306 53.1572C8.82416 52.7333 9.01524 52.3658 9.22786 52.0003C9.14198 52.2131 9.06749 52.4413 9.08145 52.6246C9.0817 52.6303 9.08353 52.6374 9.09136 52.6414C9.09455 52.6442 9.0976 52.6441 9.10066 52.644C9.10384 52.6467 9.10544 52.6481 9.10996 52.6465C9.11608 52.6463 9.12354 52.6417 9.12795 52.6372C9.29249 52.4372 9.354 52.0486 9.44379 51.8199C9.47828 51.731 9.51572 51.6391 9.55168 51.5487C9.53132 52.5057 9.36366 53.5286 8.67526 54.2666L8.67685 54.2679ZM10.7863 53.1607C10.8884 53.5417 10.8758 53.9284 10.8079 54.3114C10.7227 54.7898 10.3335 54.3924 10.1773 54.18C9.69914 53.5289 9.90219 52.7962 10.1082 52.0964C10.11 52.1753 10.1103 52.2528 10.1152 52.3316C10.1152 52.3316 10.1152 52.3316 10.1137 52.3331C10.1044 52.3665 10.0951 52.3999 10.0842 52.4319C10.0815 52.4406 10.0953 52.4415 10.0982 52.4356C10.105 52.4167 10.1119 52.3978 10.1186 52.376C10.1228 52.4735 10.1269 52.571 10.1327 52.6698C10.136 52.7113 10.2035 52.7145 10.2033 52.6729C10.1931 52.3632 10.1983 52.0557 10.2113 51.7494C10.2125 51.7422 10.2153 51.7363 10.218 51.7276C10.407 52.2058 10.6546 52.6603 10.7878 53.1592L10.7863 53.1607ZM11.9975 52.0025C12.0381 52.2364 12.1199 52.4645 12.1833 52.6933C12.2715 53.0015 12.2456 53.4706 11.8709 53.0912C11.5506 52.7644 11.3252 52.3292 11.1123 51.9352C10.9826 51.696 10.8666 51.4549 10.7972 51.1933C10.7297 50.9417 10.7569 50.6808 10.7413 50.4244C10.8713 50.7411 11.0027 51.0563 11.128 51.3718C11.14 51.4015 11.1952 51.4023 11.1936 51.365C11.1654 50.9928 11.0099 50.6512 10.865 50.3077C10.8172 50.1918 10.7709 50.0772 10.7261 49.9612C11.682 50.2498 11.8537 51.1823 11.9974 51.9996L11.9975 52.0025ZM13.5295 49.6061C13.551 49.7158 13.6049 50.2235 13.459 50.1801C13.0525 50.0576 12.7451 49.7116 12.511 49.3959C12.1502 48.9098 12.0231 48.3388 11.7695 47.8157C12.0038 48.1012 12.2678 48.3655 12.5066 48.6466C12.5405 48.687 12.5994 48.6331 12.5671 48.5941C12.284 48.2415 11.9739 47.9042 11.7086 47.5394C11.6728 47.4891 11.6429 47.4357 11.6116 47.3837C12.671 47.4416 13.3618 48.7652 13.5295 49.6061ZM14.4884 45.7006C14.647 46.0062 14.7889 46.3168 14.9098 46.6367C14.9409 46.7188 15.1258 47.3896 15.0124 47.3522C14.3105 47.1287 13.7641 46.496 13.3651 45.9409C13.0215 45.4642 12.9021 44.9633 12.7285 44.4515C12.9939 44.7833 13.304 45.0846 13.4954 45.2971C13.5372 45.3444 13.611 45.2784 13.5691 45.2312C13.297 44.9212 13.0341 44.6109 12.8155 44.2645C12.7679 44.1902 12.7311 44.1169 12.6988 44.042C13.6554 44.2042 14.0946 44.9458 14.4884 45.7006ZM15.52 42.3136C15.6727 42.697 15.7439 43.1064 15.7674 43.5133C15.7762 43.6838 15.7606 43.8552 15.7432 44.0224C15.7065 44.3828 15.4592 44.1523 15.271 44.0502C14.2752 43.509 14.1765 42.3828 14.0948 41.3679C14.2244 41.6042 14.375 41.8311 14.5266 42.0451C14.5576 42.0885 14.6327 42.0541 14.6046 42.0049C14.3991 41.6422 14.2013 41.2777 14.0516 40.8942C14.0407 40.7827 14.0254 40.6756 14.0102 40.5713C14.7282 40.9909 15.2114 41.5442 15.5185 42.3151L15.52 42.3136ZM10.036 39.6595C10.3897 39.3333 10.8098 39.0921 11.2731 38.9296C11.7379 38.7657 12.1926 38.8305 12.652 38.8994C12.2463 39.0123 11.869 39.1801 11.5795 39.4321C11.5263 39.4772 11.6014 39.5505 11.6548 39.5083C12.0442 39.1936 12.5478 39.0411 13.068 38.9556C13.0726 38.9568 13.0757 38.9567 13.0804 38.958C12.6685 39.1787 12.2976 39.4597 11.8843 39.682C11.2631 40.0198 10.3747 40.2728 9.65725 40.2955C9.34514 40.3043 10.014 39.6819 10.0376 39.6609L10.036 39.6595Z" fill="#3B7054"/>
<path d="M107.969 40.4478C107.262 40.5706 106.629 40.3946 105.968 40.1544C105.158 39.8584 104.566 39.3523 103.827 38.9756C103.813 38.9765 103.799 38.9774 103.784 38.9769C103.725 38.9775 103.696 38.9449 103.69 38.9059C103.687 38.9029 103.683 38.9013 103.678 38.8997C103.486 38.8781 103.295 38.8638 103.111 38.8496C103.42 39.427 103.699 40.0275 103.955 40.6373C104.359 40.7458 104.756 40.9273 105.138 41.1484C105.145 41.1486 105.146 41.1444 105.154 41.1461C107.121 41.3635 108.972 42.7655 109.54 44.5413C109.555 44.5864 109.527 44.6543 109.469 44.6636C108.599 44.8032 107.774 44.2194 107.105 43.7736C106.077 43.0861 105.426 42.1283 104.652 41.2134C104.453 41.104 104.255 40.996 104.055 40.8823C104.515 42.0051 104.909 43.1556 105.312 44.2476C105.58 44.3883 105.834 44.5558 106.079 44.7358C106.079 44.6913 106.125 44.6486 106.186 44.6738C107.857 45.3597 109.539 46.6734 109.903 48.4345C109.917 48.5053 109.86 48.585 109.774 48.5631C107.892 48.0675 106.544 46.7935 106.061 45.0194C105.846 44.852 105.629 44.6859 105.413 44.517C105.786 45.5217 106.138 46.5428 106.423 47.5772C106.857 47.862 107.211 48.2486 107.53 48.6655C108.709 49.5066 109.904 50.535 109.954 52.01C109.956 52.069 109.895 52.114 109.834 52.1003C108.478 51.8268 107.214 49.8224 107.17 48.5457C106.959 48.3009 106.736 48.0628 106.497 47.8413C106.68 48.5417 106.83 49.2465 106.928 49.9595C107.198 50.3386 107.399 50.7497 107.582 51.1715C107.607 51.1724 107.632 51.1805 107.651 51.2056C108.125 51.825 108.457 52.3802 108.722 53.0951C108.908 53.5946 109.163 54.1354 109.027 54.6702C109.012 54.727 108.941 54.7588 108.885 54.7294C107.706 54.1151 107.27 52.4246 107.478 51.2451C107.478 51.2451 107.479 51.2437 107.481 51.2423C107.4 51.0612 107.314 50.8843 107.214 50.7197C107.144 50.6065 107.062 50.503 106.982 50.398C107.021 50.7484 107.043 51.0995 107.054 51.4517C107.407 51.9388 107.452 52.7416 107.43 53.2878C107.403 53.9573 107.087 54.5485 106.405 54.7957C106.362 54.8113 106.311 54.7806 106.299 54.7414C105.944 53.6297 106.268 52.5234 106.903 51.5523C106.891 51.5044 106.88 51.4581 106.87 51.4118C106.863 51.3742 106.897 51.3338 106.935 51.3309C106.909 50.9308 106.868 50.533 106.81 50.1388C106.781 50.0861 106.755 50.032 106.734 49.9723C106.721 49.9316 106.74 49.9008 106.77 49.8832C106.758 49.8024 106.74 49.7213 106.727 49.6418C106.684 49.7838 106.626 49.9223 106.575 50.0467C106.551 50.1061 106.528 50.1642 106.503 50.2221C106.536 50.2262 106.571 50.2519 106.577 50.288C106.702 51.0522 106.423 51.6879 106.037 52.3396C105.88 52.605 105.403 53.5534 104.951 53.4503C104.41 53.3251 104.954 52.2329 105.005 51.9649C105.158 51.1536 105.365 49.997 106.422 49.8673C106.443 49.8652 106.455 49.8742 106.462 49.8874C106.49 49.8109 106.519 49.7331 106.542 49.655C106.59 49.5032 106.603 49.3486 106.646 49.198C106.484 48.3807 106.265 47.5756 106.01 46.7749C105.946 47.0094 105.799 47.2394 105.68 47.4273C105.643 47.4876 105.597 47.5434 105.555 47.6021C105.596 47.6079 105.636 47.6453 105.629 47.6924C105.503 48.7157 104.72 50.0776 103.62 50.4052C103.562 50.4218 103.513 50.3898 103.492 50.3416C103.057 49.3101 104.271 47.0729 105.616 47.2784C105.674 47.1729 105.726 47.0643 105.765 46.9481C105.832 46.7524 105.82 46.5496 105.87 46.3519C105.705 45.8575 105.525 45.3669 105.337 44.8774C105.262 44.6779 105.183 44.4782 105.106 44.28C105.103 44.277 105.1 44.2741 105.097 44.2711C105.073 44.253 105.07 44.2284 105.08 44.2087C105.012 44.0324 104.943 43.8575 104.875 43.6813C104.834 43.8247 104.764 43.9685 104.676 44.1103C104.684 44.1177 104.69 44.1237 104.695 44.1354C104.883 44.8015 104.274 45.6788 103.896 46.1959C103.457 46.7968 102.833 47.3778 102.058 47.554C102 47.5662 101.95 47.5313 101.944 47.4765C101.866 46.7399 102.329 45.9834 102.667 45.3457C103.057 44.6109 103.597 43.9865 104.517 43.9061C104.597 43.6766 104.633 43.4439 104.689 43.199C104.298 42.2037 103.893 41.2151 103.454 40.2423C103.439 40.4097 103.4 40.5791 103.347 40.7437C103.445 41.4265 103.235 42.2456 103.02 42.8593C102.759 43.6018 102.241 44.2371 101.41 44.437C101.359 44.448 101.296 44.4255 101.283 44.3733C100.952 42.9668 101.618 40.8582 103.251 40.3955C103.278 40.1927 103.276 39.993 103.246 39.7923C102.804 38.8496 102.325 37.9199 101.78 37.0135C101.738 36.9445 101.839 36.888 101.888 36.9501C102.315 37.4917 102.69 38.0758 103.027 38.6871C103.309 38.6977 103.614 38.7235 103.917 38.7708C104.685 38.6503 105.435 38.4789 106.181 38.8056C106.946 39.1402 107.506 39.6853 108.035 40.2909C108.077 40.3399 108.04 40.4332 107.972 40.445L107.969 40.4478ZM106.28 42.8998C106.81 43.4625 107.561 43.8812 108.259 44.2333C108.816 44.5156 109.444 44.6627 109.03 43.8531C108.78 43.3627 108.368 42.9567 107.946 42.5934C107.248 41.9929 106.397 41.6752 105.523 41.3926C106.223 41.8553 106.867 42.4251 107.419 42.9139C107.469 42.9589 107.396 43.0308 107.347 42.9873C106.627 42.3429 105.828 41.8692 105.006 41.4119C105.45 41.8923 105.829 42.4206 106.277 42.8997L106.28 42.8998ZM109.283 48.2145C110.21 48.545 108.674 46.6266 108.466 46.3948C107.873 45.7322 107.08 45.3908 106.335 44.9364C106.938 45.4199 107.484 45.9832 108.031 46.4847C108.085 46.5341 108.007 46.6159 107.949 46.5663C107.409 46.0895 106.85 45.6421 106.289 45.2003C106.921 46.5722 107.676 47.6415 109.282 48.213L109.283 48.2145ZM108.921 51.4098C109.152 51.6325 109.424 51.8006 109.735 51.8984C109.799 51.918 109.378 50.7278 109.293 50.5911C108.956 50.0544 108.447 49.6447 107.942 49.2395C108.197 49.6095 108.443 49.9791 108.708 50.3078C108.746 50.3551 108.664 50.4009 108.626 50.3564C108.188 49.8331 107.787 49.2825 107.351 48.7593C107.632 49.7476 108.155 50.6732 108.92 51.4112L108.921 51.4098ZM108.487 54.2679C108.881 54.6891 108.824 54.1169 108.754 53.8659C108.686 53.6265 108.589 53.3902 108.501 53.1572C108.339 52.7333 108.148 52.3658 107.936 52.0003C108.022 52.2131 108.096 52.4413 108.082 52.6246C108.082 52.6303 108.08 52.6374 108.072 52.6414C108.069 52.6442 108.066 52.6441 108.063 52.644C108.06 52.6467 108.058 52.6481 108.054 52.6465C108.047 52.6463 108.04 52.6417 108.036 52.6372C107.871 52.4372 107.81 52.0486 107.72 51.8199C107.685 51.731 107.648 51.6391 107.612 51.5487C107.632 52.5057 107.8 53.5286 108.488 54.2666L108.487 54.2679ZM106.377 53.1607C106.275 53.5417 106.288 53.9284 106.356 54.3114C106.441 54.7898 106.83 54.3924 106.986 54.18C107.464 53.5289 107.261 52.7962 107.055 52.0964C107.054 52.1753 107.053 52.2528 107.048 52.3316C107.048 52.3316 107.048 52.3316 107.05 52.3331C107.059 52.3665 107.068 52.3999 107.079 52.4319C107.082 52.4406 107.068 52.4415 107.065 52.4356C107.059 52.4167 107.052 52.3978 107.045 52.376C107.041 52.4735 107.037 52.571 107.031 52.6698C107.028 52.7113 106.96 52.7145 106.96 52.6729C106.97 52.3632 106.965 52.0557 106.952 51.7494C106.951 51.7422 106.948 51.7363 106.946 51.7276C106.757 52.2058 106.509 52.6603 106.376 53.1592L106.377 53.1607ZM105.166 52.0025C105.125 52.2364 105.044 52.4645 104.98 52.6933C104.892 53.0015 104.918 53.4706 105.293 53.0912C105.613 52.7644 105.838 52.3292 106.051 51.9352C106.181 51.696 106.297 51.4549 106.366 51.1933C106.434 50.9417 106.407 50.6808 106.422 50.4244C106.292 50.7411 106.161 51.0563 106.036 51.3718C106.024 51.4015 105.968 51.4023 105.97 51.365C105.998 50.9928 106.154 50.6512 106.299 50.3077C106.346 50.1918 106.393 50.0772 106.437 49.9612C105.482 50.2498 105.31 51.1823 105.166 51.9996L105.166 52.0025ZM103.634 49.6061C103.613 49.7158 103.559 50.2235 103.705 50.1801C104.111 50.0576 104.418 49.7116 104.653 49.3959C105.013 48.9098 105.14 48.3388 105.394 47.8157C105.16 48.1012 104.896 48.3655 104.657 48.6466C104.623 48.687 104.564 48.6331 104.596 48.5941C104.88 48.2415 105.19 47.9042 105.455 47.5394C105.491 47.4891 105.521 47.4357 105.552 47.3837C104.493 47.4416 103.802 48.7652 103.634 49.6061ZM102.675 45.7006C102.517 46.0062 102.375 46.3168 102.254 46.6367C102.223 46.7188 102.038 47.3896 102.151 47.3522C102.853 47.1287 103.399 46.496 103.798 45.9409C104.142 45.4642 104.262 44.9633 104.435 44.4515C104.17 44.7833 103.86 45.0846 103.668 45.2971C103.626 45.3444 103.553 45.2784 103.594 45.2312C103.867 44.9212 104.13 44.6109 104.348 44.2645C104.396 44.1902 104.432 44.1169 104.465 44.042C103.508 44.2042 103.069 44.9458 102.675 45.7006ZM101.644 42.3136C101.491 42.697 101.42 43.1064 101.396 43.5133C101.387 43.6838 101.403 43.8552 101.42 44.0224C101.457 44.3828 101.704 44.1523 101.893 44.0502C102.888 43.509 102.987 42.3828 103.069 41.3679C102.939 41.6042 102.789 41.8311 102.637 42.0451C102.606 42.0885 102.531 42.0541 102.559 42.0049C102.764 41.6422 102.962 41.2777 103.112 40.8942C103.123 40.7827 103.138 40.6756 103.153 40.5713C102.435 40.9909 101.952 41.5442 101.645 42.3151L101.644 42.3136ZM107.128 39.6595C106.774 39.3333 106.354 39.0921 105.89 38.9296C105.426 38.7657 104.971 38.8305 104.512 38.8994C104.917 39.0123 105.295 39.1801 105.584 39.4321C105.637 39.4772 105.562 39.5505 105.509 39.5083C105.119 39.1936 104.616 39.0411 104.096 38.9556C104.091 38.9568 104.088 38.9567 104.083 38.958C104.495 39.1787 104.866 39.4597 105.279 39.682C105.901 40.0198 106.789 40.2728 107.506 40.2955C107.818 40.3043 107.15 39.6819 107.126 39.6609L107.128 39.6595Z" fill="#3B7054"/>
<path d="M107.969 40.4478C107.262 40.5706 106.629 40.3946 105.968 40.1544C105.158 39.8584 104.566 39.3523 103.827 38.9756C103.813 38.9765 103.799 38.9774 103.784 38.9769C103.725 38.9775 103.696 38.9449 103.69 38.9059C103.687 38.9029 103.683 38.9013 103.678 38.8997C103.486 38.8781 103.295 38.8638 103.111 38.8496C103.42 39.427 103.699 40.0275 103.955 40.6373C104.359 40.7458 104.756 40.9273 105.138 41.1484C105.145 41.1486 105.146 41.1444 105.154 41.1461C107.121 41.3635 108.972 42.7655 109.54 44.5413C109.555 44.5864 109.527 44.6543 109.469 44.6636C108.599 44.8032 107.774 44.2194 107.105 43.7736C106.077 43.0861 105.426 42.1283 104.652 41.2134C104.453 41.104 104.255 40.996 104.055 40.8823C104.515 42.0051 104.909 43.1556 105.312 44.2476C105.58 44.3883 105.834 44.5558 106.079 44.7358C106.079 44.6913 106.125 44.6486 106.186 44.6738C107.857 45.3597 109.539 46.6734 109.903 48.4345C109.917 48.5053 109.86 48.585 109.774 48.5631C107.892 48.0675 106.544 46.7935 106.061 45.0194C105.846 44.852 105.629 44.6859 105.413 44.517C105.786 45.5217 106.138 46.5428 106.423 47.5772C106.857 47.862 107.211 48.2486 107.53 48.6655C108.709 49.5066 109.904 50.535 109.954 52.01C109.956 52.069 109.895 52.114 109.834 52.1003C108.478 51.8268 107.214 49.8224 107.17 48.5457C106.959 48.3009 106.736 48.0628 106.497 47.8413C106.68 48.5417 106.83 49.2465 106.928 49.9595C107.198 50.3386 107.399 50.7497 107.582 51.1715C107.607 51.1724 107.632 51.1805 107.651 51.2056C108.125 51.825 108.457 52.3802 108.722 53.0951C108.908 53.5946 109.163 54.1354 109.027 54.6702C109.012 54.727 108.941 54.7588 108.885 54.7294C107.706 54.1151 107.27 52.4246 107.478 51.2451C107.478 51.2451 107.479 51.2437 107.481 51.2423C107.4 51.0612 107.314 50.8843 107.214 50.7197C107.144 50.6065 107.062 50.503 106.982 50.398C107.021 50.7484 107.043 51.0995 107.054 51.4517C107.407 51.9388 107.452 52.7416 107.43 53.2878C107.403 53.9573 107.087 54.5485 106.405 54.7957C106.362 54.8113 106.311 54.7806 106.299 54.7414C105.944 53.6297 106.268 52.5234 106.903 51.5523C106.891 51.5044 106.88 51.4581 106.87 51.4118C106.863 51.3742 106.897 51.3338 106.935 51.3309C106.909 50.9308 106.868 50.533 106.81 50.1388C106.781 50.0861 106.755 50.032 106.734 49.9723C106.721 49.9316 106.74 49.9008 106.77 49.8832C106.758 49.8024 106.74 49.7213 106.727 49.6418C106.684 49.7838 106.626 49.9223 106.575 50.0467C106.551 50.1061 106.528 50.1642 106.503 50.2221C106.536 50.2262 106.571 50.2519 106.577 50.288C106.702 51.0522 106.423 51.6879 106.037 52.3396C105.88 52.605 105.403 53.5534 104.951 53.4503C104.41 53.3251 104.954 52.2329 105.005 51.9649C105.158 51.1536 105.365 49.997 106.422 49.8673C106.443 49.8652 106.455 49.8742 106.462 49.8874C106.49 49.8109 106.519 49.7331 106.542 49.655C106.59 49.5032 106.603 49.3486 106.646 49.198C106.484 48.3807 106.265 47.5756 106.01 46.7749C105.946 47.0094 105.799 47.2394 105.68 47.4273C105.643 47.4876 105.597 47.5434 105.555 47.6021C105.596 47.6079 105.636 47.6453 105.629 47.6924C105.503 48.7157 104.72 50.0776 103.62 50.4052C103.562 50.4218 103.513 50.3898 103.492 50.3416C103.057 49.3101 104.271 47.0729 105.616 47.2784C105.674 47.1729 105.726 47.0643 105.765 46.9481C105.832 46.7524 105.82 46.5496 105.87 46.3519C105.705 45.8575 105.525 45.3669 105.337 44.8774C105.262 44.6779 105.183 44.4782 105.106 44.28C105.103 44.277 105.1 44.2741 105.097 44.2711C105.073 44.253 105.07 44.2284 105.08 44.2087C105.012 44.0324 104.943 43.8575 104.875 43.6813C104.834 43.8247 104.764 43.9685 104.676 44.1103C104.684 44.1177 104.69 44.1237 104.695 44.1354C104.883 44.8015 104.274 45.6788 103.896 46.1959C103.457 46.7968 102.833 47.3778 102.058 47.554C102 47.5662 101.95 47.5313 101.944 47.4765C101.866 46.7399 102.329 45.9834 102.667 45.3457C103.057 44.6109 103.597 43.9865 104.517 43.9061C104.597 43.6766 104.633 43.4439 104.689 43.199C104.298 42.2037 103.893 41.2151 103.454 40.2423C103.439 40.4097 103.4 40.5791 103.347 40.7437C103.445 41.4265 103.235 42.2456 103.02 42.8593C102.759 43.6018 102.241 44.2371 101.41 44.437C101.359 44.448 101.296 44.4255 101.283 44.3733C100.952 42.9668 101.618 40.8582 103.251 40.3955C103.278 40.1927 103.276 39.993 103.246 39.7923C102.804 38.8496 102.325 37.9199 101.78 37.0135C101.738 36.9445 101.839 36.888 101.888 36.9501C102.315 37.4917 102.69 38.0758 103.027 38.6871C103.309 38.6977 103.614 38.7235 103.917 38.7708C104.685 38.6503 105.435 38.4789 106.181 38.8056C106.946 39.1402 107.506 39.6853 108.035 40.2909C108.077 40.3399 108.04 40.4332 107.972 40.445L107.969 40.4478ZM106.28 42.8998C106.81 43.4625 107.561 43.8812 108.259 44.2333C108.816 44.5156 109.444 44.6627 109.03 43.8531C108.78 43.3627 108.368 42.9567 107.946 42.5934C107.248 41.9929 106.397 41.6752 105.523 41.3926C106.223 41.8553 106.867 42.4251 107.419 42.9139C107.469 42.9589 107.396 43.0308 107.347 42.9873C106.627 42.3429 105.828 41.8692 105.006 41.4119C105.45 41.8923 105.829 42.4206 106.277 42.8997L106.28 42.8998ZM109.283 48.2145C110.21 48.545 108.674 46.6266 108.466 46.3948C107.873 45.7322 107.08 45.3908 106.335 44.9364C106.938 45.4199 107.484 45.9832 108.031 46.4847C108.085 46.5341 108.007 46.6159 107.949 46.5663C107.409 46.0895 106.85 45.6421 106.289 45.2003C106.921 46.5722 107.676 47.6415 109.282 48.213L109.283 48.2145ZM108.921 51.4098C109.152 51.6325 109.424 51.8006 109.735 51.8984C109.799 51.918 109.378 50.7278 109.293 50.5911C108.956 50.0544 108.447 49.6447 107.942 49.2395C108.197 49.6095 108.443 49.9791 108.708 50.3078C108.746 50.3551 108.664 50.4009 108.626 50.3564C108.188 49.8331 107.787 49.2825 107.351 48.7593C107.632 49.7476 108.155 50.6732 108.92 51.4112L108.921 51.4098ZM108.487 54.2679C108.881 54.6891 108.824 54.1169 108.754 53.8659C108.686 53.6265 108.589 53.3902 108.501 53.1572C108.339 52.7333 108.148 52.3658 107.936 52.0003C108.022 52.2131 108.096 52.4413 108.082 52.6246C108.082 52.6303 108.08 52.6374 108.072 52.6414C108.069 52.6442 108.066 52.6441 108.063 52.644C108.06 52.6467 108.058 52.6481 108.054 52.6465C108.047 52.6463 108.04 52.6417 108.036 52.6372C107.871 52.4372 107.81 52.0486 107.72 51.8199C107.685 51.731 107.648 51.6391 107.612 51.5487C107.632 52.5057 107.8 53.5286 108.488 54.2666L108.487 54.2679ZM106.377 53.1607C106.275 53.5417 106.288 53.9284 106.356 54.3114C106.441 54.7898 106.83 54.3924 106.986 54.18C107.464 53.5289 107.261 52.7962 107.055 52.0964C107.054 52.1753 107.053 52.2528 107.048 52.3316C107.048 52.3316 107.048 52.3316 107.05 52.3331C107.059 52.3665 107.068 52.3999 107.079 52.4319C107.082 52.4406 107.068 52.4415 107.065 52.4356C107.059 52.4167 107.052 52.3978 107.045 52.376C107.041 52.4735 107.037 52.571 107.031 52.6698C107.028 52.7113 106.96 52.7145 106.96 52.6729C106.97 52.3632 106.965 52.0557 106.952 51.7494C106.951 51.7422 106.948 51.7363 106.946 51.7276C106.757 52.2058 106.509 52.6603 106.376 53.1592L106.377 53.1607ZM105.166 52.0025C105.125 52.2364 105.044 52.4645 104.98 52.6933C104.892 53.0015 104.918 53.4706 105.293 53.0912C105.613 52.7644 105.838 52.3292 106.051 51.9352C106.181 51.696 106.297 51.4549 106.366 51.1933C106.434 50.9417 106.407 50.6808 106.422 50.4244C106.292 50.7411 106.161 51.0563 106.036 51.3718C106.024 51.4015 105.968 51.4023 105.97 51.365C105.998 50.9928 106.154 50.6512 106.299 50.3077C106.346 50.1918 106.393 50.0772 106.437 49.9612C105.482 50.2498 105.31 51.1823 105.166 51.9996L105.166 52.0025ZM103.634 49.6061C103.613 49.7158 103.559 50.2235 103.705 50.1801C104.111 50.0576 104.418 49.7116 104.653 49.3959C105.013 48.9098 105.14 48.3388 105.394 47.8157C105.16 48.1012 104.896 48.3655 104.657 48.6466C104.623 48.687 104.564 48.6331 104.596 48.5941C104.88 48.2415 105.19 47.9042 105.455 47.5394C105.491 47.4891 105.521 47.4357 105.552 47.3837C104.493 47.4416 103.802 48.7652 103.634 49.6061ZM102.675 45.7006C102.517 46.0062 102.375 46.3168 102.254 46.6367C102.223 46.7188 102.038 47.3896 102.151 47.3522C102.853 47.1287 103.399 46.496 103.798 45.9409C104.142 45.4642 104.262 44.9633 104.435 44.4515C104.17 44.7833 103.86 45.0846 103.668 45.2971C103.626 45.3444 103.553 45.2784 103.594 45.2312C103.867 44.9212 104.13 44.6109 104.348 44.2645C104.396 44.1902 104.432 44.1169 104.465 44.042C103.508 44.2042 103.069 44.9458 102.675 45.7006ZM101.644 42.3136C101.491 42.697 101.42 43.1064 101.396 43.5133C101.387 43.6838 101.403 43.8552 101.42 44.0224C101.457 44.3828 101.704 44.1523 101.893 44.0502C102.888 43.509 102.987 42.3828 103.069 41.3679C102.939 41.6042 102.789 41.8311 102.637 42.0451C102.606 42.0885 102.531 42.0541 102.559 42.0049C102.764 41.6422 102.962 41.2777 103.112 40.8942C103.123 40.7827 103.138 40.6756 103.153 40.5713C102.435 40.9909 101.952 41.5442 101.645 42.3151L101.644 42.3136ZM107.128 39.6595C106.774 39.3333 106.354 39.0921 105.89 38.9296C105.426 38.7657 104.971 38.8305 104.512 38.8994C104.917 39.0123 105.295 39.1801 105.584 39.4321C105.637 39.4772 105.562 39.5505 105.509 39.5083C105.119 39.1936 104.616 39.0411 104.096 38.9556C104.091 38.9568 104.088 38.9567 104.083 38.958C104.495 39.1787 104.866 39.4597 105.279 39.682C105.901 40.0198 106.789 40.2728 107.506 40.2955C107.818 40.3043 107.15 39.6819 107.126 39.6609L107.128 39.6595Z" fill="#3B7054"/>
<path d="M18.549 30.1695C18.5385 30.1587 18.5376 30.1473 18.546 30.1353C18.5503 30.1293 18.5581 30.1276 18.5697 30.1304C18.578 30.1313 18.5859 30.1361 18.5932 30.1449C18.8731 30.4948 19.0255 30.8631 19.0503 31.2499C19.0773 31.6338 18.9489 32.0276 18.6653 32.4315C18.4473 32.7419 18.1852 32.9777 17.8789 33.1386C17.5727 33.2996 17.2471 33.373 16.9021 33.3589C16.5571 33.3448 16.2216 33.2371 15.8956 33.036C15.5791 32.8407 15.3405 32.5855 15.1799 32.2704C15.0193 31.9553 14.9527 31.6183 14.9801 31.2594C15.0076 30.9005 15.1335 30.5613 15.3579 30.2418C15.5738 29.9344 15.818 29.7049 16.0906 29.5534C16.3632 29.402 16.6217 29.3282 16.8661 29.332C16.9514 29.6007 17.0408 29.8222 17.1341 29.9964C17.2295 30.1676 17.3396 30.337 17.4644 30.5047C17.479 30.5224 17.4805 30.5362 17.4689 30.5464C17.4541 30.5546 17.4416 30.5533 17.4311 30.5425C17.3208 30.4053 17.2138 30.2443 17.1101 30.0593C16.782 29.8612 16.4721 29.7651 16.1805 29.7709C15.891 29.7737 15.6192 29.956 15.3652 30.3176C15.2128 30.5346 15.1274 30.7714 15.109 31.0279C15.0896 31.2794 15.1557 31.534 15.3072 31.7917C15.4587 32.0493 15.7037 32.2826 16.0422 32.4914C16.3431 32.6771 16.6581 32.7979 16.9871 32.8541C17.3129 32.9082 17.6283 32.8782 17.9332 32.7639C18.2371 32.6447 18.5001 32.4268 18.7224 32.1103C18.9277 31.818 19.0167 31.5057 18.9895 31.1735C18.9612 30.8364 18.8143 30.5017 18.549 30.1695Z" fill="#3B7054"/>
<path d="M22.3821 27.985C22.119 28.2735 21.8197 28.4764 21.484 28.5936C21.1479 28.7059 20.8076 28.73 20.463 28.6659C20.1182 28.5969 19.8005 28.4461 19.5102 28.2135C19.2055 27.9694 18.9972 27.6824 18.8851 27.3525C18.7702 27.0203 18.7569 26.6776 18.8451 26.3245C18.9329 25.9663 19.1171 25.6334 19.3975 25.3259C19.6481 25.051 19.939 24.8601 20.2701 24.7534C20.6012 24.6466 20.938 24.6291 21.2804 24.7009C21.6253 24.7699 21.9415 24.9196 22.229 25.1498C22.502 25.3686 22.6987 25.6438 22.819 25.9756C22.9388 26.3024 22.9643 26.6454 22.8954 27.0046C22.8237 27.3616 22.6525 27.6884 22.3821 27.985ZM22.462 27.7665C22.6456 27.5651 22.7572 27.339 22.7969 27.0882C22.8361 26.8324 22.8043 26.5808 22.7015 26.3336C22.5957 26.0841 22.4279 25.8672 22.1979 25.683C21.9162 25.4574 21.5908 25.2933 21.2218 25.1907C20.8523 25.0831 20.491 25.0621 20.1377 25.1277C19.787 25.1905 19.495 25.3498 19.2617 25.6057C19.0731 25.8125 18.9605 26.0425 18.9237 26.2956C18.8865 26.5436 18.9206 26.7899 19.0259 27.0344C19.1309 27.2739 19.2984 27.4857 19.5283 27.6699C19.8158 27.9002 20.1442 28.0691 20.5137 28.1767C20.8828 28.2792 21.2414 28.3005 21.5897 28.2404C21.9404 28.1775 22.2312 28.0196 22.462 27.7665Z" fill="#3B7054"/>
<path d="M25.8766 21.3036L25.8805 21.3076C25.8935 21.3206 25.8958 21.3333 25.8873 21.3456C25.8762 21.3553 25.8627 21.3548 25.847 21.3442L25.3343 21.016C25.2238 20.9466 25.0661 20.9209 24.8611 20.9388C24.6562 20.9568 24.4418 21.0122 24.2181 21.1051C23.9943 21.1981 23.8006 21.316 23.6369 21.4589L23.1916 21.8477L24.4535 23.1172L24.7406 22.8665C24.8737 22.7502 25.001 22.6123 25.1222 22.4528C25.2462 22.2908 25.3 22.1755 25.2836 22.1069L25.1783 21.6646C25.1762 21.6469 25.178 21.6356 25.1835 21.6308C25.1918 21.6235 25.1999 21.6238 25.2077 21.6316C25.2182 21.637 25.2247 21.6461 25.2269 21.6587C25.2696 21.8947 25.3365 22.134 25.4274 22.3766C25.5257 22.6372 25.6165 22.8458 25.6997 23.0025C25.7095 23.028 25.7117 23.0432 25.7061 23.0481C25.6978 23.0554 25.687 23.0575 25.6736 23.0545C25.6631 23.0491 25.658 23.0413 25.6583 23.0313L25.5268 22.7582C25.5069 22.7121 25.4486 22.6899 25.3517 22.6915C25.2576 22.6907 25.1547 22.7123 25.0429 22.7562C24.9313 22.7951 24.8422 22.8436 24.7756 22.9018L24.4885 23.1525L25.2791 23.9479C25.4608 24.1308 25.6058 24.2506 25.714 24.3073C25.825 24.3617 25.9297 24.3679 26.0279 24.326C26.1262 24.2841 26.2613 24.1906 26.4331 24.0454C26.4414 24.0382 26.4497 24.0334 26.4578 24.0312C26.4687 24.0265 26.4755 24.0255 26.4781 24.0281C26.4885 24.0386 26.4825 24.0535 26.4604 24.0728C26.28 24.2303 26.1262 24.3597 25.999 24.4611C25.9575 24.4924 25.9035 24.5371 25.837 24.5952L25.554 24.8423C25.5068 24.8835 25.4707 24.9175 25.4455 24.9444C25.3619 25.0271 25.2563 25.1242 25.1287 25.2356C25.1148 25.2477 25.104 25.2499 25.0962 25.242C25.0858 25.2316 25.0876 25.2203 25.1015 25.2082C25.2209 25.099 25.2953 25.0096 25.3247 24.9401C25.354 24.8706 25.3382 24.7868 25.2771 24.6889C25.2188 24.5885 25.0988 24.4469 24.917 24.2641L23.3982 22.7359C23.2165 22.553 23.0742 22.4308 22.9716 22.3692C22.8717 22.3052 22.7837 22.2844 22.7076 22.307C22.6315 22.3295 22.5311 22.3927 22.4065 22.4967C22.3926 22.5088 22.3818 22.5109 22.374 22.5031C22.3636 22.4927 22.3653 22.4814 22.3792 22.4693C22.5068 22.3578 22.6176 22.266 22.7116 22.1937C22.7419 22.1721 22.7807 22.1407 22.8278 22.0995L24.0929 20.9949C24.3426 20.7768 24.4649 20.5871 24.4598 20.4256C24.4574 20.4179 24.459 20.4117 24.4645 20.4069C24.4701 20.402 24.4755 20.4022 24.4807 20.4074L25.8766 21.3036Z" fill="#3B7054"/>
<path d="M30.0117 18.3711L30.0152 18.3754C30.0268 18.3897 30.0277 18.4025 30.018 18.4139C30.006 18.4225 29.9927 18.4206 29.9781 18.4084L29.5021 18.0295C29.3994 17.9491 29.2453 17.9074 29.0398 17.9044C28.8343 17.9015 28.6156 17.9349 28.3838 18.0047C28.1519 18.0744 27.9474 18.1722 27.7701 18.2979L27.288 18.6398L28.4123 20.0326L28.7232 19.8121C28.8674 19.7099 29.0079 19.5854 29.1447 19.4389C29.2845 19.2902 29.3497 19.1808 29.3404 19.1108L29.2809 18.6595C29.2806 18.6417 29.2835 18.6306 29.2895 18.6264C29.2985 18.62 29.3065 18.6211 29.3135 18.6297C29.3234 18.6361 29.3288 18.6458 29.3298 18.6587C29.3482 18.898 29.3901 19.1431 29.4557 19.394C29.5268 19.6636 29.5957 19.8806 29.6624 20.0451C29.6696 20.0715 29.6702 20.0869 29.6641 20.0912C29.6551 20.0976 29.6442 20.0986 29.6312 20.0942C29.6213 20.0878 29.617 20.0795 29.6184 20.0696L29.5156 19.7842C29.5005 19.7363 29.4448 19.7082 29.3484 19.7C29.255 19.6896 29.1505 19.7006 29.0349 19.733C28.92 19.7604 28.8265 19.7997 28.7544 19.8508L28.4435 20.0713L29.1479 20.944C29.3099 21.1446 29.4417 21.2786 29.5435 21.3462C29.6482 21.4116 29.7516 21.4284 29.8535 21.3967C29.9554 21.365 30.0992 21.2855 30.2848 21.1584C30.2938 21.152 30.3024 21.1482 30.3108 21.1468C30.3221 21.1432 30.3289 21.1429 30.3312 21.1458C30.3405 21.1572 30.3331 21.1715 30.309 21.1885C30.1138 21.327 29.9477 21.4403 29.8109 21.5283C29.7665 21.5552 29.7083 21.5943 29.6362 21.6454L29.3298 21.8627C29.2787 21.899 29.2393 21.9292 29.2116 21.9533C29.1201 22.0272 29.0052 22.1132 28.867 22.2112C28.852 22.2218 28.841 22.2229 28.8341 22.2143C28.8248 22.2028 28.8277 22.1918 28.8427 22.1811C28.9726 22.0845 29.0557 22.0031 29.0919 21.9368C29.1282 21.8705 29.121 21.7855 29.0703 21.6817C29.0226 21.5759 28.9178 21.4226 28.7559 21.222L27.4025 19.5455C27.2406 19.3449 27.1118 19.2087 27.016 19.1369C26.9233 19.063 26.8379 19.0333 26.76 19.048C26.6821 19.0627 26.5759 19.1155 26.4414 19.2064C26.4264 19.217 26.4154 19.2181 26.4085 19.2095C26.3992 19.198 26.4021 19.187 26.4171 19.1763C26.5553 19.0783 26.6748 18.9981 26.7756 18.9356C26.8079 18.9172 26.8496 18.8899 26.9007 18.8536L28.2706 17.8821C28.541 17.6903 28.682 17.5138 28.6934 17.3524C28.6918 17.3446 28.694 17.3385 28.7 17.3343C28.706 17.33 28.7113 17.3307 28.716 17.3365L30.0117 18.3711Z" fill="#3B7054"/>
<path d="M35.1067 16.668C35.1021 16.6537 35.1072 16.6446 35.122 16.6406C35.1381 16.6316 35.1491 16.6319 35.155 16.6412L35.1874 16.8062C35.2526 17.1232 35.3149 17.3872 35.3741 17.5982C35.4314 17.8061 35.5129 18.0215 35.6189 18.2445C35.6235 18.2587 35.6154 18.2632 35.5947 18.2579C35.5389 18.2384 35.4535 18.2374 35.3385 18.2549C35.2234 18.2724 35.0918 18.3222 34.9436 18.4044L33.4023 19.2588C33.3475 19.2892 33.305 19.3148 33.2748 19.3358C33.1756 19.3992 33.052 19.4719 32.9038 19.5541C32.8877 19.563 32.8767 19.5628 32.8708 19.5534C32.8629 19.541 32.8671 19.5303 32.8832 19.5214C33.0229 19.4397 33.1146 19.3679 33.1581 19.3059C33.2016 19.2439 33.2042 19.1584 33.1658 19.0494C33.1306 18.9385 33.0443 18.7741 32.9067 18.556L31.7569 16.7339C31.6194 16.5159 31.5072 16.3657 31.4205 16.2834C31.3371 16.1994 31.2559 16.1603 31.177 16.1662C31.0981 16.1721 30.9868 16.2128 30.8431 16.2882C30.827 16.2971 30.816 16.2969 30.8101 16.2876C30.8022 16.2751 30.8064 16.2644 30.8225 16.2555C30.9706 16.1734 31.0982 16.1068 31.2052 16.0559C31.2394 16.0412 31.2839 16.0186 31.3386 15.9883L32.8027 15.1767C33.0926 15.016 33.2524 14.8559 33.2823 14.6964C33.2815 14.6884 33.2844 14.6826 33.2909 14.679C33.2973 14.6755 33.3025 14.6768 33.3064 14.683L34.4725 15.8592L34.4754 15.8639C34.4852 15.8794 34.4847 15.8924 34.4738 15.9026C34.4609 15.9098 34.4479 15.9064 34.4349 15.8926L34.0064 15.4617C33.9138 15.3701 33.7659 15.3112 33.5625 15.2852C33.3591 15.2592 33.1385 15.268 32.9008 15.3115C32.663 15.355 32.4491 15.4295 32.2591 15.5348L31.7421 15.8214L32.6058 17.1904L32.9972 16.9734C33.1518 16.8877 33.3053 16.7795 33.4576 16.6488C33.6132 16.5163 33.6903 16.4147 33.6891 16.3439L33.6817 15.8876C33.6835 15.8698 33.6876 15.8591 33.6941 15.8556C33.7037 15.8502 33.7115 15.8522 33.7174 15.8615C33.7265 15.8691 33.7308 15.8793 33.7303 15.8922C33.7211 16.1327 33.7347 16.3817 33.771 16.639C33.8107 16.9155 33.8542 17.1395 33.9015 17.3109C33.9056 17.338 33.9044 17.3534 33.898 17.357C33.8883 17.3623 33.8773 17.3621 33.865 17.3564C33.8558 17.3488 33.8525 17.3401 33.855 17.3303L33.7858 17.0345C33.7763 16.9851 33.7243 16.9508 33.6297 16.9318C33.5383 16.911 33.4335 16.9102 33.3152 16.9296C33.1982 16.944 33.1011 16.9726 33.0237 17.0154L32.6324 17.2324L33.7526 19.0078L34.3953 18.6516C34.5596 18.5605 34.7132 18.4354 34.8563 18.2762C34.9973 18.1139 35.1034 17.9479 35.1746 17.7781C35.249 17.6066 35.274 17.4602 35.2498 17.3391L35.1067 16.668Z" fill="#3B7054"/>
<path d="M40.7484 14.2519C40.7457 14.2372 40.7519 14.2287 40.7671 14.2265C40.7841 14.2196 40.795 14.2211 40.7996 14.2311L40.8106 14.3994C40.8347 14.7232 40.8626 14.9938 40.8943 15.2113C40.9244 15.4254 40.9776 15.6499 41.0539 15.885C41.0567 15.8998 41.0481 15.9032 41.0283 15.8954C40.9756 15.8692 40.8913 15.8577 40.7754 15.8612C40.6594 15.8646 40.5229 15.8982 40.366 15.962L38.7333 16.6255C38.6753 16.6491 38.63 16.6694 38.5974 16.6867C38.4914 16.7377 38.3598 16.7951 38.2029 16.8589C38.1858 16.8658 38.175 16.8643 38.1703 16.8543C38.1641 16.8409 38.1696 16.8307 38.1866 16.8238C38.3352 16.7595 38.435 16.6991 38.4859 16.6426C38.5368 16.5862 38.5502 16.5013 38.5262 16.388C38.5056 16.2733 38.4411 16.0989 38.3329 15.8649L37.4284 13.9094C37.3201 13.6754 37.2284 13.5122 37.1532 13.4196C37.0814 13.3257 37.0061 13.2769 36.9273 13.2732C36.8486 13.2694 36.7334 13.2964 36.5817 13.354C36.5646 13.361 36.5538 13.3594 36.5491 13.3494C36.543 13.336 36.5484 13.3259 36.5655 13.3189C36.7224 13.2552 36.857 13.2044 36.9693 13.1667C37.005 13.1562 37.0518 13.1392 37.1098 13.1156L38.6606 12.4854C38.9677 12.3606 39.1461 12.2206 39.1959 12.0654C39.1962 12.0573 39.1998 12.0519 39.2066 12.0491C39.2135 12.0463 39.2184 12.0483 39.2215 12.055L40.2245 13.3688L40.2268 13.3739C40.2345 13.3906 40.2323 13.4034 40.2202 13.4123C40.2066 13.4178 40.1942 13.4129 40.183 13.3976L39.8143 12.916C39.7345 12.8135 39.5957 12.7368 39.3979 12.6861C39.2002 12.6355 38.981 12.6173 38.7404 12.6317C38.4998 12.6461 38.2788 12.6942 38.0775 12.776L37.5299 12.9985L38.2095 14.4676L38.624 14.2992C38.7878 14.2326 38.9533 14.1435 39.1206 14.0319C39.2912 13.9188 39.3805 13.827 39.3883 13.7563L39.4391 13.3008C39.4431 13.2833 39.4485 13.2731 39.4554 13.2704C39.4656 13.2662 39.473 13.2691 39.4777 13.2792C39.4857 13.2878 39.4887 13.2985 39.4865 13.3113C39.4468 13.5498 39.4285 13.7995 39.4316 14.0603C39.4356 14.3406 39.4501 14.5691 39.475 14.7456C39.4756 14.7731 39.4725 14.7883 39.4656 14.7911C39.4554 14.7952 39.4446 14.7937 39.4331 14.7864C39.425 14.7778 39.4229 14.7688 39.4266 14.7593L39.3958 14.4561C39.3928 14.4057 39.3457 14.3653 39.2546 14.3348C39.1669 14.3029 39.0634 14.2894 38.944 14.2942C38.8265 14.2943 38.7268 14.311 38.6449 14.3443L38.2303 14.5128L39.1117 16.4181L39.7924 16.1415C39.9664 16.0708 40.1342 15.9649 40.2959 15.8237C40.4561 15.6792 40.5821 15.5267 40.6741 15.3662C40.7695 15.2044 40.8129 15.0616 40.8044 14.938L40.7484 14.2519Z" fill="#3B7054"/>
<path d="M52.4619 9.66528C52.5192 9.92419 52.4541 10.1581 52.2665 10.3671C52.0818 10.5718 51.8151 10.7381 51.4663 10.8659C51.5427 11.2112 51.5448 11.5614 51.4726 11.9168C51.4004 12.2722 51.2418 12.5862 50.9967 12.8589C50.7544 13.1273 50.4254 13.3019 50.0096 13.3827C49.63 13.4566 49.2739 13.4489 48.9412 13.3598C48.6113 13.2664 48.3285 13.0964 48.0929 12.8496C47.8601 12.5986 47.7011 12.2807 47.616 11.8959C47.5356 11.5327 47.5538 11.1803 47.6705 10.8388C47.7872 10.4973 47.9866 10.2054 48.2686 9.96303C48.5541 9.71996 48.8922 9.56047 49.2826 9.48455C49.522 9.44175 49.7527 9.45316 49.9746 9.51878C50.1957 9.5808 50.3848 9.69406 50.5419 9.85856C50.7018 10.0188 50.8076 10.2157 50.8594 10.4495C50.8968 10.6185 50.8966 10.7967 50.8589 10.984L50.8806 10.9798C51.4048 10.8779 51.7685 10.7153 51.9717 10.492C52.1786 10.268 52.2446 9.98696 52.1698 9.64893C52.1411 9.51947 52.0847 9.41792 52.0006 9.34427C51.9164 9.27062 51.8146 9.24539 51.6953 9.26859C51.529 9.30093 51.3992 9.37869 51.3058 9.50187C51.2124 9.62505 51.1848 9.77295 51.223 9.94556C51.2277 9.96713 51.2211 9.97968 51.203 9.98319C51.1885 9.98601 51.1789 9.97662 51.1742 9.95505C51.1336 9.77165 51.1642 9.61191 51.2661 9.47583C51.3679 9.33975 51.5074 9.25449 51.6846 9.22005C51.8111 9.19544 51.9292 9.20062 52.0387 9.23558C52.1519 9.26984 52.2455 9.32664 52.3197 9.406C52.393 9.48176 52.4404 9.56818 52.4619 9.66528ZM50.137 13.2173C50.5058 13.1456 50.7974 12.9895 51.0119 12.749C51.2301 12.5078 51.3704 12.2217 51.4329 11.8908C51.4954 11.5598 51.491 11.2249 51.4198 10.8862C51.2627 10.943 51.0865 10.9904 50.8913 11.0284L50.8425 11.0379C50.7947 11.2309 50.7052 11.4059 50.574 11.5627C50.4428 11.7194 50.283 11.8405 50.0945 11.926C50.1829 12.2913 50.3663 12.447 50.6446 12.3928C50.782 12.3661 50.8914 12.298 50.9727 12.1884C51.0569 12.0745 51.1063 11.9486 51.121 11.8107C51.1235 11.7878 51.1301 11.7752 51.141 11.7731C51.1482 11.7717 51.1548 11.776 51.1608 11.7861C51.166 11.7926 51.1684 11.8034 51.168 11.8185C51.1541 11.96 51.1004 12.0923 51.007 12.2155C50.9136 12.3387 50.7964 12.414 50.6554 12.4414C50.4565 12.4801 50.2783 12.4585 50.1207 12.3766C49.963 12.2947 49.8631 12.1754 49.8208 12.0186L49.7991 12.0228C49.5461 12.072 49.3267 12.0434 49.141 11.9369C48.9553 11.8305 48.8393 11.673 48.7932 11.4645C48.7621 11.3242 48.7678 11.1881 48.8103 11.0561C48.8527 10.924 48.9274 10.8101 49.0344 10.7143C49.1414 10.6185 49.2708 10.5558 49.4227 10.5263C49.589 10.4939 49.7425 10.5147 49.8833 10.5886C50.0241 10.6625 50.11 10.7696 50.1411 10.9098C50.1482 10.9422 50.153 10.9806 50.1553 11.0252L49.011 11.2477L49.0158 11.2693C49.0596 11.467 49.1498 11.6277 49.2865 11.7511C49.4232 11.8746 49.5943 11.9238 49.8 11.8988C49.7827 11.6846 49.8586 11.4992 50.0276 11.3426C50.2001 11.1853 50.4592 11.0693 50.8047 10.9946C50.8476 10.8137 50.8495 10.6352 50.8105 10.459C50.7612 10.236 50.6592 10.0477 50.5045 9.89397C50.3526 9.73596 50.1701 9.62704 49.957 9.5672C49.7431 9.50377 49.5219 9.4924 49.2934 9.53309C48.9897 9.59214 48.7329 9.70959 48.5229 9.88544C48.3158 10.057 48.1725 10.2874 48.0933 10.5766C48.014 10.8658 48.0181 11.2082 48.1057 11.6038C48.1805 11.9418 48.3083 12.247 48.4893 12.5194C48.6731 12.7875 48.9042 12.9882 49.1826 13.1216C49.4646 13.2543 49.7827 13.2862 50.137 13.2173ZM49.7487 11.0536C49.8427 11.0354 49.8797 10.9813 49.8598 10.8914C49.8352 10.7799 49.7859 10.6938 49.7122 10.6331C49.6384 10.5725 49.5401 10.5541 49.4171 10.578C49.3448 10.592 49.2737 10.6284 49.2037 10.687C49.1365 10.7413 49.0828 10.8137 49.0425 10.904C49.0049 10.9901 48.9927 11.0881 49.0057 11.1981L49.7487 11.0536ZM50.7883 11.0484C50.5167 11.1162 50.3246 11.2192 50.2118 11.3574C50.1028 11.4949 50.0579 11.6499 50.0772 11.8224C50.2508 11.7549 50.3998 11.6528 50.5241 11.5161C50.6485 11.3794 50.7365 11.2235 50.7883 11.0484Z" fill="#3B7054"/>
<path d="M59.0762 8.74309C59.6139 8.74595 60.0295 8.84393 60.323 9.03701C60.6201 9.23011 60.7676 9.51265 60.7653 9.88463C60.7635 10.1866 60.6276 10.429 60.3576 10.6117C60.0914 10.7908 59.6838 10.8788 59.1351 10.8759L58.2954 10.8714L58.2906 11.6614C58.2889 11.945 58.306 12.1495 58.3421 12.2749C58.3819 12.4004 58.4513 12.4836 58.5505 12.5246C58.6497 12.562 58.8117 12.5831 59.0363 12.588C59.0474 12.5881 59.0566 12.59 59.0639 12.5937C59.0749 12.5974 59.0804 12.6011 59.0804 12.6048C59.0803 12.6195 59.0655 12.6268 59.0361 12.6267C58.7967 12.6254 58.596 12.6206 58.434 12.6124C58.3824 12.6085 58.3125 12.6062 58.2241 12.6058L57.8484 12.6038C57.7858 12.6034 57.7361 12.605 57.6992 12.6085C57.5813 12.6152 57.4377 12.6182 57.2683 12.6173C57.2498 12.6172 57.2407 12.6116 57.2407 12.6005C57.2408 12.5858 57.2501 12.5785 57.2685 12.5786C57.4306 12.5758 57.5467 12.558 57.6169 12.5252C57.687 12.4924 57.7354 12.419 57.7618 12.305C57.792 12.191 57.8079 12.0051 57.8094 11.7473L57.8225 9.59273C57.824 9.33492 57.8104 9.14885 57.7817 9.03452C57.7566 8.92022 57.7091 8.8463 57.6394 8.81278C57.5696 8.77926 57.4537 8.76023 57.2917 8.75568C57.2732 8.75559 57.2641 8.75001 57.2641 8.73896C57.2642 8.72423 57.2735 8.71692 57.2919 8.71701C57.4613 8.71792 57.6049 8.72236 57.7227 8.73036C57.7595 8.73424 57.8093 8.73634 57.8719 8.73668L59.0762 8.74309ZM58.9586 10.8252C59.3858 10.8275 59.7013 10.7408 59.9049 10.5651C60.1085 10.3857 60.2112 10.1561 60.2129 9.87616C60.215 9.54101 60.1134 9.27713 59.9083 9.08452C59.7033 8.89191 59.3926 8.7945 58.9765 8.79228L58.3522 8.78895C58.3221 8.88824 58.3061 9.1073 58.304 9.44613L58.2957 10.8217L58.9586 10.8252Z" fill="#3B7054"/>
<path d="M64.42 12.9207C64.3578 12.9137 64.3082 12.91 64.2711 12.9095C64.1531 12.9037 64.0098 12.8913 63.8415 12.8723C63.8232 12.8703 63.8147 12.8638 63.8161 12.8528C63.818 12.8382 63.8281 12.8319 63.8464 12.834C64.0079 12.8484 64.1255 12.8431 64.1993 12.8181C64.273 12.793 64.3299 12.7253 64.37 12.6149C64.4138 12.5049 64.4521 12.3221 64.4848 12.0664L64.7574 9.93469C64.7901 9.67896 64.7991 9.49282 64.7843 9.37628C64.7732 9.26015 64.7349 9.18174 64.6696 9.14105C64.6043 9.10035 64.4913 9.06913 64.3307 9.04738C64.3124 9.04533 64.304 9.03882 64.3054 9.02786C64.3072 9.01325 64.3173 9.00697 64.3356 9.00902C64.504 9.02794 64.6463 9.04764 64.7625 9.0681C64.7986 9.07587 64.8478 9.08325 64.91 9.09024L65.2785 9.12609L65.4768 9.14282C65.6022 9.1495 65.7676 9.16253 65.973 9.18191C65.9987 9.18478 66.0105 9.19353 66.0087 9.20814C66.0073 9.2191 65.9938 9.22314 65.9681 9.22026C65.7774 9.20253 65.6375 9.2072 65.5487 9.23427C65.4603 9.25769 65.3924 9.32418 65.345 9.43373C65.2975 9.54328 65.2575 9.72592 65.2248 9.98165L64.8491 12.9189L65.5683 12.9997C65.7513 13.0202 65.9433 12.9992 66.1444 12.9366C66.3491 12.8743 66.531 12.7873 66.6901 12.6755C66.8492 12.5637 66.9584 12.4499 67.0177 12.3343L67.4103 11.5724C67.4159 11.5582 67.4257 11.5538 67.4399 11.5591C67.4582 11.5611 67.4666 11.5676 67.4652 11.5786L67.3618 11.7782C67.1851 12.1141 67.0404 12.4036 66.9277 12.6466C66.8149 12.8896 66.7305 13.1284 66.6745 13.363C66.669 13.3772 66.6599 13.3762 66.6471 13.3599C66.6161 13.312 66.5501 13.2619 66.4491 13.2098C66.3481 13.1577 66.2134 13.1222 66.0451 13.1033L64.42 12.9207Z" fill="#3B7054"/>
<path d="M72.1446 14.2864C72.159 14.2895 72.1644 14.2982 72.1609 14.3125C72.1582 14.3232 72.1497 14.327 72.1353 14.3239C72.0165 14.2982 71.9112 14.2716 71.8194 14.2441C71.7951 14.2351 71.7577 14.2251 71.7073 14.2142L71.2862 14.1229C71.2034 14.105 71.1382 14.0927 71.0905 14.0861C70.9376 14.0605 70.7513 14.0239 70.5318 13.9763C70.5066 13.9709 70.4953 13.9628 70.4979 13.952C70.5015 13.9377 70.5158 13.9333 70.541 13.9388C70.7291 13.9758 70.8702 13.98 70.9645 13.9515C71.0596 13.9194 71.1204 13.8497 71.1469 13.7424C71.1734 13.6351 71.1676 13.4662 71.1297 13.2358L71.0589 12.8079L70.2437 12.6312L69.315 12.4299L69.0603 12.7476C68.9682 12.8595 68.9076 12.9745 68.8785 13.0925C68.8441 13.2319 68.8654 13.3533 68.9423 13.4566C69.0191 13.5599 69.1507 13.6336 69.337 13.6778C69.3586 13.6825 69.3677 13.692 69.3641 13.7063C69.3615 13.717 69.3494 13.72 69.3278 13.7153C69.1226 13.6709 68.9201 13.6232 68.7203 13.5724C68.6564 13.5547 68.5776 13.5358 68.4841 13.5155C68.4337 13.5046 68.3918 13.4974 68.3586 13.4939C68.2488 13.4777 68.1471 13.4594 68.0536 13.4391C68.0428 13.4368 68.0387 13.4303 68.0413 13.4195C68.0449 13.4052 68.052 13.3992 68.0628 13.4016C68.2977 13.4487 68.6122 13.2268 69.0063 12.7359L70.6969 10.6331L70.6177 10.1469C70.6132 10.1347 70.6168 10.1279 70.6284 10.1267C70.8468 10.1024 70.9926 10.0493 71.0659 9.96722C71.074 9.9652 71.0794 9.96637 71.0821 9.97073L71.6372 13.3458C71.6752 13.5763 71.7115 13.7518 71.7462 13.8723C71.7845 13.9936 71.8335 14.0871 71.8931 14.1528C71.9528 14.2184 72.0366 14.263 72.1446 14.2864ZM70.2556 12.5829L71.0493 12.755L70.7093 10.6979L69.3485 12.3863L70.2556 12.5829Z" fill="#3B7054"/>
<path d="M79.5276 12.6937C79.545 12.6998 79.551 12.7096 79.5455 12.7233C79.5414 12.7336 79.5307 12.7357 79.5133 12.7296C79.3256 12.6638 79.151 12.6844 78.9894 12.7915C78.8312 12.8999 78.7064 13.0686 78.615 13.2978L77.501 16.0891C77.4969 16.0993 77.4897 16.1026 77.4792 16.099C77.4674 16.0988 77.4601 16.0923 77.4573 16.0796L75.8932 11.9575L74.9942 14.21C74.8932 14.4631 74.861 14.6877 74.8977 14.8839C74.9391 15.0778 75.053 15.2093 75.2393 15.2786C75.2567 15.2846 75.2627 15.2945 75.2572 15.3082C75.2531 15.3185 75.2424 15.3206 75.225 15.3145C75.079 15.2633 74.9344 15.2087 74.7912 15.1507C74.7439 15.1302 74.6855 15.1078 74.616 15.0834C74.5499 15.0602 74.4919 15.0418 74.4419 15.0282C74.2932 14.9839 74.1458 14.9361 73.9999 14.8849C73.986 14.88 73.9811 14.8725 73.9852 14.8622C73.9906 14.8485 74.0003 14.8441 74.0142 14.849C74.2032 14.9114 74.3768 14.8884 74.535 14.7801C74.6966 14.673 74.8224 14.5065 74.9125 14.2808L75.6477 12.4387C75.7637 12.148 75.8324 11.9362 75.8537 11.8033C75.8799 11.6682 75.8675 11.5702 75.8165 11.5094C75.7654 11.4487 75.6642 11.3898 75.5126 11.3327C75.4952 11.3266 75.4893 11.3167 75.4947 11.3031C75.5015 11.2859 75.5136 11.2804 75.531 11.2865C75.6353 11.3231 75.7688 11.3758 75.9315 11.4445L76.0702 11.499L76.2788 11.5721L77.7223 15.4005L78.5333 13.3686C78.6343 13.1155 78.664 12.8919 78.6226 12.698C78.5859 12.5019 78.4745 12.3693 78.2882 12.3C78.2743 12.2952 78.2694 12.2876 78.2734 12.2773C78.2789 12.2636 78.2886 12.2592 78.3025 12.2641C78.4485 12.3153 78.5931 12.3699 78.7363 12.4279C78.7836 12.4484 78.842 12.4708 78.9115 12.4952C78.9776 12.5183 79.0356 12.5367 79.0856 12.5504C79.2343 12.5947 79.3817 12.6425 79.5276 12.6937Z" fill="#3B7054"/>
<path d="M84.5194 16.743L84.5167 16.7478C84.5095 16.7607 84.4984 16.7655 84.4834 16.7622C84.4702 16.7557 84.4655 16.7452 84.4694 16.7307L84.6876 16.0696C84.7256 15.9489 84.7105 15.8063 84.6425 15.6417C84.5744 15.4771 84.479 15.3237 84.3564 15.1814C84.2355 15.0359 84.1271 14.9396 84.0312 14.8925L83.7833 14.7707L82.3376 17.3549C82.2117 17.5799 82.1374 17.7504 82.1147 17.8662C82.0921 17.9821 82.1123 18.074 82.1754 18.142C82.2419 18.2115 82.3684 18.2942 82.555 18.39C82.5781 18.4014 82.5861 18.4135 82.5789 18.4263C82.5735 18.436 82.5593 18.4351 82.5361 18.4237C82.3345 18.3246 82.1694 18.2394 82.0408 18.168C81.9996 18.1436 81.9426 18.1136 81.8699 18.0779L81.5377 17.9146C81.465 17.8788 81.4063 17.852 81.3615 17.8341C81.2257 17.7756 81.057 17.6967 80.8554 17.5976C80.8322 17.5863 80.8233 17.5758 80.8287 17.5661C80.8359 17.5533 80.8511 17.5525 80.8742 17.5639C81.0644 17.6533 81.2073 17.703 81.3028 17.7131C81.4016 17.7248 81.4954 17.6889 81.5842 17.6055C81.673 17.5221 81.7804 17.3679 81.9062 17.1429L83.352 14.5587L83.1041 14.4368C83.0082 14.3897 82.8621 14.3609 82.6657 14.3505C82.471 14.3368 82.2822 14.3505 82.099 14.3916C81.9159 14.4327 81.7822 14.5022 81.6979 14.6001L81.2417 15.1443C81.2312 15.1556 81.2186 15.1555 81.2039 15.1442C81.1925 15.1345 81.192 15.124 81.2025 15.1127L82.3227 13.7885C82.3331 13.7772 82.3414 13.7813 82.3474 13.8006C82.368 13.8845 82.419 13.9628 82.5004 14.0357C82.5852 14.1101 82.7086 14.1871 82.8705 14.2667L84.3133 14.9759C84.4753 15.0555 84.6114 15.106 84.7216 15.1274C84.8352 15.1504 84.9346 15.146 85.0198 15.1141C85.0402 15.1077 85.0485 15.1118 85.0446 15.1263L84.5194 16.743Z" fill="#3B7054"/>
<path d="M87.6905 18.8616C87.8432 19.0895 87.9541 19.2778 88.0234 19.4265C88.098 19.5743 88.134 19.7345 88.1315 19.9071C88.1289 20.0798 88.0596 20.2601 87.9234 20.448C87.7981 20.621 87.6309 20.739 87.4218 20.802C87.218 20.864 86.9958 20.873 86.7554 20.8289C86.515 20.7848 86.2844 20.6925 86.0638 20.5521C85.9116 20.4552 85.7706 20.324 85.6408 20.1585C85.514 19.9951 85.4158 19.8236 85.3461 19.6441C85.2764 19.4647 85.2466 19.3084 85.2567 19.1754L86.4203 18.7067C86.4395 18.6928 86.4537 18.6888 86.463 18.6947C86.4693 18.6987 86.4707 18.7061 86.4673 18.717C86.4692 18.727 86.4664 18.7339 86.459 18.7379L85.9573 18.9415C85.8243 19.1314 85.7347 19.3271 85.6885 19.5287C85.6454 19.7323 85.6567 19.9203 85.7224 20.0929C85.7881 20.2654 85.9116 20.405 86.093 20.5118C86.702 20.8995 87.1772 20.8577 87.5186 20.3864C87.5986 20.2761 87.6399 20.1564 87.6426 20.0274C87.6453 19.8983 87.604 19.7392 87.5187 19.5498C87.4366 19.3624 87.2982 19.1305 87.1035 18.854C86.9282 18.6073 86.8215 18.3629 86.7835 18.1208C86.7487 17.8807 86.8079 17.6548 86.9614 17.4431C87.0716 17.291 87.2091 17.1889 87.3739 17.1369C87.5439 17.0839 87.7225 17.0756 87.9096 17.1119C88.0998 17.1501 88.2803 17.2236 88.4512 17.3324C88.7308 17.5104 88.938 17.7164 89.0727 17.9503C89.2126 18.1832 89.2761 18.4088 89.2632 18.6272C88.9707 18.7113 88.753 18.7862 88.61 18.852C88.4669 18.9179 88.3119 19.0066 88.1448 19.1181C88.1256 19.132 88.1109 19.1336 88.1006 19.1227C88.0925 19.1088 88.0943 19.0969 88.1061 19.0869C88.2583 18.9834 88.4118 18.8937 88.5666 18.8179C88.7518 18.5435 88.8433 18.2793 88.8413 18.0253C88.8414 17.7682 88.7016 17.5507 88.422 17.3727C88.2045 17.2342 87.9944 17.1702 87.7917 17.1806C87.5942 17.19 87.436 17.2767 87.3172 17.4407C87.1227 17.7092 87.1998 18.1134 87.5485 18.6535L87.6905 18.8616Z" fill="#3B7054"/>
<path d="M92.7373 25.4662C92.7515 25.4779 92.7535 25.4892 92.7434 25.4999C92.7359 25.508 92.725 25.5061 92.7108 25.4944C92.5801 25.3866 92.4718 25.2925 92.3859 25.2122C92.36 25.1861 92.3229 25.1531 92.2746 25.1133L91.972 24.8637C91.9237 24.8239 91.8841 24.7936 91.8532 24.7728C91.7572 24.7032 91.6439 24.6145 91.5131 24.5067C91.4989 24.495 91.4956 24.4851 91.5032 24.477C91.5133 24.4663 91.5254 24.4668 91.5396 24.4785C91.6672 24.5789 91.7693 24.6393 91.8459 24.6597C91.9226 24.68 92.01 24.6568 92.108 24.5899C92.2089 24.5255 92.3475 24.3992 92.524 24.2113L93.4125 23.2647L92.5388 22.5441L91.6225 21.7884L90.7339 22.735C90.5575 22.9229 90.4401 23.0667 90.3819 23.1664C90.3265 23.2684 90.3144 23.3537 90.3457 23.4224C90.377 23.4911 90.4539 23.5783 90.5764 23.6841C90.5906 23.6958 90.5927 23.7071 90.5826 23.7178C90.575 23.7259 90.5641 23.724 90.5499 23.7123C90.4192 23.6045 90.3109 23.5104 90.225 23.4301C90.1992 23.404 90.1621 23.371 90.1138 23.3311L89.8111 23.0816C89.7628 23.0417 89.7232 23.0115 89.6923 22.9907C89.5963 22.9211 89.483 22.8324 89.3523 22.7246C89.3381 22.7129 89.3348 22.703 89.3423 22.6949C89.3524 22.6842 89.3645 22.6847 89.3788 22.6964C89.5063 22.7968 89.6084 22.8572 89.6851 22.8776C89.7617 22.8979 89.8491 22.8747 89.9471 22.8078C90.048 22.7433 90.1867 22.6171 90.3631 22.4291L91.8378 20.8583C92.0142 20.6703 92.1301 20.5253 92.1856 20.4233C92.2438 20.3237 92.2573 20.2395 92.226 20.1708C92.1947 20.1022 92.1178 20.0149 91.9953 19.9091C91.9811 19.8974 91.9778 19.8875 91.9853 19.8795C91.9954 19.8687 92.0075 19.8692 92.0218 19.8809C92.1525 19.9887 92.2607 20.0828 92.3466 20.1632C92.3725 20.1893 92.4096 20.2222 92.4579 20.2621L92.7605 20.5117C92.8088 20.5515 92.8485 20.5818 92.8794 20.6025C92.9754 20.6721 93.0887 20.7609 93.2194 20.8686C93.2336 20.8804 93.2357 20.8916 93.2256 20.9023C93.218 20.9104 93.2071 20.9086 93.1929 20.8968C93.0654 20.7964 92.9633 20.736 92.8866 20.7157C92.8099 20.6953 92.7212 20.7174 92.6203 20.7819C92.5223 20.8487 92.385 20.9761 92.2086 21.1641L91.6565 21.7522L92.5686 22.5044L93.4466 23.2285L93.9986 22.6404C94.1751 22.4524 94.291 22.3074 94.3464 22.2055C94.4047 22.1058 94.4181 22.0216 94.3868 21.953C94.3555 21.8843 94.2787 21.797 94.1562 21.6912C94.1419 21.6795 94.1386 21.6696 94.1462 21.6616C94.1563 21.6508 94.1684 21.6513 94.1826 21.663C94.3133 21.7708 94.4216 21.8649 94.5075 21.9453C94.5334 21.9714 94.5705 22.0044 94.6188 22.0442L94.9214 22.2938C94.9697 22.3336 95.0093 22.3639 95.0403 22.3846C95.1362 22.4543 95.2496 22.543 95.3803 22.6508C95.3945 22.6625 95.3965 22.6737 95.3864 22.6844C95.3789 22.6925 95.368 22.6907 95.3538 22.6789C95.2262 22.5785 95.1241 22.5181 95.0475 22.4978C94.9708 22.4774 94.882 22.4995 94.7811 22.564C94.6831 22.6308 94.5459 22.7582 94.3694 22.9462L92.8948 24.5171C92.7183 24.705 92.601 24.8488 92.5427 24.9485C92.4873 25.0505 92.4753 25.1358 92.5066 25.2045C92.5379 25.2732 92.6148 25.3604 92.7373 25.4662Z" fill="#3B7054"/>
<path d="M95.4649 28.3986C95.1986 28.1131 95.028 27.8063 94.953 27.4781C94.8833 27.1502 94.9074 26.8311 95.025 26.5208C95.148 26.2109 95.3534 25.938 95.6411 25.7022C95.943 25.4547 96.2763 25.3028 96.6408 25.2463C97.0083 25.1876 97.372 25.2245 97.732 25.3571C98.0973 25.4901 98.4219 25.7088 98.7058 26.0131C98.9596 26.2851 99.1188 26.5823 99.1834 26.9048C99.248 27.2273 99.2175 27.5421 99.092 27.8494C98.969 28.1593 98.765 28.431 98.4802 28.6645C98.2096 28.8863 97.8904 29.0291 97.5227 29.0929C97.1603 29.1571 96.7945 29.1313 96.4253 29.0158C96.0589 28.8979 95.7388 28.6921 95.4649 28.3986ZM95.684 28.5041C95.87 28.7034 96.0924 28.8395 96.3514 28.9124C96.6157 28.9856 96.8859 28.9923 97.1618 28.9324C97.4406 28.8703 97.6939 28.7458 97.9218 28.559C98.201 28.3302 98.4215 28.052 98.5834 27.7245C98.7506 27.3973 98.8253 27.0652 98.8075 26.7282C98.7921 26.3938 98.6664 26.1001 98.4302 25.847C98.2393 25.6423 98.0129 25.5047 97.751 25.4342C97.4946 25.364 97.2296 25.3602 96.9562 25.4227C96.6881 25.4856 96.4402 25.6104 96.2123 25.7972C95.9274 26.0307 95.7014 26.311 95.5341 26.6382C95.3722 26.9657 95.2977 27.2953 95.3105 27.627C95.3259 27.9613 95.4504 28.2537 95.684 28.5041Z" fill="#3B7054"/>
<path d="M102.369 30.6953C102.68 31.1335 102.84 31.5234 102.848 31.865C102.859 32.2096 102.706 32.4804 102.391 32.6775C102.135 32.8375 101.851 32.8567 101.539 32.7352C101.232 32.6147 100.92 32.3308 100.602 31.8835L100.115 31.1992L99.445 31.6177C99.2045 31.7679 99.0418 31.8912 98.9569 31.9876C98.8742 32.087 98.8444 32.1879 98.8677 32.2904C98.8941 32.391 98.9708 32.5338 99.0979 32.7188C99.1043 32.7278 99.1081 32.7363 99.1092 32.7443C99.1125 32.7552 99.1126 32.7617 99.1094 32.7636C99.0969 32.7714 99.0822 32.7633 99.0651 32.7393C98.9264 32.5442 98.8132 32.3787 98.7255 32.2427C98.6988 32.1987 98.6598 32.1407 98.6086 32.0687L98.3909 31.7625C98.3546 31.7115 98.3242 31.6719 98.2997 31.6439C98.2252 31.5517 98.1388 31.4366 98.0407 31.2985C98.03 31.2835 98.0293 31.2731 98.0387 31.2672C98.0512 31.2594 98.0628 31.263 98.0735 31.278C98.1705 31.4081 98.2533 31.4929 98.322 31.5324C98.3907 31.5719 98.4809 31.5719 98.5927 31.5324C98.7066 31.4959 98.8729 31.4094 99.0915 31.2728L100.919 30.1314C101.138 29.9948 101.287 29.8842 101.366 29.7997C101.448 29.7182 101.483 29.6402 101.471 29.5656C101.458 29.491 101.407 29.3867 101.316 29.2527C101.305 29.2377 101.305 29.2272 101.314 29.2214C101.326 29.2136 101.338 29.2172 101.349 29.2322C101.447 29.3703 101.527 29.4893 101.589 29.5892C101.607 29.6212 101.634 29.6627 101.671 29.7137L102.369 30.6953ZM100.541 31.7131C100.789 32.0613 101.046 32.2711 101.314 32.3425C101.584 32.412 101.838 32.3726 102.075 32.2243C102.36 32.0468 102.523 31.8232 102.566 31.5537C102.609 31.2841 102.51 30.9797 102.269 30.6405L101.907 30.1318C101.806 30.1604 101.611 30.2645 101.324 30.444L100.157 31.1728L100.541 31.7131Z" fill="#3B7054"/>
</svg>
