<svg width="340" height="519" viewBox="0 0 340 519" fill="none" xmlns="http://www.w3.org/2000/svg">
<path d="M135.274 48.7746C135.274 48.7746 135.185 48.9771 135.115 49.0672L135.06 49.1937C133.195 52.2083 131.665 55.4906 130.537 58.8887C130.393 59.2177 130.238 59.572 130.144 59.9232C130.111 59.9991 130.139 60.072 130.156 60.1701C124.76 68.486 120.216 77.2663 115.538 86.0781C115.509 86.0052 115.542 85.9293 115.503 85.8818C116.192 83.3473 116.616 80.7272 115.851 78.5508C115.987 77.8262 116.152 77.1744 116.203 76.7139C116.513 74.013 116.86 71.0873 115.862 68.4771C115.507 67.567 114.323 67.6515 113.917 68.4392C110.282 75.3545 109.986 84.2174 111.15 91.8186C111.225 92.3345 111.527 92.6782 111.881 92.8336C108.424 98.8613 104.616 104.585 100.683 110.253C102.221 106.401 103.317 102.386 103.607 98.0773C103.681 97.0836 102.8 96.5464 102.021 96.8085C101.45 96.5279 100.71 96.5653 100.208 97.1599C96.6897 101.26 95.3369 106.823 94.7265 112.138C94.3533 113.815 94.0023 115.441 93.6624 117.042C93.4893 117.781 94.0394 118.384 94.6943 118.611C94.6388 118.738 94.5581 118.853 94.4915 119.005C92.4463 121.88 90.4263 124.767 88.4317 127.664C89.913 123.666 90.5177 119.465 89.3025 115.493C89.0231 114.616 87.8443 114.552 87.2947 115.186C82.1009 121.388 81.0602 130.437 80.1392 138.18C80.0802 138.728 80.2983 139.125 80.6446 139.367C77.6707 143.948 74.6825 148.491 71.6833 153.061C72.4997 147.414 71.8037 141.224 70.3181 137.042C70.0307 136.252 69.0277 135.994 68.3595 136.485C60.8497 141.913 62.2342 155.616 63.5253 163.545C63.5835 163.963 63.846 164.259 64.1528 164.454C61.3231 168.705 58.4793 172.92 55.599 177.149C55.6101 177.124 55.6323 177.073 55.6434 177.048C55.7544 176.795 55.7308 176.573 55.6456 176.355C56.392 173.001 56.5293 169.591 55.7026 166.452C55.4597 165.561 54.1037 165.419 53.6078 166.137C50.8132 170.102 48.7429 174.686 47.7088 179.453C47.056 182.456 46.2283 186.408 46.9409 189.738C43.6282 194.472 40.2901 199.194 36.9379 203.88C37.6965 197.332 36.9066 188.054 36.6076 186.052C36.5085 185.315 35.4978 184.66 34.8359 185.275C29.689 190.2 29.6344 198.927 29.9984 206.631C29.7021 209.096 29.5038 211.544 29.4797 214.008C28.2979 215.602 27.1414 217.207 25.9597 218.801C10.8962 238.841 -4.5927 258.544 -20.3267 278.048C-26.4371 282.762 -32.5191 287.549 -38.4208 292.475C-71.4333 320.004 -104.409 350.959 -128.668 386.671C-129.128 387.375 -128.212 388.109 -127.637 387.486C-97.0645 354.028 -67.946 320.446 -32.5146 291.805C-31.5756 291.04 -30.586 290.297 -29.6581 289.557C-32.2574 292.733 -34.8203 295.894 -37.3944 299.08C-59.3357 325.791 -83.5035 350.56 -105.344 377.315C-106.147 378.32 -104.682 379.385 -103.797 378.536C-73.24 348.693 -45.0495 315.851 -18.2444 282.039C-4.59949 274.594 9.30257 268.076 24.195 263.773C24.56 264.386 25.7388 264.45 26.0829 263.666C26.1494 263.514 26.2525 263.348 26.319 263.196C26.5881 263.133 26.8319 263.059 27.1009 262.995C28.6359 263.005 30.2848 262.822 31.9751 262.477C32.3499 262.792 32.7105 263.071 33.0963 263.361C38.6942 270.07 50.566 273.345 58.7044 271.3C59.3882 271.117 59.5044 270.233 59.1567 269.718C55.3479 263.884 47.9237 261.202 40.6534 260.096C49.4655 258.649 58.239 257.91 67.0343 257.602C66.9011 257.906 66.9341 258.312 67.1459 258.586C68.1859 260.068 69.5726 261.31 71.0988 262.371C75.6934 267.102 81.8002 270.655 88.4604 270.95C88.9683 270.961 89.5636 270.498 89.2745 269.919C88.5888 268.592 87.6848 267.351 86.7221 266.174C86.8663 265.845 86.884 265.461 86.6611 265.212C83.2907 261.199 77.9947 258.757 72.8561 257.469C78.9279 257.385 85.0454 257.473 91.1692 257.683C96.1855 265.375 109.611 265.106 117.336 262.971C117.995 262.777 118.083 261.82 117.556 261.438C116.373 260.557 115.098 259.817 113.765 259.142C114.031 259.017 114.286 258.918 114.552 258.793C115.274 258.385 114.937 257.363 114.352 257.046C108.323 253.798 100.836 254.288 94.1863 254.45C93.5691 254.481 93.5906 255.396 94.1775 255.502C94.7645 255.609 95.3626 255.69 95.9607 255.771C95.2454 255.819 94.5413 255.843 93.8655 255.939C93.8402 255.927 93.7926 255.967 93.7562 255.981C93.0094 255.895 92.2262 255.823 91.4794 255.737C91.2343 255.539 90.9478 255.504 90.6961 255.665C86.2942 255.244 81.8146 255 77.3159 254.868C81.0894 253.626 84.52 251.72 86.9098 249.298C87.4626 248.725 86.9253 247.886 86.2987 247.732C77.1684 245.57 67.9779 249.325 59.4826 252.39C58.8748 252.606 58.6875 253.308 58.85 253.832C58.6316 253.918 58.4131 254.003 58.1835 254.113C57.7466 254.284 57.8853 255.069 58.387 254.957C58.827 254.848 59.2417 254.728 59.6817 254.619C59.604 254.797 59.6497 254.968 59.7208 255.15C54.9828 255.426 50.2574 255.949 45.5492 256.57C49.6435 253.839 53.0025 250.514 54.5766 247.13C54.7875 246.65 54.47 245.997 53.9225 245.938C44.3656 244.886 29.8055 251.115 25.1044 260.46C13.6565 263.377 2.56201 267.414 -7.76282 272.724C18.9834 252.948 47.1302 234.933 76.4397 219.36C83.7916 215.462 91.2257 211.721 98.7641 208.086C98.8507 208.576 99.523 208.901 99.8573 208.414C100.169 207.978 100.47 207.566 100.746 207.144C106.885 204.223 113.052 201.375 119.274 198.611C119.327 198.695 119.392 198.754 119.446 198.838C118.814 198.832 118.235 199.604 118.745 200.16C125.932 208.2 141.795 208.154 151.41 205.701C152.264 205.473 152.466 204.324 151.989 203.692C146.398 196.141 133.911 196.128 124.431 196.346C132.436 192.886 140.495 189.509 148.636 186.289C148.601 186.576 148.667 186.906 149.01 187.087C149.252 187.223 149.531 187.345 149.798 187.493C149.823 187.504 149.826 187.566 149.852 187.577C153.13 190.01 157.083 191.592 161.184 192.425C168.593 194.798 176.553 195.844 183.939 194.828C184.614 194.732 185.256 193.957 184.899 193.258C179.136 182.04 161.935 183.762 151.293 185.252C161.826 181.119 172.481 177.191 183.206 173.444C184.688 175.09 186.848 176.218 189.178 177.029C191.97 178.645 195.478 179.248 199.013 179.168C203.601 179.852 208.255 180.113 212.843 179.559C213.802 179.437 214.411 178.255 213.753 177.484C207.643 169.947 196.667 170.686 187.89 171.847C197.512 168.552 207.14 165.381 216.851 162.366C216.806 162.468 216.813 162.591 216.844 162.726C218.442 166.927 224.416 168.58 228.384 169.234C233.226 170.029 238.797 170.33 243.337 168.096C243.917 167.807 244.381 166.954 243.845 166.387C238.319 160.615 227.672 160.261 220.303 161.376C219.369 161.509 218.878 162.561 219.437 163.35C219.556 163.492 219.674 163.635 219.793 163.777C219.111 163.267 218.503 162.729 217.952 162.125C217.902 162.103 217.876 162.092 217.826 162.07C227.172 159.197 236.536 156.423 245.932 153.784C252.809 158.881 261.905 162.568 270.391 161.038C271.274 160.882 271.915 159.835 271.268 159.039C267.101 153.953 260.138 152.559 253.563 152C253.277 151.965 252.991 151.93 252.73 151.906C258.295 150.363 263.874 148.856 269.456 147.411C271.344 149.024 274.518 149.631 276.681 150.066C281.054 150.897 285.937 151.53 290.384 150.884C291.158 150.771 291.823 149.735 291.183 149.062C288.712 146.44 285.441 144.885 281.93 144.22C285.083 143.43 288.246 142.615 291.413 141.861C292.008 141.88 292.614 141.874 293.243 141.818C297.65 146.013 306.944 146.769 312.292 145.584C312.99 145.437 313.242 144.793 312.913 144.166C311.005 140.674 307.801 139.239 304.104 138.795C309.056 137.617 314.023 136.475 318.989 135.334C318.981 135.421 318.984 135.482 319.038 135.566C320.796 138.027 325.613 136.88 328.078 136.422C331.621 135.773 335.826 134.991 338.479 132.383C338.775 132.12 338.766 131.452 338.493 131.181C333.511 125.889 323.051 129.511 317.25 133.243C312.574 133.517 307.921 134.011 303.253 134.68C306.479 132.896 309.437 130.693 311.949 127.992C312.571 127.329 311.853 126.351 311.076 126.402C307.449 126.623 304.321 128.389 301.498 130.561C299.018 132.431 295.974 134.144 293.717 136.262C289.77 137.006 285.855 137.884 281.931 138.85C285.522 135.958 288.356 132.524 289.409 129.364C289.666 128.572 289.164 127.929 288.347 127.933C284.396 127.86 263.061 137.154 267.15 142.9C266.309 143.165 265.469 143.43 264.639 143.67C264.563 143.636 264.49 143.665 264.403 143.657C264.055 143.625 263.84 143.772 263.689 143.978C257.938 145.74 252.192 147.627 246.475 149.586C247.87 148.538 249.185 147.395 250.395 146.356C253.773 143.401 257.352 140.263 259.475 136.246C259.94 135.393 258.954 134.75 258.209 134.936C250.166 136.901 242.31 142.841 238.717 150.349C238.439 150.981 238.7 151.488 239.148 151.775C238.94 151.835 238.747 151.931 238.576 151.977C238.296 152.065 238.196 152.293 238.158 152.518C231.41 154.9 224.688 157.293 218.024 159.622C224.12 155.837 229.708 150.11 231.562 144.163C231.807 143.396 231.308 142.332 230.352 142.517C220.005 144.437 210.916 152.16 205.75 161.12C205.054 162.294 206.726 163.298 207.671 162.657C208.485 162.108 209.259 161.512 210.048 160.953C210.174 161.008 210.32 160.951 210.451 160.858C215.774 156.976 220.663 152.571 225.958 148.617C226.852 147.953 226.423 146.799 225.649 146.429C226.571 146.049 227.52 145.741 228.459 145.458C224.978 152.985 216.28 158.646 209.158 161.95C208.71 162.146 208.63 162.534 208.758 162.862C205.741 163.892 202.735 164.898 199.741 165.878C193.799 167.799 187.885 169.793 181.972 171.787C188.993 167.472 195.296 160.942 197.206 153.421C197.405 152.693 196.644 152.088 195.99 152.133C195.177 152.199 194.33 152.341 193.512 152.556C193.414 152.573 193.316 152.59 193.218 152.607C184.922 154.734 176.363 163.383 173.277 171.384C172.613 172.209 171.949 173.035 171.336 173.883C170.907 174.449 171.289 175.16 171.854 175.317C163.403 178.28 154.995 181.352 146.666 184.52C154.081 179.926 160.762 172.053 162.293 163.882C162.43 163.158 161.773 162.659 161.131 162.679C151.697 162.586 141.561 172.626 139.681 182.212C138.715 183.659 137.81 185.103 136.916 186.522C136.493 187.211 137.276 188.248 137.999 187.63C138.522 187.196 138.968 186.727 139.477 186.256C139.594 186.609 139.856 186.905 140.21 187.061C130.77 190.767 121.4 194.655 112.116 198.762C118.381 195.142 124.2 183.179 125.684 178.76C126.005 177.754 125.024 176.962 124.123 177.503C117.776 181.449 112.327 186.995 108.025 193.227C105.211 196.549 102.695 200.153 100.646 203.932C90.5145 208.663 80.508 213.66 70.6325 219.046C43.5723 233.826 17.2085 250.39 -7.78323 268.642C5.09213 252.078 17.6242 235.334 29.9854 218.635C30.3651 218.801 30.889 218.639 30.9875 218.139C31.0559 217.777 31.1242 217.414 31.1815 217.077C31.3209 216.897 31.4603 216.717 31.6107 216.511C34.0662 213.182 36.4963 209.842 38.9012 206.491C41.8728 214.372 65.3603 205.057 69.4657 202.3C70.2795 201.752 69.9721 200.319 68.9784 200.246C67.1762 200.089 65.3438 200.07 63.4923 200.164C63.4341 199.746 63.1796 199.363 62.7493 199.174C55.5281 196.098 47.0667 200.324 40.6121 204.103C43.234 200.394 45.856 196.686 48.402 192.944C48.8069 193.121 49.3389 192.872 49.401 192.386C49.4218 192.063 49.4173 191.729 49.427 191.432C51.5943 188.278 53.7363 185.114 55.8894 181.924C55.9178 181.996 55.9827 182.055 56.0364 182.139C55.9889 182.178 55.9161 182.207 55.8686 182.246C55.4379 182.54 55.7222 183.268 56.2381 183.193C56.5578 183.152 56.8744 183.049 57.2052 182.983C62.9057 186.086 71.3137 181.294 77.5072 177.491C78.1053 177.573 78.7429 177.701 79.3583 177.881C75.2491 183.261 63.6779 187.903 57.6764 185.212C56.7906 184.823 56.2864 186.111 57.0883 186.553C64.2439 190.535 77.8862 184.266 81.7146 177.737C81.965 177.304 81.6475 176.651 81.2061 176.488C80.7758 176.299 80.287 176.176 79.8235 176.063C80.5676 175.605 81.2642 175.186 81.8768 174.821C82.7302 174.32 82.0619 173.091 81.2231 173.146C79.916 173.237 74.6218 174.506 69.6246 176.268C65.2073 177.258 60.8256 179.199 57.4043 181.29C57.3031 181.246 57.2018 181.201 57.1006 181.157C56.895 181.007 56.6956 180.979 56.4994 181.014C66.0672 166.832 75.4404 152.475 84.839 138.129C84.8674 138.201 84.8705 138.263 84.9354 138.322C84.4253 139.003 85.1824 140.029 85.9802 139.655C86.1259 139.598 86.2462 139.53 86.3665 139.462C93.6091 143.453 108.595 131.918 112.556 127.288C113.069 126.668 112.671 125.649 111.863 125.566C103.061 124.513 92.1164 130.547 85.976 137.118C85.8463 137.001 85.6976 136.996 85.56 136.966C86.6405 135.328 87.6846 133.703 88.7652 132.065C92.8672 125.807 97.3154 119.791 101.572 113.661C101.988 113.813 102.493 113.763 102.891 113.545C103.084 113.448 103.248 113.279 103.427 113.146C108.11 115.199 119.978 104.923 122.388 103.144C123.188 102.559 122.717 101.085 121.649 101.25C116.863 102.049 112.535 104.074 108.417 106.584C107.673 107.042 106.464 107.598 105.258 108.216C108.235 103.697 111.071 99.0866 113.535 94.2227C114.008 93.2831 114.469 92.3689 114.916 91.4182C115.093 91.4959 115.289 91.4612 115.483 91.3649C116.649 90.6996 117.63 89.7716 118.57 88.796C124.225 90.008 131.322 80.5667 133.433 76.7849C133.933 75.9182 132.863 75.0564 132.048 75.3327C127.4 76.9161 121.757 80.839 117.972 85.2746C121.549 77.9414 125.065 70.6114 129.228 63.5953C128.943 65.0698 128.695 66.5302 128.61 68.0318C128.536 69.5082 130.76 70.423 131.286 68.8126C132.206 65.9571 132.765 62.8227 133.538 59.7519C136.3 57.5831 139.869 49.0995 140.231 47.9304C140.562 46.899 139.511 45.9249 138.529 46.5808C137.679 47.1435 136.955 47.7616 136.296 48.4383C135.909 48.3589 135.48 48.4425 135.182 48.9154L135.274 48.7746ZM104.701 111.412C106.687 110.049 110.448 108.077 111.181 107.644C112.935 106.603 114.718 105.634 116.571 104.848C112.562 107.797 107.227 111.433 104.687 111.375L104.701 111.412ZM88.7254 138.143C95.5946 134.245 100.956 127.935 109.288 127.515C104.683 131.893 94.6951 138.98 88.7254 138.143ZM65.0167 180.102C65.8651 179.749 66.7025 179.423 67.5399 179.096C68.6574 178.681 69.6435 178.358 70.3495 178.125C71.641 177.726 72.9753 177.436 74.2935 177.319C70.3878 179.62 65.7969 181.832 61.9372 182.101C62.4948 181.38 63.6616 180.715 64.9802 180.116L65.0167 180.102ZM58.2556 204.537C59.3385 203.925 60.3708 203.291 61.3746 202.585C62.2608 202.491 63.136 202.422 64 202.378C62.3395 203.068 60.3735 203.836 58.2556 204.537ZM40.9854 206.349C46.3656 204.332 52.1986 200.251 58.0453 200.612C53.0996 201.431 48.2703 203.085 44.0178 205.626C43.4415 205.977 43.3808 206.735 43.6557 207.278C42.5354 207.149 41.6052 206.862 40.9854 206.349ZM108.086 198.111C108.086 198.111 107.876 198.11 107.775 198.065C108.014 197.657 108.264 197.224 108.504 196.816C110.883 193.936 113.403 191.148 116.131 188.573C113.693 192 111.125 195.31 108.086 198.111ZM152.557 171.291C149.92 175.929 146.617 180.364 142.279 183.17C145.755 179.232 148.742 174.899 152.557 171.291ZM152.067 177.293C154.425 173.981 156.382 170.343 158.099 166.841C158.376 166.208 158.214 165.684 157.825 165.333C158.494 165.113 159.203 164.942 159.89 164.82C158.771 169.369 155.797 173.466 152.562 176.785C152.455 176.89 152.28 177.084 152.079 177.267L152.067 177.293ZM212.832 155.565C215.737 152.313 219.197 149.515 223.031 147.514C221.947 148.336 220.887 149.169 219.817 150.028C217.497 151.877 215.177 153.727 212.832 155.565ZM319.928 135.051C320.786 134.884 321.64 134.655 322.473 134.477C323.243 134.302 323.312 133.457 322.847 133.072C327.022 131.191 331.389 129.214 335.242 131.024C337.422 132.04 335.078 132.43 333.582 132.951C331.759 133.6 329.879 134.103 327.978 134.447C326.248 134.745 321.753 135.912 319.902 135.04L319.928 135.051ZM295.368 141.513C301.013 140.819 307.119 139.212 310.785 143.927C308.119 144.297 305.362 144.114 302.728 143.653C300.405 143.238 297.608 142.736 295.368 141.513ZM307.922 129.123C305.846 130.899 303.522 132.414 301.087 133.7C303.228 131.983 305.402 130.191 307.922 129.123ZM283.236 146.815C284.768 147.245 286.247 147.863 287.528 148.727C285.749 148.792 283.936 148.661 282.145 148.479C282.512 148.398 282.868 148.343 283.221 148.226C283.916 148.018 283.804 147.034 283.211 146.804L283.236 146.815ZM286.775 130.141C284.81 133.866 280.55 137.731 275.894 140.367C275.712 140.438 275.516 140.473 275.345 140.518C275.356 140.493 275.393 140.479 275.429 140.465C275.619 140.307 275.683 140.093 275.659 139.871C278.126 138.237 280.596 136.665 283.02 134.921C283.688 134.43 283.049 133.546 282.38 133.766L282.354 133.755C280.198 134.68 278.128 135.824 276.063 137.092C276.568 136.559 277.099 136.037 277.669 135.563C278.013 135.261 277.611 134.662 277.231 134.978C276.139 135.887 275.19 136.95 274.043 137.775C273.817 137.947 273.844 138.231 273.965 138.435C272.78 139.212 271.594 139.99 270.433 140.779C269.991 141.098 269.904 141.573 270.049 141.998C269.805 142.073 269.573 142.121 269.329 142.196C268.974 137.363 281.125 131.465 286.84 130.199L286.775 130.141ZM259.729 157.691C260.867 157.435 261.945 156.972 262.912 156.28C264.613 156.875 266.199 157.661 267.551 158.707C264.825 158.869 262.241 158.43 259.74 157.665L259.729 157.691ZM223.891 164.065C228.193 164.715 232.567 164.58 236.718 165.918C232.595 167.339 227.423 166.61 223.891 164.065ZM191.636 174.727C196.303 174.751 201.329 173.817 205.51 175.499C203.386 176.077 200.966 176.434 198.567 176.468C198.317 176.419 198.082 176.406 197.832 176.357C195.647 175.972 193.637 175.393 191.636 174.727ZM186.651 161.527C184.396 164.4 181.833 167.079 179.013 169.312C181.582 166.757 184.083 164.082 186.651 161.527ZM187.261 165.023C189.797 162.061 192.026 158.905 193.994 155.724C192.557 159.138 190.154 162.278 187.261 165.023ZM173.554 192.568C175.861 192.192 178.098 191.633 180.22 190.784C180.829 191.322 181.368 191.951 181.86 192.619C179.089 192.883 176.316 192.874 173.543 192.593L173.554 192.568ZM156.219 188.196C162.713 188.388 169.218 188.072 175.534 189.634C170.058 190.975 163.999 190.823 158.577 189.079C158.1 188.93 157.633 188.756 157.166 188.581C156.863 188.448 156.559 188.315 156.23 188.17L156.219 188.196ZM143.287 200.691C145.251 201.371 147.032 202.333 148.459 203.623C146.903 203.936 145.257 204.18 143.507 204.318C143.893 204.125 144.293 203.969 144.654 203.765C145.449 203.329 145.347 202.047 144.691 201.548C144.24 201.2 143.734 200.978 143.275 200.716L143.287 200.691ZM124.189 199.65C129.296 201.768 135.59 200.213 140.739 202.441C135.679 203.934 128.546 202.858 124.189 199.65ZM107.817 258.737C104.562 259.21 101.069 258.916 98.0699 257.843C99.7567 257.918 101.455 257.969 103.167 258.056C103.341 258.071 103.436 257.992 103.542 257.888C104.999 258.074 106.412 258.362 107.817 258.737ZM92.9621 257.655C92.9621 257.655 93.1979 257.668 93.2849 257.676C98.1321 261.28 105.602 261.93 111.493 259.987C112.632 260.486 113.713 261.05 114.76 261.69C107.94 263.136 97.7002 263.021 92.951 257.68L92.9621 257.655ZM77.9516 249.564C74.9063 250.522 71.7898 251.298 68.6468 251.791C71.7032 250.808 74.8023 249.934 77.9516 249.564ZM76.1145 264.903C79.0269 265.968 82.0995 266.531 84.9367 266.598C85.7209 267.425 86.4101 268.331 87.0376 269.239C83.093 268.807 79.3614 267.201 76.1145 264.903ZM70.1283 259.079C72.1947 259.322 74.3385 259.869 76.4249 260.754C76.5009 260.787 76.6021 260.832 76.678 260.865C78.8547 261.819 80.8981 263.077 82.7183 264.569C78.2231 264.017 73.2922 262.187 70.1283 259.079ZM62.7089 254.529C69.7064 254.398 76.6962 252.152 83.2335 249.768C77.8344 253.617 69.2514 255.436 62.7089 254.529ZM34.6706 261.698C34.6706 261.698 34.8163 261.641 34.8891 261.612C35.7452 261.656 36.6012 261.699 37.4968 261.79C37.495 262.001 37.5803 262.219 37.7939 262.283C42.5348 264.271 48.3836 263.939 52.2734 267.455C46.1777 267.799 39.7363 265.216 34.6565 261.661L34.6706 261.698ZM37.1123 257.85C39.623 256.597 42.338 255.222 45.0952 254.44C43.7335 255.412 42.3323 256.336 40.841 257.191C39.6018 257.402 38.3515 257.639 37.1376 257.861L37.1123 257.85ZM39.075 251.378C41.429 250.207 43.8731 249.106 46.4261 248.445C46.9389 248.308 53.7418 246.282 51.5069 248.832C50.3016 250.205 48.7766 251.618 47.0997 252.965C47.0744 252.954 47.0238 252.932 46.9985 252.921C43.4602 252.938 39.9887 254.524 36.7911 255.898C34.3802 256.923 31.4108 257.915 28.8415 259.232C31.5802 255.877 35.187 253.294 39.1114 251.363L39.075 251.378ZM34.4207 207.212C34.248 207.468 34.039 207.739 33.841 207.984C34.3677 204.443 34.695 200.875 34.9241 197.324C34.9827 201.182 34.8814 205.06 34.4207 207.212ZM49.5558 182.948C49.6516 181.904 49.798 180.882 50.0536 179.817C50.8871 176.471 52.1003 173.292 53.8054 170.297C53.9065 172.545 53.6039 174.886 52.9643 177.171C51.4549 178.893 50.3029 180.832 49.5558 182.948ZM65.5714 159.705C64.7506 153.25 64.4064 144.468 68.4074 139.886C68.9044 141.643 69.2052 143.434 69.3493 145.308C69.1024 145.32 68.8475 145.42 68.7761 145.721C67.4241 150.318 67.6209 155.444 65.5602 159.73L65.5714 159.705ZM83.8382 129.331C84.5518 125.57 85.6529 121.889 87.5734 118.748C87.7022 119.83 87.6855 120.97 87.5564 122.09C87.2305 122.007 86.8522 122.113 86.6746 122.518C85.687 124.771 84.7753 127.056 83.8382 129.331ZM129.456 78.9037C127.107 82.1283 123.404 86.238 120.292 86.8652C120.97 86.0761 121.673 85.2982 122.38 84.5819C124.571 82.4047 126.845 80.3842 129.467 78.8783L129.456 78.9037ZM114.23 76.6031C113.882 76.5712 113.555 76.699 113.36 77.0059C113.605 75.4838 113.962 73.9808 114.446 72.5333C114.525 73.8658 114.409 75.2329 114.23 76.6031Z" fill="#3B7054"/>
<path d="M76.2901 160.241C84.0358 160.468 94.0826 154.554 98.2611 149.566C98.8329 148.881 98.4003 147.666 97.4683 147.589C88.9904 146.829 80.7503 153.234 73.9672 158.106C73.5463 158.102 73.0779 158.138 72.7045 158.095C71.9466 158.034 71.6119 159.004 72.2256 159.394C71.315 160.232 72.3155 161.666 73.4868 161.335C74.4618 161.038 75.4083 160.669 76.2901 160.241ZM81.5241 157.044C85.5141 154.206 89.3398 151.056 94.2238 150.24C90.8998 153.279 86.2091 155.718 81.5241 157.044Z" fill="#3B7054"/>
</svg>
