<svg width="219" height="313" viewBox="0 0 219 313" fill="none" xmlns="http://www.w3.org/2000/svg">
<path d="M-16.5659 131.944C-18.4939 129.708 -17.8081 126.493 -16.6387 124.046C-15.1199 120.824 -10.2258 116.232 -6.55618 119.083C-6.5123 118.669 -6.48959 118.292 -6.44574 117.878C-6.38888 116.935 -5.19415 116.893 -4.88364 117.706C-4.6406 118.384 -4.55526 119.165 -4.56415 119.94C-3.99526 119.293 -3.44752 118.682 -2.93633 118.05C-2.95178 117.992 -2.94609 117.898 -2.96154 117.84C-3.39968 116.319 -5.5038 117.007 -6.52703 117.343C-7.00979 117.504 -7.2837 116.711 -6.83752 116.53C-5.57211 115.943 -3.36642 114.825 -2.02454 115.795C-1.8051 115.922 -1.68563 116.137 -1.50844 116.337C3.9032 109.751 8.42573 102.847 11.6884 94.2396C11.7307 94.1664 11.7518 94.1298 11.7941 94.0566C12.0596 73.3253 9.77481 53.4638 -4.67885 37.702C-18.9104 24.8497 -33.8702 13.0898 -49.7402 3.24415C-51.5478 2.15175 -49.8266 -0.660577 -48.019 0.431816C-25.5673 14.419 -5.11883 32.1292 14.1382 51.3962C14.1748 51.4173 14.2114 51.4384 14.248 51.4595C24.4402 63.1995 45.0341 63.4272 60.6012 64.1684C60.0567 64.098 60.0136 63.2436 60.5906 63.0888C70.5254 60.5781 76.4109 54.6073 82.8653 47.989C82.2264 47.913 81.5722 47.7793 80.9236 47.5512C80.0345 47.2331 79.6297 46.4138 79.8174 45.4974C80.2902 42.9891 81.3443 40.5723 82.8314 38.5032C82.7908 38.2357 82.7867 37.9894 82.9712 37.7543C86.7436 33.2473 92.1206 30.6914 97.8259 29.5938C98.8589 29.4094 99.6099 30.1358 99.6839 31.1056C100.158 38.3084 93.2129 46.7903 85.7472 47.8963C80.16 56.1376 70.3589 63.6538 60.8109 64.1431C62.2251 64.2276 63.6027 64.291 64.9226 64.3699C79.6818 65.3279 92.896 63.9786 106.113 59.7523C106.073 59.4848 106.126 59.223 106.274 58.9668C106.48 58.6951 106.764 58.3714 107.106 58.0322C106.59 57.4902 106.295 56.7344 106.389 55.8124C106.718 52.5383 111.601 50.3314 114.069 49.2674C115.622 48.6031 118.092 48.126 120.728 48.0375C124.042 47.3648 127.681 47.9041 130.37 49.7496C130.825 50.0607 131 50.6012 130.799 51.1192C131.668 52.4016 131.806 54.1893 130.773 56.5695C127.405 64.0916 115.338 65.5662 108.299 61.7948C101.019 64.521 93.4845 65.8311 85.7335 66.3332C86.33 66.4825 86.9266 66.6317 87.4655 66.7964C90.8351 67.7172 94.8915 68.5464 98.2368 70.1851C103.947 68.0655 110.996 71.9889 114.901 75.9515C115.527 76.5568 115.14 77.6505 114.332 77.8672C108.409 79.4252 101.53 76.1366 97.1112 72.219C94.0131 71.5038 90.9604 70.0341 88.0776 69.1992C83.8919 68.0025 79.8087 67.3042 75.4931 67.0083C75.268 66.976 75.0908 66.7761 75.0079 66.5818C68.6742 66.4872 62.2691 66.0097 55.8273 65.511C52.0042 65.2068 47.6463 64.9842 43.2055 64.5673C52.8642 67.2648 63.195 70.7407 71.6193 76.3364C71.7631 75.8339 72.2109 75.3117 72.8188 75.2723C80.5641 74.8645 90.4853 78.5431 94.5128 85.5039C95.0273 86.3865 94.43 87.5056 93.5068 87.7533C88.6077 88.9748 82.6576 87.5401 78.2728 85.2526C76.0881 84.1376 71.8414 81.4418 72.285 78.4774C62.1321 73.9331 51.8947 69.5352 41.7475 64.8966C41.528 64.7699 41.5605 64.5447 41.6662 64.3617C34.5027 63.5928 27.1539 62.1313 21.3175 58.8104C43.8298 82.1526 64.6777 107.364 85.02 130.917C86.1717 132.217 87.2445 133.568 88.3751 134.904C96.3181 138.123 104.193 140.279 112.028 141.826C116.551 139.314 120.165 136.179 123.168 131.57C124.086 130.148 124.968 128.705 125.886 127.283C123.588 125.859 121.95 123.205 121.896 120.344C121.816 117.272 123.318 114.333 125.58 112.273C127.401 110.64 130.438 108.588 133.301 108.191C134.749 107.71 136.304 107.973 137.446 109.12C142.514 114.194 137.861 125.463 131.83 127.885C130.57 128.377 129.333 128.493 128.192 128.273C124.655 133.892 119.999 139.255 114.326 142.323C125.314 144.324 136.317 145.114 147.521 145.727C149.391 140.122 152.645 134.486 155.985 129.631C154.608 128.3 153.856 126.646 153.623 124.853C152.889 123.843 152.455 122.568 152.504 121.132C152.544 120.472 153.304 120.423 153.616 120.896C153.683 121.032 153.772 121.132 153.86 121.232C154.079 120.431 154.334 119.651 154.705 118.841C156.366 115.457 159.861 110.839 163.918 110.4C169.443 109.783 167.769 118.088 166.169 120.775C165.979 121.105 165.695 121.428 165.447 121.773C165.18 124.938 161.515 128.921 159.483 130.92C159.041 131.348 158.397 131.366 157.885 131.07C157.519 130.859 157.174 130.611 156.866 130.385C155.028 135.764 151.672 140.902 148.71 145.779C155.859 146.15 163.14 146.547 170.509 147.044C171.437 145.775 172.531 144.894 173.739 144.322C180.247 139.638 190.986 139.788 195.137 147.21C195.376 147.641 195.331 148.396 194.915 148.693C192.697 150.339 190.32 151.163 187.913 151.53C182.483 154.348 175.198 153.704 170.348 150.026C170.165 149.92 170.082 149.726 170 149.532C169.774 149.499 169.539 149.315 169.478 149.084C159.098 149.24 148.001 149.371 136.877 148.706C144.81 151.774 152.965 155.555 159.778 160.563C159.839 159.866 160.308 159.307 161.295 158.95C161.778 158.789 162.19 159.173 162.298 159.577C162.846 161.162 162.479 162.219 163.908 163.63C165.566 165.319 167.487 166.721 169.536 167.904C171.949 169.297 174.729 170.902 177.581 171.622C175.422 169.448 172.958 167.635 170.346 166.078C170.904 166.547 171.463 167.016 172.021 167.484C172.365 167.732 172.049 168.281 171.683 168.07C168.788 166.496 166.119 164.614 163.578 162.512C162.748 161.838 163.703 160.437 164.65 160.74C171.157 162.984 177.325 167.082 181.674 172.472C182.325 173.287 181.837 174.469 180.758 174.481C175.021 174.535 168.632 170.651 164.237 167.284C163.495 166.71 161.743 165.015 160.656 163.265C151.528 158.044 142.831 152.583 133.09 148.423C130.529 148.214 127.989 147.967 125.455 147.626C132.175 151.36 138.556 156.947 143.594 162.832C143.868 162.697 144.135 162.656 144.449 162.789C145.353 163.165 146.194 163.65 147.02 164.078C148.844 163.96 151.354 165.019 153.134 166.242C156.403 168.52 162.515 173.561 159.899 178.345C157.557 182.654 151.091 178.481 148.654 176.537C145.365 173.955 141.53 169.448 142.484 164.924C135.635 158.627 129.705 151.837 121.439 147.064C110.319 145.378 99.6717 142.451 90.3705 137.276C108.851 159.071 126.379 181.585 142.41 205.089C148.608 208.374 154.305 212.444 160.038 216.535C165.355 217.799 170.699 218.933 176.167 219.259C180.09 219.475 183.947 219.213 187.82 219.009C187.841 218.973 187.862 218.936 187.883 218.9C187.968 218.753 188.068 218.665 188.131 218.555C187.908 218.182 188.115 217.57 188.68 217.603C188.68 217.603 188.717 217.624 188.775 217.609C188.263 217.313 188.02 216.636 188.525 216.099C193.263 211.271 202.5 207.772 208.013 213.004C208.426 213.389 208.474 214.149 208.2 214.624C203.998 221.226 195.944 222.675 188.722 220.994C180.444 222.071 171.093 220.868 162.978 218.623C165.411 220.32 167.808 221.997 170.326 223.548C179.624 229.404 189.019 233.657 199.161 237.122C198.776 236.607 198.696 235.731 199.269 235.33C206.113 230.401 215.878 235.111 218.163 242.725C218.338 243.266 217.989 244.04 217.464 244.273C214.089 245.643 210.644 245.021 207.488 243.393C205.946 242.601 203.499 241.432 202.003 239.885C193.894 238.473 185.94 235.442 178.279 231.312C183.141 235.729 187.84 240.345 192.502 244.939C192.611 245.003 192.742 245.029 192.831 245.129C193.133 245.45 193.451 245.829 193.753 246.15C194.092 246.492 194.468 246.855 194.807 247.197C195.22 247.241 195.613 247.321 195.984 247.438C195.339 246.529 196.409 245.097 197.601 245.736C201.081 247.648 204.071 250.155 206.756 253.023C207.174 253.313 207.57 253.639 208.025 253.95C208.244 254.077 208.227 254.36 208.121 254.543C209.57 256.257 210.955 258.082 212.182 260.01C212.577 260.677 212.132 261.787 211.329 261.909C206.853 262.399 202.771 260.432 199.411 257.467C196.697 255.072 193.068 251.561 191.86 247.74C184.568 241.872 178.155 234.314 171.769 227.553C161.859 221.49 152.515 214.192 144.123 207.444C155.537 224.33 166.206 241.664 175.987 259.607C176.081 259.613 176.212 259.64 176.279 259.776C179.986 264.844 184.454 269.521 189.138 273.739C191.705 276.05 194.597 278.305 197.252 280.717C196.8 278.797 196.976 277.142 199.125 277.895C199.389 277.608 199.762 277.384 200.17 277.522C206.499 279.566 212.442 284.9 213.741 291.603C213.89 292.274 213.482 293.064 212.717 293.207C206.917 294.299 201.907 290.138 199.011 285.441C191.431 280.918 184.561 273.39 179.206 265.857C183.282 273.578 187.164 281.382 190.888 289.29C196.508 291.803 206.417 309.186 197.312 312.371C192.248 314.132 188.762 305.727 187.662 302.311C187.151 300.747 184.995 289.108 188.977 288.968C183.029 279.337 177.26 269.565 171.627 259.725C172.059 262.609 172.318 265.54 172.482 268.465C172.793 273.671 173.365 278.929 173.712 284.156C173.712 284.156 173.712 284.156 173.749 284.177C178.562 287.834 187.354 304.28 176.414 305.576C167.665 306.624 167.033 288.546 170.649 283.802C170.976 283.405 171.507 283.078 172.015 283.127C171.38 278.905 171.401 274.477 171.174 270.394C170.925 265.419 170.251 260.589 169.425 255.77C160.919 240.856 152.528 225.911 143.491 211.324C136.747 200.453 129.419 190.172 121.755 180.135C128.35 194.727 131.837 210.647 134.04 226.85C134.077 226.871 134.113 226.892 134.15 226.913C137.511 231.733 141.774 236.683 145.049 241.989C145.249 241.812 145.428 241.671 145.68 241.573C145.577 241.074 145.533 240.561 145.567 239.995C145.687 238.942 146.789 238.553 147.619 239.228C153.432 244.194 158.267 253.134 155.156 260.804C154.912 261.395 154.212 262.016 153.49 261.746C148.827 259.687 145.884 253.889 144.654 249.178C144.329 247.966 144.055 246.246 144.146 244.737C140.795 239.729 137.351 234.714 134.41 229.503C135.966 241.674 136.851 253.993 137.889 265.962C137.963 266.004 138.015 266.083 138.067 266.162C138.555 265.907 139.017 265.783 139.534 265.985C139.921 266.159 140.203 266.517 140.08 266.983C139.957 267.449 139.725 267.851 139.471 268.29C141.93 272.394 143.682 277.553 144.547 281.712C145.351 285.641 145.074 293.386 138.81 291.819C131.636 289.97 132.623 276.097 135.636 269.443C135.527 268.111 135.418 266.78 135.005 265.468C134.829 264.927 135.235 264.478 135.681 264.297C133.88 251.79 132.682 239.338 131.1 226.958C129.995 232.42 127.461 237.739 124.681 242.722C126.033 243.844 126.873 245.598 126.425 247.388C125.16 252.367 118.324 256.52 113.505 257.349C112.415 257.549 111.544 256.607 111.78 255.523C112.662 251.885 116.813 241.4 121.997 242.05C122.176 241.909 122.406 241.847 122.616 241.822C125.596 235.394 129.589 229.745 130.444 222.773C128.418 208.038 125.669 193.374 120.315 178.913C120.268 178.74 120.353 178.593 120.489 178.526C108.502 162.968 95.679 148.099 82.846 133.078C75.3172 124.242 67.6324 115.169 59.8166 106.07C72.402 125.828 77.2585 149.175 80.4472 172.877C82.5443 177.015 84.6414 181.154 87.5056 184.808C89.7765 187.632 92.2644 189.995 94.91 192.254C95.0806 191.621 95.6284 191.01 96.3615 191.092C99.7343 191.331 102.577 192.826 104.715 195.036C107.606 196.364 110.117 198.35 112.416 200.702C112.843 201.144 112.882 201.753 112.665 202.213C113.29 203.159 113.562 204.292 112.913 205.332C111.814 207.235 109.213 207.685 107.16 207.525C102.321 207.122 97.1521 203.406 95.4508 198.666C93.822 197.433 92.2525 195.844 92.1988 193.91C92.1752 193.359 92.7734 193.168 93.1968 193.364C93.2699 193.406 93.3431 193.448 93.3797 193.469C88.091 189.537 83.8856 183.645 80.9595 177.564C82.3685 188.722 83.5102 199.921 85.0094 210.839C85.1866 211.039 85.3849 211.202 85.541 211.438C85.5776 211.459 85.6141 211.481 85.6507 211.502C87.5705 213.244 88.4175 215.832 88.824 218.506C90.075 223.181 90.2549 228.359 89.0652 231.771C88.6987 232.829 88.2184 233.576 87.7129 234.114C87.5268 234.689 87.3619 235.228 87.1027 235.762C86.6955 236.552 85.4008 236.682 84.8538 236.025C84.5206 235.589 84.2451 235.137 83.9118 234.7C81.0883 233.509 78.2509 229.724 77.5827 226.996C76.6015 222.868 76.025 217.362 78.1704 213.478C79.0578 211.941 80.5881 210.726 82.2136 210.444C78.4212 191.42 76.9606 172.327 73.7323 153.678C73.2805 156.15 72.4671 158.656 71.4862 161.115C68.9679 167.42 66.2301 173.598 63.7695 179.887C64.3165 180.544 64.8001 181.312 65.0431 181.989C67.7117 188.263 65.9882 194.88 59.6864 198.024C57.6961 199.022 54.5363 200.272 52.649 198.304C50.96 196.499 51.0729 193.685 51.5132 191.402C52.7158 185.265 56.2922 176.79 62.1169 173.712C62.39 173.577 62.7516 173.541 63.0653 173.674C66.5979 165.613 72.3508 157.76 72.9242 149.503C72.2901 146.209 71.6348 142.952 70.8488 139.668C70.7447 139.51 70.6984 139.337 70.6155 139.143C70.548 139.006 70.5748 138.875 70.6171 138.802C67.5175 126.18 63.0233 113.777 55.7609 101.777C55.6934 101.64 55.6991 101.546 55.7259 101.415C38.7136 81.6386 20.8893 61.8326 1.85664 43.8663C7.23165 51.7027 10.3587 60.7299 12.2203 70.344C15.2206 79.5907 20.954 85.8774 27.1514 92.6273C27.1514 92.6273 27.1725 92.5906 27.1937 92.554C27.1571 92.5329 27.1262 92.4175 27.0742 92.3387C26.9604 92.029 27.014 91.7672 27.2139 91.5898C26.9327 91.2323 26.6938 90.8016 26.3759 90.4229C25.2649 89.3911 26.9699 87.7893 28.081 88.8211C28.5296 89.2265 28.936 89.7051 29.3058 90.1626C31.9902 88.6383 34.5342 91.327 35.8762 94.4928C37.7025 97.1575 38.4659 100.819 37.928 103.777C37.7671 104.563 36.7325 105.088 36.0108 104.818C32.2348 103.418 25.7335 98.884 26.5891 94.108C21.8888 89.8329 16.6359 84.9947 13.5659 79.4161C14.4855 87.7056 14.5916 96.3061 14.4726 104.874C17.3102 113.051 20.6298 120.14 25.1343 127.035C25.9486 125.456 27.144 124.145 28.9678 124.027C32.1228 123.799 33.3608 126.807 33.6365 129.455C38.0709 133.43 41.1368 138.762 41.8832 144.903C41.9938 145.893 41.4249 146.541 40.4553 146.615C32.7872 147.312 22.6171 138.659 23.9699 130.657C24.0503 130.264 24.1519 129.835 24.2535 129.405C19.9774 124.057 16.5262 118.21 14.3405 111.776C13.9623 123.073 13.3493 134.186 13.4107 144.469C13.6302 144.596 13.7862 144.832 13.8269 145.1C13.8366 145.252 13.8253 145.44 13.835 145.592C16.8918 147.308 18.9442 153.129 19.4141 155.693C19.919 158.62 19.3147 166.762 15.0593 167.037C11.506 167.279 10.8417 160.406 10.601 158.12C10.3253 155.472 10.1806 152.851 10.3608 150.174C10.1576 148.837 10.0697 147.468 10.2647 146.117C10.324 145.761 10.78 145.731 10.9937 145.952C11.0994 145.769 11.153 145.508 11.2586 145.325C9.78684 130.812 11.1385 115.295 11.6399 100.067C9.49141 106.829 4.64704 113.108 -0.602123 118.568C-0.551716 118.988 -0.543534 119.48 -0.587412 119.894C-0.962676 123.923 -3.30556 128.572 -6.5393 131.048C-8.87909 132.82 -14.2893 134.673 -16.6602 131.938L-16.5659 131.944ZM13.6238 148.154C13.6238 148.154 13.5816 148.227 13.597 148.285C13.6426 149.726 13.6305 151.183 13.7184 152.551C13.7281 152.703 13.6647 152.813 13.6225 152.886C13.9175 153.642 14.076 154.466 13.9615 155.424C13.9176 155.838 13.6754 156.089 13.3658 156.203C13.474 158.803 13.727 161.828 15.0006 163.929C15.0526 164.008 15.0681 164.066 15.0835 164.124C15.6524 163.476 16.0075 162.608 16.3204 161.812C17.111 159.683 17.471 157.792 16.9264 155.526C16.4224 153.527 15.6721 151.532 14.6065 149.746C14.3464 149.352 14.0457 148.69 13.6661 148.081L13.6238 148.154ZM32.5808 132.212C32.8409 132.607 33.0222 133.053 32.9995 133.43C33.5392 134.522 34.0423 135.594 34.8705 136.608C35.6256 137.581 34.2782 138.901 33.4654 137.944C33.1842 137.587 32.9029 137.229 32.6006 136.908C33.007 137.387 32.3438 138.029 31.8797 137.566C30.1794 135.95 28.6156 134.266 27.073 132.546C27.1381 134.291 27.738 135.955 29.0669 137.454C31.5109 140.232 35.096 143.228 38.9654 143.706C38.0395 138.975 35.6621 135.406 32.6385 132.197L32.5808 132.212ZM27.3435 129.628C27.3435 129.628 27.3109 129.853 27.2841 129.984C27.4768 130.241 27.6694 130.499 27.862 130.757C27.9677 130.574 28.1253 130.47 28.3237 130.633C28.8243 131.117 29.3827 131.586 29.92 132.091C29.8923 131.294 30.5189 130.632 31.2097 130.786C30.2449 129.839 29.2225 128.907 28.1423 127.991C27.7465 128.592 27.4394 129.293 27.3646 129.591L27.3435 129.628ZM59.5021 186.011C59.8963 185.751 60.2385 185.412 60.4652 185.103C60.431 183.473 60.6219 181.876 60.9802 180.326C60.9493 180.211 60.9184 180.095 60.8875 179.98C60.6933 180.063 60.5145 180.204 60.3666 180.46C60.7592 180.54 60.7616 181.127 60.4674 181.299C60.1944 181.434 60.0156 181.575 59.8156 181.752C59.6775 182.16 59.5971 182.553 59.5589 182.872C59.4841 183.171 59.107 183.148 58.9875 182.933C58.6844 183.88 58.9779 184.977 59.5387 186.032L59.5021 186.011ZM63.0788 181.928C63.0788 181.928 62.9731 182.111 62.9463 182.242C63.2642 184.816 62.3777 187.281 59.5949 188.553C58.9911 188.839 58.4368 188.617 58.0726 188.065C57.537 187.219 56.903 186.121 56.5576 184.946C56.1236 185.866 55.7108 186.75 55.3345 187.655C54.6974 189.434 51.8021 197.912 56.355 196.784C61.8311 195.407 65.211 190.82 64.1111 185.208C63.9119 184.117 63.5665 182.942 63.0633 181.87L63.0788 181.928ZM81.4672 220.944C81.0227 220.785 80.9202 220.286 81.2258 219.926C81.5736 219.492 81.9946 219.101 82.3213 218.704C82.1774 217.011 82.0911 215.302 82.1569 213.583C81.1434 214.072 80.2519 215.362 79.9708 217.201C79.4581 220.369 79.6249 223.881 80.5378 226.946C80.615 227.234 80.9003 227.838 81.2587 228.484C81.4319 228.438 81.6204 228.449 81.761 228.628C82.8493 230.037 84.1376 231.269 85.4104 232.443C86.0109 230.642 86.3822 228.563 86.5284 226.452C86.3244 226.383 86.1261 226.22 86.0277 225.968C85.4042 223.754 84.8962 221.508 84.367 219.3C83.9623 220.676 83.1147 221.553 81.4307 220.923L81.4672 220.944ZM100.242 201.432C101.681 202.995 103.477 204.276 105.601 204.819C107.166 205.235 109.39 205.689 110.888 204.7C111.598 204.231 111.616 203.608 111.41 202.952C111.185 202.919 110.923 202.866 110.661 202.812C109.693 203.815 107.77 203.681 106.572 203.477C104.436 203.122 102.286 202.369 100.279 201.454L100.242 201.432ZM123.519 244.735C122.928 245.759 122.315 246.821 121.744 247.809C121.385 248.431 120.371 247.992 120.584 247.285C120.659 246.987 120.806 246.73 120.86 246.469C120.687 246.515 120.462 246.483 120.358 246.325C118.19 248.391 116.637 250.911 115.555 253.799C117.744 252.965 119.851 251.595 121.45 250.176C122.471 249.253 124.543 247.522 124.111 245.906C124.018 245.559 123.816 245.15 123.535 244.792L123.519 244.735ZM138.552 273.176C138.622 273.9 138.692 274.623 138.762 275.347C138.832 276.07 137.632 276.207 137.467 275.478C137.371 274.885 137.295 274.256 137.198 273.663C136.915 274.914 136.668 276.187 136.551 277.486C136.352 279.859 135.658 289.169 139.85 289.003C144.535 288.829 141.527 280.017 138.589 273.197L138.552 273.176ZM147.209 245.09C147.058 244.76 146.887 244.465 146.737 244.135C146.689 244.302 146.714 244.512 146.702 244.701C147.809 246.754 148.742 248.855 149.386 251.032C149.541 251.609 148.733 251.826 148.457 251.374C148.39 251.238 148.265 251.117 148.197 250.98C148.249 251.059 148.28 251.174 148.332 251.253C149.4 253.626 150.842 256.703 153.087 258.39C154.444 252.83 151.522 246.995 147.786 242.74C147.786 242.74 147.744 242.813 147.686 242.828C147.761 243.458 147.91 244.129 148.138 244.748C148.334 245.252 147.484 245.542 147.267 245.075L147.209 245.09ZM174.223 295.772C174.123 294.933 174.022 294.094 173.863 293.27C173.801 293.039 173.432 291.314 173.05 290.117C172.842 289.802 172.692 289.471 172.542 289.14L172.468 289.098C172.311 289.202 172.07 289.112 172.003 288.975C171.976 289.106 171.986 289.258 171.959 289.389C172.2 290.407 172.384 291.44 172.741 292.427C173.144 293.587 173.684 294.679 174.302 295.719L174.223 295.772ZM174.397 287.869C174.364 288.094 174.353 288.283 174.263 288.524C174.194 288.728 174.036 288.832 173.863 288.878C174.321 289.436 174.684 290.328 174.983 291.331C175.478 291.909 176.031 292.472 176.678 293.041C176.986 293.268 176.559 293.753 176.288 293.548C175.943 293.3 175.656 293.037 175.369 292.773C175.985 295.423 176.281 298.374 176.298 299.019C176.305 299.852 175.203 300.241 174.614 299.657C173.477 298.415 172.483 297.012 171.668 295.467C171.951 299.876 173.269 303.76 176.531 303.008C182.5 301.623 177.864 292.506 174.397 287.869ZM190.689 298.251C190.492 297.747 190.961 297.188 191.473 297.484C192.241 297.928 192.809 298.548 193.414 299.19C193.259 296.417 192.359 292.824 189.825 292.483C189.624 293.001 189.422 293.519 189.388 294.085C189.284 296.123 189.521 298.162 190.083 300.146C190.799 302.706 192.702 309.124 195.915 309.808C200.306 310.733 196.391 300.031 195.82 298.823C195.716 298.665 195.566 298.334 195.364 297.925C195.551 299.204 195.572 300.436 195.473 301.452C195.391 302.186 194.618 302.764 193.907 302.305C192.34 301.303 191.325 299.936 190.71 298.215L190.689 298.251ZM210.806 290.689C209.351 285.945 205.385 282.68 201.079 280.34C201.264 281.032 201.591 281.563 202.15 282.032C202.703 282.595 201.861 283.377 201.287 282.851C201.125 282.709 201.036 282.609 200.875 282.467C201.727 284.032 202.652 285.64 202.917 285.939C204.986 288.354 207.595 290.592 210.769 290.668L210.806 290.689ZM208.534 259.319C207.264 257.464 205.816 255.749 204.246 254.16C204.718 255.116 203.676 256.076 202.779 255.265C201.882 254.454 200.985 253.643 200.066 252.869C199.924 253.031 199.693 253.093 199.453 253.002C199.087 252.791 198.721 252.58 198.376 252.332C201.042 255.823 204.129 258.923 208.476 259.334L208.534 259.319ZM204.119 237.74C204.976 238.283 205.785 238.994 206.568 239.495C207.336 239.939 208.141 240.403 208.945 240.868C210.781 241.489 212.677 241.754 214.674 241.589C212.458 238.163 208.105 236.918 204.119 237.74ZM192.967 217.443C195.901 217.429 198.788 217.242 201.502 216.174C198.579 215.072 195.443 215.603 192.967 217.443ZM156.016 176.201C151.805 174.795 148.776 171.679 145.826 168.512C145.783 168.585 145.741 168.658 145.626 168.689C146.33 170.511 147.763 172.168 149.087 173.421C150.824 175.058 154.456 178.228 157.157 177.689C160.225 177.02 157.406 172.612 153.786 169.253C155.188 170.794 156.432 172.44 157.565 174.363C158.132 175.324 157.088 176.625 156.032 176.259L156.016 176.201ZM180.924 143.786C184.305 144.518 187.681 146.272 190.334 148.097C190.407 148.139 190.459 148.218 190.511 148.297C191.152 148.032 191.777 147.71 192.386 147.33C189.799 143.787 185.198 142.887 180.903 143.823L180.924 143.786ZM174.076 147.201C175.019 147.257 175.962 147.314 176.883 147.406C177.58 147.467 177.707 148.175 177.417 148.593C180.952 148.975 184.475 149.545 187.857 149.009C184.738 147.062 180.577 145.147 176.899 145.268C175.864 145.793 174.897 146.455 174.076 147.201ZM156.281 123.459C157.341 124.071 158.567 124.145 160.101 123.176C160.926 122.677 161.647 122.019 162.295 121.32C162.228 121.183 162.123 121.026 162.135 120.837C162.211 120.198 162.255 119.784 162.147 119.38C162.001 119.296 161.854 119.211 161.671 119.106C161.19 118.925 161.124 118.448 161.315 118.119C161.028 117.856 160.82 117.54 160.769 117.121C160.719 116.701 160.972 116.262 161.465 116.254C162.24 116.262 162.831 116.506 163.264 116.854C163.667 117.086 164.069 117.318 164.375 117.885C164.514 117.477 164.667 117.127 164.769 116.697C165.246 114.435 165.603 111.958 162.876 113.555C159.719 115.392 156.377 119.66 156.281 123.459ZM136.525 117.811C135.293 119.1 133.743 120.011 132.006 120.569C132.147 120.748 132.208 120.979 132.082 121.199C131.41 122.616 130.622 124.065 129.835 125.513C132.095 125.061 134.259 122.749 135.375 120.563C135.761 119.81 136.179 118.831 136.525 117.811ZM131.058 112.752C131.902 112.556 132.758 112.172 133.505 112.652C134.822 113.412 133.474 116 133.155 116.89C133.07 117.036 133.007 117.146 132.944 117.256C134.572 116.293 135.956 114.994 136.259 113.119C136.749 110.328 133.54 110.818 131.813 111.528C131.58 111.931 131.327 112.37 131.073 112.809L131.058 112.752ZM127.364 125.062C128.419 123.573 129.547 122.126 130.836 120.821C130.548 120.899 130.259 120.976 129.971 121.054C128.467 121.21 127.926 119.19 129.411 118.73C130.319 118.424 131.342 118.088 132.282 117.557C132.015 117.598 131.68 117.502 131.43 117.26C131.106 116.976 130.767 116.634 130.444 116.349C130.157 116.086 130.07 115.646 130.187 115.274C130.25 115.164 130.262 114.976 130.252 114.824C130.188 114.933 130.162 115.064 130.156 115.159C130.075 115.551 129.4 115.454 129.481 115.061C129.53 114.553 129.695 114.014 129.823 113.454C129.467 113.395 129.575 112.871 129.915 112.873C129.963 112.705 129.953 112.553 129.98 112.422C126.165 114.806 122.645 119.215 125.694 123.562C126.199 124.292 126.779 124.724 127.327 125.041L127.364 125.062ZM90.5125 84.9998C86.9493 80.6979 81.0837 79.1169 75.6554 78.1299C75.5822 78.0877 75.488 78.082 75.3937 78.0764C78.3685 82.7217 84.8681 85.4007 90.5336 84.9632L90.5125 84.9998ZM101.78 71.987C102.298 72.1883 102.852 72.4108 103.386 72.6698C103.568 72.7754 103.573 73.0217 103.488 73.1681C105.975 74.604 108.452 75.8878 111.35 75.8528C108.494 73.6188 105.315 72.3686 101.744 71.9659L101.78 71.987ZM116.77 51.8519C120.055 50.7231 123.188 50.8725 124.487 54.1115C124.555 54.248 124.549 54.3423 124.522 54.4732C125.547 53.7962 126.504 52.9827 127.337 52.0481C126.241 51.074 124.478 50.4953 122.471 50.5079C121.298 50.5134 120.119 50.6133 118.955 50.7709C118.199 51.0665 117.437 51.4564 116.749 51.8885L116.77 51.8519ZM120.835 55.3697C119.91 55.958 118.985 56.5464 118.045 57.077C120.001 56.645 121.917 55.9455 123.603 54.9673C123.603 54.9673 123.603 54.9673 123.566 54.9461C122.689 54.4394 121.715 54.2676 120.736 54.1901C121.159 54.3858 121.329 55.0206 120.798 55.3486L120.835 55.3697ZM111.473 57.4792C111.735 57.5327 112.018 57.5496 112.279 57.6032C114.914 56.587 117.555 55.4765 120.222 54.2351C120.359 54.1676 120.511 54.1577 120.641 54.1845C117.515 53.9408 114.076 55.42 111.473 57.4792ZM111.889 60.3057C116.854 61.7572 123.694 61.3142 126.79 57.9783C128.164 56.5271 128.563 55.2448 128.443 54.1018C124.437 58.0837 118.202 60.437 112.609 59.9891C112.357 60.0876 112.141 60.2072 111.889 60.3057ZM83.5413 44.6221C84.5206 44.6995 85.5057 44.6827 86.45 44.3984C86.7922 44.0592 87.0766 43.7355 87.4187 43.3963C87.7398 43.0936 88.1575 43.3836 88.1348 43.7608C92.2829 41.8129 95.736 37.2679 96.4631 33.0522C93.526 33.7474 90.8643 34.8944 88.3165 36.3512C86.6529 39.148 84.5773 41.5606 83.5201 44.6587L83.5413 44.6221ZM30.7058 97.7047C31.7941 99.1138 33.6171 100.264 35.18 101.02C35.0702 98.7606 33.9794 96.7646 32.431 95.1387C32.483 95.2175 32.4985 95.2752 32.5505 95.3541C32.9496 96.2676 32.154 97.2234 31.3266 97.136C31.529 97.5457 31.0504 97.9524 30.6692 97.6836L30.7058 97.7047ZM-13.3292 124.395C-11.6249 124.061 -9.86779 124.734 -8.36268 123.31C-7.94169 122.919 -7.65155 122.501 -7.398 122.061C-7.76375 121.85 -8.16609 121.618 -8.46437 121.543C-10.306 121.017 -11.9574 122.357 -12.9334 123.794C-13.0391 123.977 -13.187 124.233 -13.3138 124.453L-13.3292 124.395ZM-9.50751 129.432C-6.57279 128.149 -4.65572 124.913 -3.58875 121.967C-3.50423 121.821 -3.47173 121.596 -3.40266 121.392C-4.04468 121.997 -4.66559 122.566 -5.30761 123.171C-5.72045 124.055 -6.27957 124.854 -6.99475 125.417C-7.53113 125.839 -8.29261 126.229 -9.10613 126.54C-9.3849 126.77 -9.6271 127.02 -9.88473 127.213C-10.2057 127.516 -10.5503 127.268 -10.6853 126.995C-12.0433 127.236 -13.373 127.005 -14.2012 125.99C-14.662 127.041 -14.9553 128.141 -14.6773 129.179C-14.1579 131.236 -10.8672 130.013 -9.50751 129.432Z" fill="#3B7054"/>
</svg>
