<svg width="95" height="182" viewBox="0 0 95 182" fill="none" xmlns="http://www.w3.org/2000/svg">
<path d="M93.3266 109.512C93.1993 109.321 92.9447 109.257 92.7326 109.299C92.4568 109.002 92.0325 108.917 91.693 109.172C90.3353 110.148 89.1472 111.464 88.1077 112.97C87.8743 112.97 87.6198 113.034 87.4288 113.225C82.6554 118.296 81.0219 129.839 82.8676 137.859C82.8676 137.859 82.8676 137.88 82.8676 137.902C81.5735 143.015 80.7885 148.341 81.6159 153.433C79.452 148.617 77.2669 143.8 75.0605 139.005C75.3151 139.259 75.8667 138.941 75.6757 138.581C72.1965 131.727 72.345 123.855 73.1299 116.153C73.2785 116.153 73.4482 116.089 73.5542 116.004C78.7307 111.994 79.8126 102.043 80.6825 96.144C81.3189 91.9004 83.3131 79.5726 77.9669 77.0688C76.5031 76.3686 75.2939 76.7294 74.318 77.7691C74.2543 77.7266 74.1907 77.6629 74.127 77.5993C73.7452 77.3022 73.236 77.472 73.0239 77.8751C71.157 81.5034 67.7626 98.2871 70.5205 105.204C70.1174 108.811 70.5205 112.334 72.0055 115.134C71.3055 121.924 71.1569 129.011 73.2572 135.101C71.4327 131.112 69.6295 127.101 67.8474 123.07C67.9959 122.964 68.0808 122.752 67.9535 122.54C65.535 118.699 65.1531 113.882 64.8773 109.469C64.75 107.475 64.7076 105.48 64.6864 103.486C64.6864 103.295 64.644 103.104 64.6227 102.891C64.8985 103.104 65.2168 103.273 65.5774 103.422C65.8532 103.528 66.2351 103.422 66.3412 103.125C67.2322 100.642 66.723 97.3959 63.7529 96.8018C63.4771 96.7382 63.1801 96.9291 63.074 97.1837C62.4588 98.7327 62.5012 100.897 63.7529 102.149C63.7317 106.265 63.6044 110.785 64.3469 115.007C62.9043 111.591 61.4829 108.196 60.104 104.759C59.0432 99.1995 58.5128 93.4493 58.3007 87.6143C58.5553 87.5931 58.8098 87.4234 58.8523 87.0626C59.5312 82.7341 60.0615 78.4056 60.4646 74.0346C60.7828 72.2099 61.1435 70.3851 61.4617 68.5815C63.0104 60.0518 62.6498 51.3523 63.2438 42.7377C63.3074 41.9527 62.1194 41.7405 62.0133 42.5468C61.9284 43.2682 61.8436 44.0108 61.7587 44.7323C61.4193 42.9711 60.8465 41.3798 59.9555 40.0855C56.7944 35.5872 54.1213 48.2969 54.0365 48.9971C52.6363 59.8396 53.5698 73.0374 56.8156 83.5192C56.9005 89.2269 57.3672 94.8709 58.3219 100.154C58.0037 99.348 57.6642 98.5417 57.3672 97.7142C54.0153 88.6752 50.8118 79.4877 47.3326 70.4276C46.8446 65.4837 46.6749 60.5398 46.3355 55.6172C46.5052 54.1744 46.6325 52.7528 46.7173 51.3312C46.7385 51.6282 46.8022 51.9253 46.8658 52.2011C46.9083 54.5775 46.9083 56.9539 46.8658 59.3092C46.8658 60.1367 48.2872 60.1792 48.3084 59.3516C48.3721 58.0573 48.3721 56.7842 48.3509 55.5111C48.3933 50.928 48.1175 46.3661 47.7144 41.783C47.4598 38.9609 47.078 35.6084 46.4203 32.2135C46.3355 27.2697 46.1233 22.3682 44.4261 17.5941C44.1927 16.9364 43.3229 17.2546 43.3229 17.87C43.3229 19.4401 43.3866 20.9891 43.4502 22.5592C42.0076 19.4189 40.0558 16.7242 37.4252 14.9843C37.0433 14.7297 36.5554 14.8146 36.3644 15.2602C34.1581 20.2465 35.9826 25.4661 37.51 30.4312C39.7376 37.7303 40.7135 45.6446 44.511 52.3496C44.6595 53.6015 44.808 54.8534 45.0201 56.084C45.0838 56.4447 45.402 56.6357 45.699 56.6357C45.9536 60.3913 46.0809 64.1894 46.3779 67.945C44.0442 61.9615 41.5621 56.0416 38.8254 50.2702C39.0375 50.3763 39.3557 50.1641 39.2284 49.9095C38.4859 48.403 37.5525 46.8753 36.4493 45.4112C34.0096 40.5735 31.3577 35.8206 28.4088 31.2587C28.7483 31.2587 28.9392 30.7494 28.5573 30.5373C28.2179 30.3675 27.8997 30.1554 27.5814 29.9856C27.4329 29.7522 27.2632 29.4975 27.1147 29.2641C27.2208 29.0944 27.3056 28.9035 27.2208 28.6913C23.2536 17.4244 15.8708 4.79955 4.35107 0.0466683C3.9692 -0.123078 3.56612 0.195217 3.58733 0.598363C3.65098 1.46831 3.79948 2.317 4.01163 3.14451C2.82359 2.80502 1.61434 2.57162 0.383874 2.5504C0.129294 2.5504 -0.0192102 2.82626 0.00200472 3.03845C0.511164 16.3847 15.8496 24.9569 26.7116 30.4524C28.8968 34.0171 30.9122 37.6666 32.8215 41.3586C30.6152 39.2792 28.1118 37.5605 25.5236 36.4572C25.3963 36.2025 25.2266 35.9479 25.0569 35.757C24.1446 34.7173 22.3626 34.1231 21.5776 35.6509C21.4079 35.9691 21.3442 36.3086 21.323 36.6481C21.1533 36.7542 21.026 36.9664 21.1957 37.1362C21.2382 37.1786 21.3018 37.221 21.3442 37.2635C21.514 38.2819 22.2353 39.1943 23.296 39.4702C23.5506 39.5338 23.7203 39.1943 23.5718 39.0034C23.3597 38.7487 23.1475 38.5153 22.9566 38.2395C23.5506 38.4729 24.1658 38.6002 24.7386 38.5577C25.4812 38.4941 25.757 38.1334 25.7994 37.6666C29.0241 39.258 31.9517 41.7405 34.4127 44.5413C37.7222 51.225 40.6923 58.0785 43.4502 65.0381C35.5795 56.763 29.3423 41.1888 16.2102 40.8705C16.0829 40.8705 15.9769 40.913 15.892 40.9554C15.0222 40.8705 14.1099 40.8493 13.1765 40.9342C12.7946 40.9766 12.6461 41.3373 12.731 41.6768C14.3433 47.8301 19.4773 51.6706 24.5053 55.0868C30.1484 58.9273 41.5621 62.7041 44.3412 69.0908C44.4898 69.4303 44.9141 69.3242 44.9989 69.0696C47.2689 74.9258 49.4116 80.8245 51.5756 86.7444C50.7906 85.5562 49.9844 84.3679 49.1146 83.2433C47.3326 80.8669 44.8716 77.8327 41.8803 76.6232C41.5621 74.6924 38.5284 73.0162 36.916 74.2681C36.5766 74.5227 36.4069 74.8409 36.2796 75.1592C36.2371 75.2016 36.1947 75.2228 36.1735 75.2865C35.5158 77.1113 37.0645 79.2967 38.9739 79.4028C40.1619 79.4665 41.3924 78.7663 41.7955 77.6842C46.1657 79.5301 50.0056 84.9833 52.6999 89.8635C53.7183 92.6643 54.7366 95.4651 55.7761 98.2659C61.6102 114.052 68.4839 129.308 75.506 144.522C74.0422 142.93 72.4086 141.445 70.6902 140.045C70.7327 139.917 70.7327 139.769 70.5841 139.641C69.7992 139.047 69.0567 138.411 68.3354 137.753C68.4414 137.604 68.4414 137.371 68.2929 137.244C66.4897 135.483 65.5138 133.085 64.6864 130.751C64.3045 129.69 64.0075 128.608 63.7954 127.505C63.8802 127.568 63.9651 127.674 64.0712 127.738C64.3257 127.908 64.7076 127.865 64.8349 127.547C65.4289 125.977 65.3228 123.388 63.0528 123.494C62.3527 123.537 61.7587 124.067 61.589 124.746C61.3344 125.765 61.9072 126.826 62.7346 127.398C62.9255 128.629 63.4347 130.008 63.6044 130.56C63.9014 131.557 64.3045 132.809 64.8561 134.019C60.4858 128.587 57.5369 121.945 54.9487 115.495C55.0336 115.41 55.0972 115.346 55.1821 115.262C56.3701 113.798 55.5003 111.209 54.3335 110.042C53.6334 109.363 52.6787 109.257 51.7877 109.512C50.1329 109.978 50.4512 111.782 50.536 113.076C50.6209 114.052 51.2785 115.431 52.4241 115.368C52.4666 115.368 52.509 115.347 52.5514 115.325C52.9969 115.792 53.5061 116.089 54.0365 116.004C56.8581 123.049 60.0191 130.454 65.2168 136.034C62.2679 134.019 59.2129 132.109 56.3489 130.157C56.455 130.008 56.4762 129.775 56.2428 129.669C55.7761 129.457 55.2882 129.287 54.8214 129.096C54.2062 128.672 53.6122 128.247 53.0182 127.823C50.8542 126.21 48.86 124.428 46.9507 122.561C46.9507 122.561 46.9507 122.518 46.9507 122.497C45.2323 119.463 43.8533 116.323 42.6441 113.097C42.7077 112.949 42.7289 112.822 42.6653 112.652C40.2892 106.265 38.6769 99.5814 35.728 93.4493C35.6856 93.3432 35.6007 93.3008 35.537 93.3008C34.3702 90.5637 33.0549 87.8902 31.4638 85.344C31.2516 85.0045 30.7425 85.1105 30.5727 85.4288C29.9999 84.7923 29.3847 84.177 28.7483 83.6253C28.4513 83.3707 28.0482 83.5404 27.8997 83.8374C22.9778 93.1735 35.1552 107.071 41.456 113.119C42.4107 115.58 43.4927 117.978 44.7655 120.312C38.8678 114.095 33.7126 107.071 27.4966 101.173C27.4966 101.13 27.4966 101.088 27.4966 101.045C24.2083 91.7943 17.2285 78.3844 7.34238 74.9258C6.91808 74.7773 6.3877 75.0743 6.47256 75.5836C6.62107 76.4747 6.83322 77.3447 7.06658 78.1934C6.47256 77.8115 5.85733 77.4508 5.19967 77.1113C4.79658 76.8991 4.26621 77.3022 4.32985 77.7478C5.64518 86.1078 13.9614 97.8839 23.1475 100.048C23.8264 100.748 24.5265 101.427 25.1842 102.128C25.6509 102.637 26.4358 102.234 26.4146 101.703C26.5843 101.894 26.8389 101.915 27.0511 101.852C33.755 108.578 39.674 116.004 46.2718 122.858C46.293 122.9 46.3142 122.943 46.3355 122.964C46.3779 123.028 46.4203 123.028 46.4627 123.049C46.9507 123.558 47.4174 124.067 47.9266 124.555C48.2236 124.852 48.5418 125.107 48.8388 125.404C48.5418 125.234 48.2236 125.043 47.9054 124.852C42.7926 119.993 37.6161 115.262 33.161 109.702C32.9488 109.427 32.5245 109.745 32.7367 110.021C35.7916 114.243 39.2921 118.232 43.0684 121.967C42.8562 121.839 42.6653 121.733 42.4743 121.606C42.4743 121.606 42.4531 121.563 42.4319 121.542C42.1137 121.351 41.7742 121.16 41.456 120.969C32.3548 115.495 21.514 109.639 12.6249 113.925C12.2642 114.095 12.137 114.498 12.3703 114.837C12.7522 115.41 13.1977 115.919 13.6644 116.386C13.5371 116.407 13.4099 116.429 13.2826 116.471C12.9219 116.556 12.9431 117.065 13.1553 117.277C21.3867 124.81 33.755 125.404 45.0201 127.398C46.187 127.674 47.3326 127.95 48.5206 128.205C48.6479 128.247 48.754 128.205 48.8388 128.162C49.348 128.268 49.8359 128.438 50.3451 128.565C51.1512 129.223 51.9574 129.881 52.7636 130.518C53.0182 130.73 53.4425 130.348 53.2091 130.093C52.8697 129.732 52.509 129.393 52.1483 129.032C52.4878 129.117 52.8484 129.202 53.1879 129.308C54.9487 130.751 56.7308 132.109 58.5553 133.446C55.5003 132.788 52.2756 132.915 49.3055 133.87C49.2207 133.722 49.1146 133.573 49.0085 133.467C48.1599 132.618 46.6961 132.724 45.8687 133.573C44.8292 134.676 45.4232 136.395 46.7385 136.925C46.9507 137.01 47.1841 136.798 47.0992 136.586C46.8658 135.992 46.1657 135.058 46.6113 134.422C46.9507 133.934 47.6932 133.828 48.1599 134.167C48.2024 134.188 48.2236 134.231 48.266 134.273C47.969 134.379 47.672 134.507 47.375 134.634C46.8234 134.888 47.1628 135.78 47.7144 135.525C48.0326 135.377 48.3297 135.27 48.6479 135.164C48.7327 135.928 48.4782 136.862 48.0539 137.265C46.9931 138.262 45.3384 136.544 44.8292 135.737C44.617 135.398 44.023 135.737 44.214 136.098C44.9353 137.392 46.9083 139.366 48.5418 138.199C49.4753 137.52 49.8996 136.034 49.645 134.825C53.7607 133.509 57.6006 134.188 61.4829 135.674C63.9863 137.498 66.4684 139.302 68.887 141.233C65.0046 142.018 61.2283 142.76 57.4309 143.376C56.6035 143.164 55.7549 142.951 54.9275 142.76C49.4965 141.254 44.1079 139.663 38.5284 138.75C35.9401 138.347 29.7241 139.196 28.7483 141.339C28.5361 141.402 28.3027 141.466 28.1118 141.551C27.7724 141.7 27.6663 142.081 27.8784 142.4C28.5998 143.503 29.7029 144.246 30.9758 144.755C31.0395 144.797 31.1031 144.84 31.1668 144.882C39.674 150.187 49.348 147.81 58.1522 145.073C58.5977 145.179 59.0432 145.307 59.4887 145.413C60.1464 145.561 60.4222 144.903 60.21 144.437C60.698 144.288 61.1647 144.118 61.6527 143.97C64.2833 143.397 66.8927 142.676 69.5022 141.763C72.4298 144.14 75.2726 146.665 77.8397 149.593C82.7403 160.244 87.6834 170.896 92.287 181.696C92.5416 182.29 93.4326 181.929 93.2205 181.335C90.2292 173.442 86.9409 165.697 83.5465 157.995C83.5465 157.953 83.5465 157.932 83.5465 157.889C81.8281 152.585 82.4857 147.577 83.5465 142.591C83.7798 143.546 84.0132 144.458 84.3314 145.264C84.4799 145.646 85.074 145.901 85.4134 145.561C88.3198 142.761 89.9958 138.687 91.2263 134.634C92.5628 131.409 93.5175 127.738 94.0267 124.088C95.1086 119.187 95.7875 113.394 93.2841 109.639L93.3266 109.512ZM75.6545 79.2331C77.1396 78.5541 78.858 80.2304 79.3884 82.9675C80.0884 86.4473 79.9612 90.1605 79.4944 93.8524C79.1338 92.834 78.6246 91.8367 77.9033 90.9456C77.8184 90.8395 77.7124 90.7546 77.5851 90.7122C77.776 86.9778 77.6912 82.2461 75.6333 79.2544L75.6545 79.2331ZM72.2601 91.5185C72.4935 88.2721 72.9602 85.0257 73.8725 81.9066C74.0422 81.3337 74.2331 80.8669 74.4453 80.485C74.8484 81.5035 75.4424 82.7129 75.5272 83.0524C75.9515 84.7923 76.0152 86.6171 76.0788 88.3994C76.1212 89.4391 76.1212 90.5 76.0788 91.5397C74.2331 93.7251 72.6844 96.6957 71.6661 99.9209C71.751 96.9503 72.0692 94.001 72.2601 91.5185ZM72.6632 103.995C72.8541 102.679 74.3604 96.8018 75.9091 94.4041C75.7182 96.4199 75.4212 98.4356 75.0605 100.409C74.8484 101.576 74.2119 103.273 73.6603 104.907C73.4694 104.95 73.2997 105.077 73.2785 105.332C73.2148 105.777 73.1512 106.244 73.0875 106.711C73.0875 106.753 73.0663 106.796 73.0451 106.838C72.8329 106.69 72.6632 106.52 72.4935 106.308C72.5359 105.268 72.5996 104.398 72.6844 103.974L72.6632 103.995ZM73.9785 108.875C76.588 104.504 77.0759 98.3507 77.4154 93.5129C77.776 93.7463 78.1154 94.3829 78.4125 95.5924C78.6883 96.7169 78.7307 97.8627 78.6246 99.0297C78.3488 100.409 78.0518 101.746 77.7548 103.061C77.7336 103.167 77.7124 103.252 77.6699 103.358C76.7153 106.265 75.3363 109.13 74.5301 111.739C74.4877 111.909 74.4877 112.058 74.5513 112.164C74.0846 113.119 73.7028 113.522 73.4057 113.543C73.5967 111.973 73.7664 110.424 73.9573 108.896L73.9785 108.875ZM64.9834 101.406C65.1531 101.555 65.4713 101.406 65.4289 101.152C65.3228 100.685 65.3228 100.557 65.1319 100.154C65.0258 99.9421 64.7712 99.7936 64.5379 99.8997C64.3894 99.9633 64.2409 100.048 64.0924 100.112C63.9863 99.4965 63.9651 98.8812 64.0924 98.2446C65.5562 98.86 65.6835 100.6 65.4077 102.106C64.9834 101.894 64.644 101.618 64.3894 101.236C64.4318 101.067 64.6015 101.067 64.9622 101.406H64.9834ZM59.616 68.624C59.1493 72.1674 58.6826 75.7109 58.2795 79.2755C58.3219 76.3262 58.4492 73.3557 58.6189 70.4276C59.0644 69.1332 59.4675 67.8389 59.8069 66.5234C59.7433 67.2236 59.6797 67.9238 59.616 68.624ZM55.1184 49.1669C55.2033 48.3393 58.1098 38.388 59.5948 41.7193C60.2312 43.1621 60.2525 45.0293 60.3798 46.5782C60.6343 49.8883 60.5707 53.2196 60.401 56.5508C60.0191 59.4789 59.5948 62.4071 58.9584 65.314C58.9584 65.3564 58.9584 65.3988 58.9371 65.4413C59.2978 60.4762 59.7857 55.5536 60.2949 50.7795C60.3373 50.2702 59.5736 50.1429 59.4887 50.6522C59.4039 51.1402 59.3402 51.6494 59.2554 52.1374C59.3614 49.3366 59.4675 46.5571 59.616 43.7775C59.6584 43.1197 58.6613 42.9499 58.5977 43.6289C57.8552 51.4585 57.8552 59.3304 57.4309 67.1599C57.0702 71.3824 56.8581 75.6897 56.8156 79.9758C54.4396 70.1517 54.2274 58.9272 55.1184 49.1669ZM41.3287 38.8336C39.8649 32.9137 37.5949 27.1635 36.7251 21.1164C35.6219 13.4354 41.5197 22.2622 42.0288 23.408C42.8986 25.3388 43.4926 27.4182 44.023 29.4976C44.3837 32.6379 44.8292 35.7782 45.2959 38.9185C45.2959 38.9397 45.2959 38.9822 45.2959 39.0034C45.4232 41.9103 45.5293 44.7535 45.5081 47.6391C45.3596 46.5994 45.1686 45.581 44.9777 44.5413C44.8928 43.4592 44.808 42.4194 44.7443 41.4646C44.214 34.3777 43.1532 27.8214 39.6103 21.6256C39.3769 21.2225 38.7405 21.4559 38.6981 21.859C38.5284 23.3231 38.5284 22.8139 38.7405 24.3416C38.8041 24.8508 39.5467 24.7659 39.5255 24.2567C40.6074 24.7447 41.1166 25.7207 41.0741 27.1636C42.4743 30.6858 42.8138 34.8233 43.2593 38.579C43.3017 38.9397 43.3229 39.3216 43.3654 39.6823C43.0684 39.7672 42.8138 40.043 42.8986 40.425C42.6865 39.6399 43.5139 44.7959 44.0442 47.6604C44.0867 48.0635 44.1079 48.4454 44.1503 48.8486C42.6653 45.8144 42.0713 41.889 41.3075 38.8123L41.3287 38.8336ZM19.7531 19.2704C19.5834 19.0582 19.244 19.2916 19.4137 19.525C19.541 19.716 19.6683 19.9069 19.8168 20.0767C16.4012 16.8091 12.7098 13.7961 9.5063 10.2951C8.95471 9.67978 7.53331 7.28211 6.49378 5.18151C11.2671 7.79135 15.2556 12.82 18.3742 16.8091C19.8592 18.6975 21.1745 20.692 22.4686 22.7077C21.5776 21.5619 20.7078 20.3949 19.7743 19.2704H19.7531ZM23.296 25.4237C21.5988 24.0232 19.9228 22.5804 18.2893 21.0739C18.4802 21.2013 18.6712 21.1164 18.756 20.9466C20.3896 22.4107 21.9383 23.8748 23.296 25.4025V25.4237ZM5.58154 1.7441C9.56995 3.484 12.8583 7.11237 15.595 10.3588C17.1013 12.1623 18.4378 14.1144 19.6683 16.1301C15.8708 10.8468 11.1186 5.96655 5.83612 3.75986C5.26331 2.42311 5.00873 1.48953 5.58154 1.72293V1.7441ZM13.6432 20.9466C10.5458 18.6551 7.72425 16.0028 5.22088 13.0959C4.20257 11.9289 -2.565 1.95634 3.86313 3.99329C4.03285 4.05695 4.20257 4.14177 4.37228 4.20542C5.56032 7.87618 8.04247 11.0377 11.0126 13.9658C10.9701 13.9234 10.9277 13.9022 10.8853 13.8598C10.6307 13.6264 10.4185 13.4566 10.2064 13.2868C9.20929 12.2896 8.21219 11.2923 7.21509 10.3163C6.70593 9.80705 6.02705 10.6982 6.53621 11.1862C7.76668 12.4381 9.06079 13.6051 10.3549 14.7721C10.8428 15.345 11.352 15.8967 11.7127 16.2362C16.2314 20.5859 20.9624 24.7023 25.6721 28.8398C21.514 26.4422 17.4831 23.7899 13.622 20.9254L13.6432 20.9466ZM24.9932 37.5181C24.7811 37.7302 24.2295 37.6242 23.9749 37.5817C23.4657 37.5181 22.9354 37.3696 22.4686 37.1362C22.4262 36.924 22.405 36.7118 22.4262 36.4784C22.5535 35.5872 23.1475 35.6084 23.6991 35.9055C23.4021 36.0964 23.3172 36.6056 23.7415 36.7542C24.1446 36.9027 24.5689 37.0725 24.972 37.2422C25.0144 37.3695 25.0569 37.4757 24.9932 37.5393V37.5181ZM17.5468 47.724C16.2527 46.26 15.1495 44.6898 14.3221 42.9499C13.9827 42.2285 14.6191 42.1436 15.7011 42.3558C15.8071 44.2655 16.486 46.0478 17.568 47.724H17.5468ZM35.8977 60.455C35.3673 60.1579 34.837 59.8608 34.3278 59.5638C34.2641 59.5213 34.2005 59.5001 34.1581 59.4577C34.2005 59.2667 34.2005 59.0758 34.0096 58.9485C30.9546 56.7418 27.7724 54.7261 24.7386 52.4557C22.5535 50.8219 16.6982 44.4989 17.7377 42.9499C20.3684 43.8623 23.5506 45.3476 23.6991 45.4749C26.945 47.7877 29.6181 50.9068 32.2063 53.9198C33.3731 55.2777 34.5187 56.6569 35.6431 58.0573C31.4213 54.2804 27.0299 50.6521 23.0414 46.7055C22.7232 46.4085 22.1928 46.9177 22.4899 47.236C26.6904 51.713 31.1455 56.275 35.8553 60.4337L35.8977 60.455ZM39.7164 77.0688C40.0134 77.1113 40.2892 77.1537 40.565 77.2386C40.4165 77.663 39.9073 77.8963 39.4406 77.9388C39.2284 77.6205 39.0587 77.281 38.9102 76.9415C38.7617 76.602 38.2738 76.8142 38.3798 77.1537C38.4223 77.2598 38.4223 77.3659 38.4647 77.472C38.1041 77.281 37.807 77.0264 37.6373 76.5808C37.4464 76.0928 37.51 75.3077 38.1253 75.1804C38.7193 75.0531 39.7164 75.5411 40.268 76.1777C40.1407 76.1777 40.0134 76.114 39.8861 76.0928C39.2497 76.0504 39.0799 77.0052 39.7376 77.09L39.7164 77.0688ZM63.0316 124.64C63.0316 124.64 63.1589 124.555 63.265 124.555C64.3257 124.407 64.3469 125.616 64.1984 126.507C64.0499 126.38 63.9226 126.231 63.7954 126.083C63.7954 125.828 63.7317 125.574 63.6256 125.383C63.562 125.277 63.4347 125.171 63.3074 125.234C63.3074 125.234 63.3074 125.255 63.265 125.255C63.1801 125.064 63.0953 124.852 63.0316 124.64ZM53.3576 112.97C53.4212 113.14 53.4849 113.352 53.5698 113.564C53.5061 113.607 53.4212 113.67 53.3788 113.734C53.1242 113.925 52.8484 114.095 52.6151 114.116C52.3393 113.755 52.1271 113.331 51.9574 112.885C52.0211 112.906 52.1059 112.906 52.1696 112.864C52.4029 112.673 52.6151 112.44 52.8484 112.227C52.9333 112.143 52.9757 112.121 52.9969 112.1C53.1667 112.355 53.2515 112.694 53.3364 112.97H53.3576ZM51.8089 112.418C51.7665 112.227 51.7028 112.037 51.6816 111.867C51.6816 111.761 51.618 111.697 51.5543 111.655C51.5968 111.103 51.7665 110.636 52.2332 110.445C52.8484 110.212 53.4849 110.488 53.9092 110.954C54.4184 111.506 54.7366 112.376 54.779 113.182C54.6729 113.097 54.5456 113.055 54.3759 113.097C54.779 113.034 54.8002 113.416 54.6093 112.906C54.5244 112.694 54.4608 112.461 54.3759 112.249C54.2486 111.846 54.0577 111.379 53.7395 111.103C52.7848 110.297 51.9998 111.527 51.8301 112.418H51.8089ZM32.2912 90.3727C32.5457 90.8183 32.7367 91.1366 32.8003 91.2426C34.0096 93.6615 34.9218 96.2289 35.8341 98.7751C36.1947 99.8148 36.5129 100.854 36.8312 101.915C35.0915 98.1598 33.3943 94.3829 32.2912 90.3727ZM37.7858 107.199C36.5129 105.629 35.3249 104.016 34.1581 102.382C30.997 97.8839 27.5814 92.1974 28.027 86.4897C28.1542 84.8135 29.3635 86.0229 30.5303 87.6568C30.8698 94.4466 34.943 101.045 37.7858 107.199ZM40.9256 111.633C41.0742 112.312 40.2043 110.594 39.3982 109.321C39.674 109.236 39.8861 109.023 39.8225 108.663C39.8013 108.535 39.7588 108.387 39.7376 108.238C40.1195 109.384 40.5013 110.509 40.9256 111.633ZM5.75126 78.639C5.83612 78.9785 6.83322 79.8696 7.97883 80.8032C10.7156 87.6355 16.1254 93.025 21.4079 98.2659C13.8554 94.7224 7.55453 86.0654 5.75126 78.6178V78.639ZM9.9306 82.3734C10.6943 82.9675 11.2884 83.4555 11.4369 83.6041C13.3886 85.6622 15.0858 87.9962 16.7618 90.2878C17.9074 91.8579 19.0106 93.4705 20.1138 95.0619C18.5439 93.4705 16.974 91.8791 15.4677 90.2029C13.3038 87.8052 11.5005 85.1954 9.9306 82.3734ZM23.7203 97.8415C19.1379 91.3275 14.9373 83.9436 8.59406 79.2331C8.55163 79.127 8.5092 79.0209 8.46677 78.9149C6.83322 74.5015 8.99714 76.9415 10.7156 78.1722C17.3346 82.9039 22.1928 91.5609 25.3751 99.2419C24.8235 98.7751 24.2719 98.3083 23.6991 97.8627L23.7203 97.8415ZM19.1591 113.861C19.3076 113.861 19.4349 113.861 19.5834 113.882C19.4137 114.158 19.4349 114.561 19.6895 114.774C20.1138 115.156 20.5593 115.516 20.9836 115.856C18.947 115.665 16.9103 115.75 14.8949 116.11C11.5005 113.692 18.4802 113.819 19.1803 113.84L19.1591 113.861ZM33.4368 124.025C29.1089 123.197 24.8447 122.306 20.6866 120.863C20.3896 120.757 17.8226 119.357 16.2102 118.296C18.4166 119.548 20.9836 120.248 23.5082 120.948C26.9662 121.924 30.3606 123.006 33.7762 124.11C33.6701 124.088 33.5428 124.067 33.4368 124.046V124.025ZM42.6228 125.701C40.6074 125.128 38.6132 124.47 36.619 123.834C32.3124 122.455 28.0482 120.969 23.6991 119.781C20.9836 119.038 18.6075 118.275 16.2102 116.938C17.9711 116.789 19.7531 117.023 21.4715 117.256C22.0868 117.341 22.702 117.468 23.3172 117.596C29.1301 121.415 36.1099 123.473 42.8986 125.425C43.3017 125.637 43.7048 125.828 44.1079 126.041C43.5987 125.934 43.1108 125.828 42.6016 125.743L42.6228 125.701ZM42.5592 123.834C36.6614 120.715 30.2121 117.447 23.7415 116.259C23.0627 115.813 22.3838 115.368 21.7261 114.88C22.5111 115.474 27.539 116.195 29.1089 116.514C29.3847 116.62 29.6817 116.747 29.9575 116.853C34.9642 118.911 39.6315 121.648 44.32 124.364C43.7472 124.195 43.1532 124.025 42.5804 123.834H42.5592ZM31.485 139.938C34.6884 138.411 39.9285 139.705 44.1291 140.936C42.9835 140.83 41.8591 140.724 40.6923 140.681C38.1253 140.596 33.458 140.363 30.2121 140.915C30.403 140.596 30.8061 140.278 31.4638 139.96L31.485 139.938ZM45.5081 146.516C43.1108 146.389 40.7135 146.071 38.3374 145.689C39.8649 145.689 41.3075 145.646 42.4743 145.667C46.3355 145.689 50.1329 145.519 53.9092 145.116C51.1937 145.986 48.457 146.665 45.5293 146.516H45.5081ZM45.7414 144.522C41.8803 144.691 38.0404 144.649 34.2005 144.182C33.9035 144.14 33.6489 144.118 33.3943 144.076C32.6518 143.758 31.9517 143.397 31.3789 143.015C32.2699 142.718 34.2429 142.463 35.8977 142.315C41.5409 141.827 46.9507 142.485 52.4666 143.588C52.8272 143.652 53.294 143.737 53.7819 143.8C51.13 144.14 48.457 144.394 45.7202 144.522H45.7414ZM92.4568 114.859C93.1144 122.391 90.8444 131.048 87.6198 137.774C85.9013 141.339 85.074 139.981 84.6497 137.774C84.9467 136.416 85.2437 135.058 85.477 133.7C85.7316 133.658 85.9438 133.488 86.0074 133.191C86.2408 132.003 86.2196 132.109 86.2196 130.963C86.2196 130.73 86.0923 130.581 85.9013 130.475C85.9438 130.03 85.9862 129.584 86.0074 129.138C86.1559 126.274 86.9197 123.452 87.938 120.715C87.8743 121.924 87.8107 123.07 87.7682 123.749C87.4925 128.12 86.7711 132.406 86.7075 136.798C86.7075 137.307 87.5137 137.307 87.5773 136.798C88.5108 130.263 89.8261 123.813 89.3169 117.277C89.5715 116.704 89.8261 116.132 90.0807 115.559C90.8868 113.776 91.4809 112.8 91.9688 112.334C92.2022 112.843 92.3719 113.649 92.478 114.859H92.4568Z" fill="#BBC296"/>
</svg>
