<svg width="62" height="146" viewBox="0 0 62 146" fill="none" xmlns="http://www.w3.org/2000/svg">
<path d="M0.399578 53.2944C0.272781 53.0408 0.145973 52.7872 0.0332642 52.5336C-0.149887 52.1391 0.470024 51.7447 0.709526 52.1391C0.765881 52.2518 0.850391 52.3364 0.906746 52.4491C0.864479 52.3646 0.836323 52.2941 0.794056 52.2237C0.681347 51.9701 1.06174 51.8151 1.18853 52.0546C1.80843 53.3085 2.51284 54.4919 3.24544 55.6331C22.0536 63.8608 35.8885 80.5838 44.4121 99.068C42.3974 91.0939 40.4814 83.0775 38.3681 75.1598C37.4101 72.652 36.1985 70.102 35.5927 67.4674C35.5504 67.4252 35.5081 67.397 35.48 67.3125C35.3391 66.8194 35.1841 66.3544 35.0151 65.8754C34.9728 65.8332 34.9305 65.7909 34.9023 65.7205C34.8601 65.5655 34.8319 65.4105 34.7896 65.2556C31.3239 56.2812 22.913 51.9983 17.4185 44.2496C12.0648 36.7122 13.3469 25.6809 11.1773 17.101C11.0505 16.5657 11.8253 16.298 12.1353 16.6925C14.4599 19.6933 18.0807 21.6657 19.6586 25.0047C19.8277 21.5248 20.4334 18.0168 21.5182 14.5792C21.645 14.1706 22.1663 14.1988 22.4058 14.4524C24.7445 16.9179 26.6887 19.5665 28.323 22.3842C28.323 17.2137 26.6324 12.0573 25.3363 6.98547C25.3363 6.98547 25.3081 6.97138 25.294 6.95729C25.2376 7.04182 25.1812 7.12635 25.1249 7.21088C24.829 7.59127 24.2655 7.33768 24.2796 6.87276C24.3923 5.95701 24.336 5.05534 24.1387 4.15368C24.0542 3.85782 23.9697 3.56197 23.8851 3.26611C23.8711 3.20975 23.857 3.1534 23.8429 3.11113C23.8147 3.04069 23.8006 2.97024 23.7865 2.88571C23.5188 1.9136 25.0122 1.63184 25.4067 2.44897C25.8857 3.42108 26.1252 4.2523 26.0688 5.05534L26.3365 6.02745C26.4352 6.37967 26.2943 6.67552 26.0829 6.85867C27.2382 12.4518 29.436 17.8336 29.0274 23.624C29.1261 23.8212 29.2528 24.0044 29.3514 24.2016C29.0556 20.6232 28.6048 14.6214 30.6476 13.6634C30.873 13.5507 31.1407 13.6493 31.2957 13.8325C36.4943 20.116 40.3546 28.3296 40.1433 36.67C40.0305 41.2065 38.2413 45.0667 36.6352 48.9833C36.8325 48.9833 37.0297 49.1806 36.9311 49.3919C35.804 51.7024 35.3532 54.0411 35.2123 56.4361C35.48 55.1118 35.8885 53.8298 36.4098 52.6322C36.5789 52.2378 37.1706 52.4773 37.0438 52.8858C36.114 55.6613 36.1703 58.3663 35.959 61.1417C36.5648 62.7055 37.0156 64.2975 37.227 65.7768C39.4811 73.0324 41.0309 80.5698 42.7637 87.9803C42.4961 66.5235 43.1159 40.7275 56.7959 23.3986C57.0495 21.6516 57.0354 19.9187 56.5987 18.1999C56.4437 17.6082 57.4158 17.3546 57.6271 17.9181C58.3033 19.7919 58.7824 21.708 59.1205 23.6522C61.9664 35.2188 61.8818 47.2504 59.5572 58.9016C58.3174 65.1287 55.7533 71.1023 53.4992 77.0054C51.5409 82.1195 50.0193 87.6422 45.2292 90.798C45.187 90.8262 45.1588 90.8262 45.1165 90.8262C45.0461 93.503 45.1588 96.1798 45.5532 98.8285C49.9911 114.622 55.6547 129.795 60.8393 145.363C60.9238 145.616 60.5857 145.757 60.4589 145.532C54.8376 134.529 50.9069 122.92 47.6102 111.085C46.7226 109.085 45.6378 107.197 44.4262 105.394C43.6654 104.83 42.9046 104.267 42.1016 103.689C42.0452 103.689 41.9889 103.675 41.9607 103.619C41.9466 103.59 41.9325 103.576 41.9184 103.548C24.5896 91.0516 -0.333027 76.2728 0.441841 53.3226L0.399578 53.2944ZM34.0993 51.7447C33.8457 46.6164 35.8744 41.615 35.8744 36.4586C35.8744 36.1769 36.3535 36.1769 36.3675 36.4586C36.4521 40.9388 35.5786 45.433 34.8319 49.8709C36.2126 46.701 38.0722 43.6015 38.7344 40.1921C39.9742 33.7677 37.5369 26.7376 34.7896 21.0599C33.888 19.2988 32.8313 17.6364 31.6479 16.0585C30.0841 17.3546 29.6473 19.0593 30.3518 21.1726C30.3659 22.7928 30.3799 24.3002 30.1827 25.8923C31.2675 28.2169 32.1691 30.6401 32.8736 33.2042C34.6769 39.7131 32.8032 46.1938 32.6764 52.759C32.9018 53.3789 33.1272 53.9988 33.3526 54.6187C33.4935 53.6466 33.7753 52.7027 34.0993 51.7588V51.7447ZM31.6479 53.1394C31.5493 52.8577 31.8451 52.6745 32.0565 52.7872C29.6051 46.87 27.7595 40.7697 26.4211 34.4862C26.3647 34.2326 26.7592 34.1904 26.8155 34.4299C28.168 40.0371 30.0418 45.4612 32.0001 50.8571C32.0001 46.3769 32.944 41.9391 32.7045 37.4167C32.5073 33.8382 31.3661 30.2033 29.7178 26.7939C29.6191 26.7516 29.5205 26.653 29.5205 26.5121C29.5205 26.4699 29.5205 26.4135 29.5205 26.3713C29.2951 25.9063 29.0415 25.4696 28.7879 25.0188C28.5766 25.1596 28.1962 25.0188 28.2244 24.6947C28.2385 24.4834 28.2526 24.2862 28.2666 24.0748C26.7028 21.3557 24.8995 18.8339 23.0539 16.622C22.124 15.5231 20.4475 24.9483 20.4053 25.4696C20.363 26.0472 20.3348 26.6108 20.3208 27.1884C20.3348 27.287 20.363 27.3856 20.3771 27.4983C20.3771 27.5547 20.3489 27.611 20.3348 27.6533C20.363 31.5136 21.2365 35.3456 22.4622 38.9805C24.3782 44.6722 28.0694 49.2228 31.8592 53.7171C31.7888 53.5339 31.7324 53.3367 31.662 53.1535L31.6479 53.1394ZM28.8724 51.8996C22.8003 44.9963 19.7009 36.3037 19.6163 27.3293C18.5738 24.0467 16.1365 22.0884 13.5723 19.8624C12.9384 19.3129 12.6566 18.9184 12.558 18.7916C12.6425 18.9325 12.9524 19.5242 13.2342 20.8063C14.6149 27.1743 14.4036 33.5846 16.5309 39.8399C19.3346 48.0676 28.7456 52.3786 33.4512 59.2961C32.296 56.8306 30.8871 54.5342 28.5484 52.5759C28.2103 52.2941 28.5061 51.8433 28.8724 51.9278V51.8996ZM53.3583 74.6948C55.5984 68.7777 57.768 62.9169 59.0078 56.7038C60.5293 49.0538 60.3462 41.7559 59.5713 34.3876C59.3036 39.1073 58.5288 43.8269 57.7257 48.3634C55.5843 60.5218 51.6818 72.1448 47.8215 83.8383C47.6243 84.4441 46.7648 84.0637 46.9198 83.472C50.4419 70.3556 54.9785 57.8168 57.2045 44.3482C58.2611 37.9379 58.7823 31.429 58.1484 24.9483C58.1202 24.6947 58.1202 24.103 58.1202 23.3845C58.0779 23.0886 58.0357 22.7787 57.9934 22.4828C57.9089 22.6096 57.8384 22.7364 57.7539 22.8632C57.5285 24.3284 57.2044 25.7514 56.7818 27.2166C55.1334 32.8097 52.4566 37.8111 51.3436 43.5874C50.0052 50.5894 50.287 57.8027 49.0331 64.8188C47.5538 73.131 45.3842 81.7109 45.0883 90.2626C49.5967 86.0079 51.2168 80.3162 53.3442 74.6948H53.3583ZM48.2582 62.9732C49.6671 55.1118 48.8641 46.8419 51.2168 39.1355C52.5693 34.6835 55.387 29.8089 56.4718 24.9342C50.2588 35.0075 46.8776 45.3626 45.4969 57.3096C44.2008 68.51 45.2433 79.9921 43.5104 91.108C43.5104 91.1361 43.4963 91.1643 43.4822 91.1784C43.7358 92.235 44.0035 93.2917 44.2712 94.3342C43.4963 83.8946 46.4267 73.1169 48.2441 62.9591L48.2582 62.9732ZM4.47118 58.803C3.3441 57.7464 2.42832 56.577 1.58301 55.3372C1.58301 55.3372 1.58301 55.3513 1.58301 55.3654C2.83689 57.2814 4.76701 60.24 6.11951 62.3251C13.0651 72.9197 22.8707 81.7673 32.0424 90.4881C27.7735 84.9231 23.5329 79.33 18.8133 74.1172C14.15 68.9749 8.95129 64.6075 4.92198 59.1975C4.78109 59.0707 4.62612 58.9439 4.48524 58.8171L4.47118 58.803ZM35.6631 93.9538C35.6631 93.9538 35.7336 94.0102 35.7617 94.0525C30.6899 85.3317 26.1393 76.1601 18.4329 69.5807C15.1221 66.7489 11.4309 64.4243 7.99331 61.7757C11.6141 65.8332 15.7279 69.4962 19.5177 73.5255C25.463 79.8231 30.6758 86.8391 35.649 93.9538H35.6631ZM45.7505 105.45C45.8914 105.591 46.0322 105.732 46.1731 105.873C46.0041 105.211 45.835 104.548 45.666 103.886C41.1858 94.7287 36.5366 85.853 30.1263 77.7943C23.0257 68.8763 14.0936 62.4942 4.37255 56.9151C9.99386 62.8605 17.6862 66.5235 23.3075 72.652C29.6755 79.5976 34.8742 88.8961 39.3825 97.645C41.7212 100.068 43.9472 102.661 45.7505 105.436V105.45ZM20.673 85.8248C26.562 90.7839 33.1976 95.0105 39.2979 99.8146C39.2134 99.6878 39.1289 99.547 39.0443 99.4061C37.8891 97.9972 36.762 96.5602 35.635 95.1232C32.6482 92.1646 29.5487 89.3328 26.6324 86.4587C17.024 77.0054 7.8806 67.6647 1.65348 55.7599C2.89326 61.7616 4.47114 67.0871 7.951 72.4266C11.3182 77.5971 15.9956 81.8659 20.673 85.8107V85.8248Z" fill="#BBC296"/>
<path d="M26.6889 18.1152C26.7453 18.3688 26.3226 18.4815 26.2522 18.242C24.6461 13.4942 23.6317 7.6052 20.4759 3.49136C20.4336 3.51954 20.3914 3.54771 20.335 3.57589C20.3068 3.66042 20.2927 3.73086 20.2505 3.82948C20.1096 4.1676 19.532 4.22396 19.4052 3.82948C19.3347 3.61815 19.2643 3.36457 19.1797 3.11097C18.7571 2.15295 18.7148 1.98389 18.4753 0.941342C18.2499 -0.0448541 19.7292 -0.354801 20.1237 0.49051C20.3632 1.01178 20.49 1.44852 20.5604 1.87118C23.7163 6.85851 25.3787 12.3953 26.6889 18.1293V18.1152Z" fill="#BBC296"/>
<path d="M15.6858 6.94297C16.4607 11.6204 17.5314 16.2977 18.3768 20.961C18.4472 21.3555 17.8414 21.426 17.7709 21.0456C17.0242 17.0726 16.658 12.677 15.39 8.7463C14.9251 9.02807 14.1924 8.88719 14.0797 8.18276C13.8825 6.95706 13.8684 5.90042 13.9952 4.67472C14.1079 3.61809 15.7422 3.604 15.8549 4.67472C15.9676 5.60457 15.9254 6.26672 15.6858 6.95706V6.94297Z" fill="#BBC296"/>
<path d="M16.7002 19.1156C16.7848 19.5523 16.1085 19.6369 16.0099 19.2142C15.2491 15.7484 13.5444 12.3531 11.741 9.12683C11.5579 9.26771 11.2621 9.25362 11.1071 8.98594C10.8535 8.5492 10.6281 8.11245 10.4027 7.66162C10.2759 7.59118 10.149 7.49256 10.0645 7.30941C9.75456 6.64725 9.52916 6.01326 9.33192 5.33701C9.33192 5.32293 9.33191 5.30884 9.31782 5.29475C9.30373 5.22431 9.27557 5.15387 9.24739 5.08343C9.00789 4.1395 10.4731 3.81546 10.8535 4.64668C11.3325 5.73149 11.6424 6.61907 11.7974 7.67571C13.5021 11.4655 15.869 14.9172 16.6861 19.1156H16.7002Z" fill="#BBC296"/>
<path d="M27.675 29.3296C29.1543 33.3871 30.4364 37.5714 30.1405 41.9247C30.1405 42.0797 29.8729 42.0797 29.8588 41.9247C29.5488 37.6559 28.7317 33.528 27.3228 29.4705C27.2383 29.2451 27.5905 29.0901 27.675 29.3155V29.3296Z" fill="#BBC296"/>
<path d="M22.1947 45.9683C19.5602 42.587 17.9963 38.6281 17.0101 34.4861C16.9538 34.2325 17.3764 34.1198 17.4469 34.3734C18.6162 38.4309 20.3491 42.1644 22.4624 45.8133C22.5469 45.9683 22.3074 46.1091 22.1947 45.9683Z" fill="#BBC296"/>
</svg>
