<svg width="62" height="146" viewBox="0 0 62 146" fill="none" xmlns="http://www.w3.org/2000/svg">
<path d="M60.8806 53.2944C61.0074 53.0408 61.1342 52.7872 61.2469 52.5336C61.43 52.1391 60.8101 51.7447 60.5706 52.1391C60.5143 52.2518 60.4298 52.3364 60.3734 52.4491C60.4157 52.3646 60.4438 52.2941 60.4861 52.2237C60.5988 51.9701 60.2184 51.8151 60.0916 52.0546C59.4717 53.3085 58.7673 54.4919 58.0347 55.6331C39.2265 63.8608 25.3916 80.5838 16.8681 99.068C18.8827 91.0939 20.7987 83.0775 22.912 75.1598C23.87 72.652 25.0817 70.102 25.6875 67.4674C25.7297 67.4252 25.772 67.397 25.8002 67.3125C25.9411 66.8194 26.096 66.3544 26.2651 65.8754C26.3074 65.8332 26.3497 65.7909 26.3778 65.7205C26.4201 65.5655 26.4483 65.4105 26.4905 65.2556C29.9563 56.2812 38.3672 51.9983 43.8617 44.2496C49.2153 36.7122 47.9332 25.6809 50.1029 17.101C50.2297 16.5657 49.4548 16.298 49.1449 16.6925C46.8203 19.6933 43.1995 21.6657 41.6216 25.0047C41.4525 21.5248 40.8467 18.0168 39.7619 14.5792C39.6351 14.1706 39.1138 14.1988 38.8743 14.4524C36.5356 16.9179 34.5914 19.5665 32.9571 22.3842C32.9571 17.2137 34.6478 12.0573 35.9439 6.98547C35.9439 6.98547 35.9721 6.97138 35.9862 6.95729C36.0425 7.04182 36.0989 7.12635 36.1553 7.21088C36.4511 7.59127 37.0146 7.33768 37.0005 6.87276C36.8878 5.95701 36.9442 5.05534 37.1414 4.15368C37.226 3.85782 37.3105 3.56197 37.395 3.26611C37.4091 3.20975 37.4232 3.1534 37.4373 3.11113C37.4655 3.04069 37.4795 2.97024 37.4936 2.88571C37.7613 1.9136 36.2679 1.63184 35.8735 2.44897C35.3945 3.42108 35.155 4.2523 35.2113 5.05534L34.9436 6.02745C34.845 6.37967 34.9859 6.67552 35.1972 6.85867C34.0419 12.4518 31.8441 17.8336 32.2527 23.624C32.1541 23.8212 32.0273 24.0044 31.9287 24.2016C32.2246 20.6232 32.6754 14.6214 30.6325 13.6634C30.4071 13.5507 30.1395 13.6493 29.9845 13.8325C24.7858 20.116 20.9256 28.3296 21.1369 36.67C21.2496 41.2065 23.0388 45.0667 24.6449 48.9833C24.4477 48.9833 24.2505 49.1806 24.3491 49.3919C25.4762 51.7024 25.927 54.0411 26.0679 56.4361C25.8002 55.1118 25.3916 53.8298 24.8703 52.6322C24.7013 52.2378 24.1096 52.4773 24.2363 52.8858C25.1662 55.6613 25.1099 58.3663 25.3212 61.1417C24.7154 62.7055 24.2645 64.2975 24.0532 65.7768C21.799 73.0324 20.2493 80.5698 18.5164 87.9803C18.7841 66.5235 18.1642 40.7275 4.48427 23.3986C4.23068 21.6516 4.24474 19.9187 4.68149 18.1999C4.83646 17.6082 3.86438 17.3546 3.65305 17.9181C2.97681 19.7919 2.4978 21.708 2.15968 23.6522C-0.686203 35.2188 -0.601668 47.2504 1.72294 58.9016C2.96272 65.1287 5.52682 71.1023 7.78098 77.0054C9.73928 82.1195 11.2608 87.6422 16.0509 90.798C16.0932 90.8262 16.1214 90.8262 16.1637 90.8262C16.2341 93.503 16.1214 96.1798 15.7269 98.8285C11.289 114.622 5.62545 129.795 0.440876 145.363C0.356345 145.616 0.694454 145.757 0.82125 145.532C6.44257 134.529 10.3733 122.92 13.67 111.085C14.5575 109.085 15.6424 107.197 16.854 105.394C17.6148 104.83 18.3755 104.267 19.1786 103.689C19.2349 103.689 19.2913 103.675 19.3195 103.619C19.3336 103.59 19.3476 103.576 19.3617 103.548C36.6906 91.0516 61.6132 76.2728 60.8383 53.3226L60.8806 53.2944ZM27.1808 51.7447C27.4344 46.6164 25.4057 41.615 25.4057 36.4586C25.4057 36.1769 24.9267 36.1769 24.9126 36.4586C24.8281 40.9388 25.7016 45.433 26.4483 49.8709C25.0676 46.701 23.2079 43.6015 22.5458 40.1921C21.306 33.7677 23.7433 26.7376 26.4905 21.0599C27.3922 19.2988 28.4488 17.6364 29.6323 16.0585C31.1961 17.3546 31.6328 19.0593 30.9284 21.1726C30.9143 22.7928 30.9002 24.3002 31.0974 25.8923C30.0126 28.2169 29.111 30.6401 28.4066 33.2042C26.6032 39.7131 28.477 46.1938 28.6038 52.759C28.3784 53.3789 28.1529 53.9988 27.9275 54.6187C27.7866 53.6466 27.5049 52.7027 27.1808 51.7588V51.7447ZM29.6323 53.1394C29.7309 52.8577 29.435 52.6745 29.2237 52.7872C31.6751 46.87 33.5207 40.7697 34.8591 34.4862C34.9154 34.2326 34.521 34.1904 34.4646 34.4299C33.1121 40.0371 31.2384 45.4612 29.2801 50.8571C29.2801 46.3769 28.3361 41.9391 28.5756 37.4167C28.7729 33.8382 29.914 30.2033 31.5624 26.7939C31.661 26.7516 31.7596 26.653 31.7596 26.5121C31.7596 26.4699 31.7596 26.4135 31.7596 26.3713C31.985 25.9063 32.2386 25.4696 32.4922 25.0188C32.7036 25.1596 33.0839 25.0188 33.0558 24.6947C33.0417 24.4834 33.0276 24.2862 33.0135 24.0748C34.5773 21.3557 36.3807 18.8339 38.2263 16.622C39.1561 15.5231 40.8326 24.9483 40.8749 25.4696C40.9171 26.0472 40.9453 26.6108 40.9594 27.1884C40.9453 27.287 40.9172 27.3856 40.9031 27.4983C40.9031 27.5547 40.9313 27.611 40.9453 27.6533C40.9172 31.5136 40.0437 35.3456 38.818 38.9805C36.9019 44.6722 33.2108 49.2228 29.4209 53.7171C29.4914 53.5339 29.5477 53.3367 29.6182 53.1535L29.6323 53.1394ZM32.4077 51.8996C38.4799 44.9963 41.5793 36.3037 41.6638 27.3293C42.7064 24.0467 45.1437 22.0884 47.7078 19.8624C48.3418 19.3129 48.6236 18.9184 48.7222 18.7916C48.6376 18.9325 48.3277 19.5242 48.046 20.8063C46.6653 27.1743 46.8766 33.5846 44.7492 39.8399C41.9456 48.0676 32.5345 52.3786 27.8289 59.2961C28.9842 56.8306 30.393 54.5342 32.7317 52.5759C33.0698 52.2941 32.774 51.8433 32.4077 51.9278V51.8996ZM7.92187 74.6948C5.6818 68.7777 3.51215 62.9169 2.27237 56.7038C0.750806 49.0538 0.933965 41.7559 1.70883 34.3876C1.97651 39.1073 2.75138 43.8269 3.55442 48.3634C5.69588 60.5218 9.59839 72.1448 13.4586 83.8383C13.6559 84.4441 14.5153 84.0637 14.3603 83.472C10.8382 70.3556 6.30168 57.8168 4.07569 44.3482C3.01905 37.9379 2.4978 31.429 3.13179 24.9483C3.15996 24.6947 3.15995 24.103 3.15995 23.3845C3.20221 23.0886 3.24447 22.7787 3.28674 22.4828C3.37127 22.6096 3.44173 22.7364 3.52626 22.8632C3.75168 24.3284 4.07572 25.7514 4.49837 27.2166C6.14673 32.8097 8.82353 37.8111 9.93652 43.5874C11.2749 50.5894 10.9932 57.8027 12.2471 64.8188C13.7263 73.131 15.896 81.7109 16.1918 90.2626C11.6835 86.0079 10.0633 80.3162 7.93597 74.6948H7.92187ZM13.0219 62.9732C11.6131 55.1118 12.4161 46.8419 10.0633 39.1355C8.71081 34.6835 5.89314 29.8089 4.80832 24.9342C11.0214 35.0075 14.4026 45.3626 15.7832 57.3096C17.0794 68.51 16.0368 79.9921 17.7697 91.108C17.7697 91.1361 17.7838 91.1643 17.7979 91.1784C17.5443 92.235 17.2766 93.2917 17.0089 94.3342C17.7838 83.8946 14.8534 73.1169 13.036 62.9591L13.0219 62.9732ZM56.809 58.803C57.9361 57.7464 58.8518 56.577 59.6971 55.3372C59.6971 55.3372 59.6971 55.3513 59.6971 55.3654C58.4433 57.2814 56.5131 60.24 55.1606 62.3251C48.215 72.9197 38.4094 81.7673 29.2378 90.4881C33.5066 84.9231 37.7472 79.33 42.4669 74.1172C47.1302 68.9749 52.3289 64.6075 56.3582 59.1975C56.4991 59.0707 56.654 58.9439 56.7949 58.8171L56.809 58.803ZM25.617 93.9538C25.617 93.9538 25.5466 94.0102 25.5184 94.0525C30.5903 85.3317 35.1409 76.1601 42.8473 69.5807C46.1581 66.7489 49.8493 64.4243 53.2868 61.7757C49.6661 65.8332 45.5523 69.4962 41.7625 73.5255C35.8171 79.8231 30.6044 86.8391 25.6311 93.9538H25.617ZM15.5297 105.45C15.3888 105.591 15.2479 105.732 15.107 105.873C15.2761 105.211 15.4451 104.548 15.6142 103.886C20.0943 94.7287 24.7435 85.853 31.1538 77.7943C38.2544 68.8763 47.1865 62.4942 56.9076 56.9151C51.2863 62.8605 43.594 66.5235 37.9726 72.652C31.6046 79.5976 26.406 88.8961 21.8976 97.645C19.559 100.068 17.333 102.661 15.5297 105.436V105.45ZM40.6072 85.8248C34.7182 90.7839 28.0825 95.0105 21.9822 99.8146C22.0667 99.6878 22.1513 99.547 22.2358 99.4061C23.3911 97.9972 24.5181 96.5602 25.6452 95.1232C28.632 92.1646 31.7315 89.3328 34.6478 86.4587C44.2561 77.0054 53.3996 67.6647 59.6267 55.7599C58.3869 61.7616 56.809 67.0871 53.3292 72.4266C49.962 77.5971 45.2846 81.8659 40.6072 85.8107V85.8248Z" fill="#BBC296"/>
<path d="M34.5913 18.1152C34.535 18.3688 34.9576 18.4815 35.0281 18.242C36.6342 13.4942 37.6485 7.6052 40.8044 3.49136C40.8466 3.51954 40.8889 3.54771 40.9453 3.57589C40.9734 3.66042 40.9875 3.73086 41.0298 3.82948C41.1707 4.1676 41.7483 4.22396 41.8751 3.82948C41.9456 3.61815 42.016 3.36457 42.1005 3.11097C42.5232 2.15295 42.5655 1.98389 42.805 0.941342C43.0304 -0.0448541 41.5511 -0.354801 41.1566 0.49051C40.9171 1.01178 40.7903 1.44852 40.7198 1.87118C37.564 6.85851 35.9016 12.3953 34.5913 18.1293V18.1152Z" fill="#BBC296"/>
<path d="M45.5943 6.94297C44.8194 11.6204 43.7487 16.2977 42.9034 20.961C42.8329 21.3555 43.4388 21.426 43.5092 21.0456C44.2559 17.0726 44.6222 12.677 45.8901 8.7463C46.3551 9.02807 47.0877 8.88719 47.2004 8.18276C47.3977 6.95706 47.4117 5.90042 47.2849 4.67472C47.1722 3.61809 45.538 3.604 45.4252 4.67472C45.3125 5.60457 45.3548 6.26672 45.5943 6.95706V6.94297Z" fill="#BBC296"/>
<path d="M44.5799 19.1156C44.4954 19.5523 45.1717 19.6369 45.2703 19.2142C46.0311 15.7484 47.7358 12.3531 49.5391 9.12683C49.7223 9.26771 50.0181 9.25362 50.1731 8.98594C50.4267 8.5492 50.6521 8.11245 50.8775 7.66162C51.0043 7.59118 51.1311 7.49256 51.2156 7.30941C51.5256 6.64725 51.751 6.01326 51.9482 5.33701C51.9482 5.32293 51.9482 5.30884 51.9623 5.29475C51.9764 5.22431 52.0046 5.15387 52.0328 5.08343C52.2723 4.1395 50.807 3.81546 50.4266 4.64668C49.9476 5.73149 49.6377 6.61907 49.4827 7.67571C47.778 11.4655 45.4112 14.9172 44.594 19.1156H44.5799Z" fill="#BBC296"/>
<path d="M33.6051 29.3296C32.1258 33.3871 30.8438 37.5714 31.1396 41.9247C31.1396 42.0797 31.4073 42.0797 31.4214 41.9247C31.7313 37.6559 32.5485 33.528 33.9573 29.4705C34.0419 29.2451 33.6896 29.0901 33.6051 29.3155V29.3296Z" fill="#BBC296"/>
<path d="M39.0854 45.9683C41.72 42.587 43.2838 38.6281 44.27 34.4861C44.3264 34.2325 43.9037 34.1198 43.8333 34.3734C42.6639 38.4309 40.931 42.1644 38.8178 45.8133C38.7332 45.9683 38.9727 46.1091 39.0854 45.9683Z" fill="#BBC296"/>
</svg>
