<svg width="109" height="175" viewBox="0 0 109 175" fill="none" xmlns="http://www.w3.org/2000/svg">
<path d="M98.33 21.964C98.2863 21.8114 98.2751 21.6455 98.2247 21.4767C98.0804 20.9866 97.2568 20.9646 97.2685 21.5471C97.2824 22.7349 97.2763 23.8741 97.2635 24.9971C91.9005 38.565 78.358 44.8046 68.1888 54.832C63.8557 59.092 61.7072 63.7816 60.7033 68.7214C60.0291 59.9235 57.9689 51.164 54.9478 43.064C54.7179 42.4574 53.9234 42.7835 53.8303 43.2953C52.1633 52.713 52.8415 63.7826 56.6276 73.0084C57.3748 76.4908 58.3231 79.9095 59.7321 83.1581C59.752 83.2067 59.7329 83.2525 59.7367 83.3078C59.7479 83.4737 59.8431 83.5672 59.9479 83.6379C60.061 83.9135 60.1675 84.1729 60.313 84.4353C60.7673 90.4817 61.4503 96.6237 60.9475 102.646C60.9512 102.701 60.9808 102.727 61.0007 102.776C60.2858 104.357 59.7147 106.013 59.3532 107.809C59.3005 108.096 59.4813 108.306 59.6901 108.353C59.0326 111.275 58.4601 114.219 57.9952 117.195C56.7308 109.359 55.8762 100.768 54.0584 92.5529C53.0587 80.0997 51.3116 68.5026 41.323 59.3972C30.2089 49.2572 15.8314 46.5377 3.83941 37.9514C3.33172 37.5914 2.64539 38.3657 3.1244 38.7943C12.4256 47.1018 24.6289 48.7244 34.7581 55.726C43.0632 61.4679 48.8157 68.5607 51.2961 78.436C51.9849 81.2224 52.3553 84.0637 52.615 86.9124C50.2555 78.9009 46.59 71.539 40.1484 65.9984C38.338 64.4491 36.4187 63.096 34.4125 61.8543C32.2987 58.0424 28.2401 55.1234 24.6086 53.0142C24.2913 52.8413 23.9829 53.29 24.3068 53.4791C26.4797 54.8039 28.4302 56.3715 30.2461 58.1649C31.0374 58.939 31.7218 59.7759 32.3901 60.6194C20.9105 54.0204 7.77526 50.4501 1.98835 36.9492C1.88854 36.706 1.63782 36.6952 1.43369 36.798C1.43369 36.798 1.42038 36.7655 1.41373 36.7493C1.30642 36.3955 0.763837 36.5045 0.854931 36.865C4.43206 50.3823 13.6997 59.6698 24.3305 68.1705C37.1576 78.4222 48.1082 87.379 54.3347 102.367C55.4501 108.085 56.3841 113.915 57.5739 119.584C57.5739 119.584 57.5739 119.584 57.5872 119.617C57.416 120.862 57.2419 122.145 57.0841 123.423C54.8054 113.161 46.4926 102.554 38.5805 98.185C38.1356 97.9319 37.648 98.3593 37.8476 98.8458C41.9972 108.68 49.5488 116.418 53.6548 126.099C54.1248 127.706 54.5785 129.32 55.039 130.95C55.0893 131.118 55.2428 131.169 55.3791 131.132C55.5035 131.574 55.6278 132.015 55.7198 132.47C55.7634 132.622 55.8844 132.686 55.995 132.679C55.7434 135.112 55.5241 137.533 55.3411 139.995C55.3028 140.086 55.2483 140.184 55.2101 140.276C55.1432 140.436 55.2126 140.559 55.3012 140.636C54.5138 151.966 54.5575 163.429 56.3732 174.316C56.4347 174.651 56.9943 174.629 56.9976 174.268C57.0378 161.994 56.7288 149.978 57.2587 137.882C59.1189 134.428 61.4156 131.023 63.8782 127.606C64.0495 127.839 64.491 127.715 64.4552 127.35C64.4278 127.191 64.4394 127.035 64.4281 126.869C69.6501 119.743 75.5395 112.628 79.6962 105.03C83.4361 101.772 86.6025 97.3463 87.6426 92.4485C87.7394 91.9919 87.0571 91.7605 86.9603 92.217C86.0049 96.398 83.519 99.3885 80.9823 102.532C83.8492 96.6386 85.5352 90.4526 84.9416 83.7435C86.8886 80.1785 88.4145 76.4643 89.1437 72.4708C90.1229 77.1651 91.2223 81.829 91.9222 86.5811C93.5187 97.3497 89.5346 106.43 82.1091 113.91C74.4707 121.611 64.3363 127.153 60.0323 137.577C59.8411 138.034 60.5604 138.402 60.8135 137.957C67.9146 125.855 80.4762 119.487 88.5981 108.349C97.3407 96.3684 92.2542 81.4813 89.5897 68.4799C89.6308 67.6105 89.6328 66.7382 89.589 65.8468C89.5628 65.4598 89.2563 65.0361 88.8214 65.1767C88.6917 65.2299 88.5487 65.2508 88.4352 65.2973C88.0976 65.398 87.9047 65.6666 87.9567 66.0241C88.0333 66.58 88.1585 67.1159 88.2513 67.6651C87.9004 67.7333 87.831 68.3491 88.0432 69.5124C87.8505 71.2586 87.511 72.9704 87.0019 74.6381C86.1017 78.0765 84.3696 81.2881 82.6329 84.35C79.5664 89.7573 75.6397 94.6842 72.1446 99.8317C66.812 107.704 62.9688 116.158 63.643 125.695C61.3779 128.992 59.2109 132.344 57.3354 135.899C57.5677 131.295 57.9202 126.66 58.4871 121.994C59.2477 115.677 60.6448 109.571 62.2801 103.539C66.0972 96.1754 71.3173 89.9221 75.4766 82.6075C79.6072 75.3615 79.4267 67.5356 82.1561 60.1068C83.9753 58.2614 85.7155 56.3159 87.3613 54.3712C94.247 46.2218 100.338 35.8599 98.8937 24.9533C99.0454 24.0764 99.1579 23.1967 99.1723 22.2624C99.1844 21.7839 98.5449 21.6106 98.3138 21.9706L98.33 21.964ZM5.28052 45.5252C11.2729 52.8794 21.9968 56.8521 29.9109 61.0874C33.8875 63.2065 37.1487 65.7518 39.908 68.5978C36.2978 67.0483 32.286 66.4592 28.9455 64.1359C28.6473 63.9172 28.3293 64.3887 28.6274 64.6074C32.2212 67.2246 36.9253 69.1778 41.318 70.141C47.0796 76.7942 50.2349 84.9906 52.422 93.736C42.3217 74.2948 16.6556 64.8411 5.28052 45.5252ZM83.9156 85.4907C81.8531 96.5295 78.3109 105.163 71.5895 114.59C69.1689 117.971 66.673 121.306 64.3144 124.699C64.0228 109.17 76.3772 98.1894 83.9156 85.4907ZM39.5998 100.438C39.1756 99.589 43.382 103.376 44.4332 104.46C44.9587 105.002 45.4357 105.564 45.9031 106.149C46.2578 106.875 46.6125 107.601 46.9673 108.327C46.519 107.696 46.0774 107.082 45.6033 106.48C45.3301 106.138 44.8491 106.581 45.1061 106.931C48.1129 110.888 50.0717 115.199 51.6318 119.693C47.9511 113.171 43.0036 107.301 39.5998 100.438ZM56.1234 131.376C55.7851 129.582 55.2981 127.888 54.6975 126.24C54.6027 125.824 54.485 125.399 54.3901 124.983C54.9936 126.592 55.5646 128.214 56.0708 129.863C56.1107 129.96 56.186 130.005 56.2546 130.034C56.213 130.487 56.1715 130.939 56.1071 131.383L56.1234 131.376ZM49.6272 111.346C50.1687 112.204 50.6843 113.091 51.1933 113.962C53.1369 117.313 54.5123 120.803 55.3879 124.46C54.0224 119.886 51.8978 115.586 49.6272 111.346ZM76.1788 49.6964C80.6187 46.1124 86.6568 42.1756 91.4413 37.4462C88.4072 42.8403 84.7761 47.7026 79.7039 52.2849C73.5886 57.7878 66.5435 61.2096 61.894 67.9297C64.1698 60.365 69.8581 54.791 76.1788 49.6964ZM57.9377 73.5696C56.9964 69.8448 56.1362 66.0868 55.3438 62.2631C55.2897 62.039 55.1068 61.9626 54.9475 61.99C54.2327 57.0167 54.1127 51.9698 54.4539 47.1693C54.7507 42.8607 55.1533 47.4886 55.5626 48.8551C56.6793 52.5458 57.3774 56.3703 58.0622 60.1624C58.5252 62.8141 58.8224 65.477 59.0252 68.1408C58.0597 63.8955 56.7758 59.7052 55.6319 55.5331C55.5076 55.0916 54.8058 55.228 54.9301 55.6696C56.6655 62.6679 58.2799 69.6023 59.4594 76.6772C59.4602 76.7716 59.4706 76.8431 59.4715 76.9375C58.9084 75.8424 58.4035 74.7045 57.9473 73.5467L57.9377 73.5696ZM61.1123 82.4591C61.1123 82.4591 61.1543 82.4229 61.1572 82.3838C62.1503 76.9559 66.2368 73.157 70.5325 69.8216C67.7942 79.9063 64.4584 89.7815 61.7392 99.8205C62.2732 94.0126 61.5383 88.2519 61.1056 82.4428L61.1123 82.4591ZM79.9666 65.6658C79.0385 72.5448 76.7246 78.4011 73.2761 84.4009C70.6033 89.0595 66.9417 93.0629 63.9899 97.457C66.7054 88.1016 69.6983 78.8218 71.4409 69.1268C72.8406 68.0598 74.2441 67.0481 75.5533 66.0372C77.4473 64.5589 79.2748 62.9185 81.0138 61.2008C80.4859 62.592 80.1954 63.9616 79.9599 65.6496L79.9666 65.6658ZM92.4586 44.5876C88.8896 50.9401 83.583 56.2438 78.4997 61.399C72.9228 67.0599 63.4913 71.4988 60.949 79.476C60.9323 79.066 60.9223 78.6723 60.9056 78.2623C60.9753 76.5856 60.9896 74.9125 60.9583 73.2204C61.0454 72.0479 61.1917 70.927 61.4293 69.8443C67.3413 60.5222 77.9589 55.8807 85.5308 48.0181C89.6521 43.7502 92.9806 38.5195 95.3265 32.9721C95.931 32.1368 96.4734 31.289 96.9635 30.4058C96.4306 35.2471 95.166 39.7824 92.4653 44.6039L92.4586 44.5876Z" fill="#BBC296"/>
<path d="M39.9924 64.9254C38.0196 61.965 35.8286 58.9805 33.6164 56.1751C33.3728 55.8583 32.9337 56.2659 33.1612 56.5893C35.2399 59.3925 36.7961 63.0923 39.5791 65.3034C39.802 65.4772 40.1312 65.1715 39.9828 64.9483L39.9924 64.9254Z" fill="#BBC296"/>
<path d="M73.6077 71.2686C72.5214 74.9919 70.6233 78.2147 69.1416 81.7593C69.0555 81.9651 69.347 82.1675 69.5083 82.0066C72.1065 79.1974 73.1924 75.0575 74.1137 71.4399C74.2018 71.1006 73.6892 70.9131 73.5849 71.259L73.6077 71.2686Z" fill="#BBC296"/>
<path d="M76.7663 50.9897C73.6478 52.0233 72.5922 56.2833 69.7744 57.8186C69.4958 57.9708 69.7175 58.3724 70.0093 58.2527C71.358 57.6613 72.2887 56.5594 73.249 55.4833C74.4575 54.1348 75.9624 52.8163 77.0071 51.3456C77.1293 51.1818 76.9609 50.9099 76.7597 50.9735L76.7663 50.9897Z" fill="#BBC296"/>
<path d="M78.9321 51.8816C78.1859 52.5099 77.5776 53.2899 76.8085 53.9087C76.55 54.1095 76.8984 54.497 77.157 54.2961C77.9328 53.6936 78.8773 53.0407 79.2169 52.0678C79.2771 51.8915 79.058 51.7731 78.9321 51.8816Z" fill="#BBC296"/>
<path d="M76.6195 112.582C79.5566 110.184 82.3046 107.37 85.0608 104.761C85.432 104.419 84.9026 103.822 84.5314 104.164C81.7685 106.756 78.3492 109.088 76.2425 112.264C76.0916 112.496 76.403 112.747 76.6195 112.582Z" fill="#BBC296"/>
<path d="M71.7919 119.792C75.0725 117.954 78.0615 115.173 80.3786 112.233C80.6297 111.922 80.1125 111.585 79.8614 111.896C77.4337 114.844 74.1435 116.706 71.5416 119.46C71.3803 119.62 71.5686 119.941 71.7823 119.815L71.7919 119.792Z" fill="#BBC296"/>
</svg>
